<?xml version="1.0" encoding="UTF-8" ?>
<!DOCTYPE svg PUBLIC "-//W3C//DTD SVG 1.1//EN" "http://www.w3.org/Graphics/SVG/1.1/DTD/svg11.dtd">
<svg width="500pt" height="500pt" viewBox="0 0 500 500" version="1.1" xmlns="http://www.w3.org/2000/svg">
<g id="#ffffffff">
</g>
<g id="#8c52ffff">
<path fill="#8c52ff" opacity="1.00" d=" M 90.48 188.68 C 124.26 176.14 158.11 163.75 191.91 151.25 C 186.56 186.44 181.17 221.61 175.80 256.79 C 173.41 273.04 164.58 288.50 151.02 297.95 C 138.82 307.18 123.11 311.03 107.97 309.81 C 93.65 308.02 79.74 301.78 69.51 291.47 C 55.69 278.08 48.58 258.07 51.05 238.95 C 53.14 216.47 69.38 196.36 90.48 188.68 Z" />
<path fill="#8c52ff" opacity="1.00" d=" M 301.60 156.51 C 335.12 167.89 368.64 179.25 402.15 190.64 C 416.06 195.06 428.35 204.62 435.87 217.16 C 444.14 230.51 447.00 247.06 443.68 262.42 C 440.58 278.74 430.53 293.59 416.58 302.59 C 401.90 312.63 382.83 315.86 365.65 311.30 C 350.96 307.69 337.67 298.38 329.53 285.59 C 324.49 277.88 321.25 269.05 319.92 259.95 C 313.87 225.46 307.67 191.00 301.60 156.51 Z" />
</g>
<g id="#5ce1e6ff">
<path fill="#5ce1e6" opacity="1.00" d=" M 192.16 246.16 C 209.97 214.94 227.77 183.72 245.59 152.52 C 262.04 179.34 278.44 206.18 294.88 233.00 C 299.31 240.35 304.22 247.51 307.09 255.67 C 316.03 279.89 307.50 309.33 286.77 324.82 C 272.75 336.78 253.04 340.98 235.12 337.49 C 213.00 333.33 193.67 316.53 186.94 294.99 C 181.77 278.92 183.87 260.82 192.16 246.16 Z" />
</g>
</svg>
