<svg xmlns="http://www.w3.org/2000/svg" viewBox="0 0 128 128">
<style>
#sh_deunhealth_bg {fill: #15191C}
@media (prefers-color-scheme: light) {
    #sh_deunhealth_bg {fill: #F4F2ED}
}
</style>
<rect id="sh_deunhealth_bg" width="128" height="128" rx="20"/>
<svg width="104" height="104" x="12" y="12" viewBox="0 0 5800 4920">
<!-- source : https://www.thenetworkadministrator.com/images/2019/docker-death.png -->
  <g id="l2CP6pRa58VFVAkhfhZRTMe" fill="rgb(202,219,222)" style="transform: none;">
    <g style="transform: none;">
      <path id="pkbULuus6" d="M118 2399 c-14 -16 -28 -37 -30 -46 -2 -10 -12 -19 -23 -21 -60 -9 -65 -12 -65 -42 0 -29 13 -40 25 -20 3 6 15 10 26 10 10 0 28 5 38 12 32 20 51 3 51 -46 0 -25 5 -48 10 -51 6 -3 10 -35 10 -70 0 -35 5 -67 10 -70 6 -3 10 -24 10 -45 0 -22 9 -55 20 -75 11 -20 20 -49 20 -65 0 -16 5 -32 10 -35 6 -3 10 -17 10 -30 0 -13 5 -27 10 -30 6 -3 10 -14 10 -23 0 -20 100 -224 122 -250 8 -9 22 -33 31 -52 8 -19 27 -46 41 -59 14 -14 26 -29 26 -34 0 -26 250 -265 302 -290 19 -9 43 -26 53 -37 11 -12 38 -30 61 -40 22 -11 47 -26 54 -35 7 -8 22 -15 35 -15 12 0 30 -9 40 -20 10 -11 26 -20 36 -20 10 0 34 -9 54 -20 20 -11 44 -20 55 -20 10 0 22 -4 25 -10 3 -5 17 -10 30 -10 13 0 27 -4 30 -10 3 -5 19 -10 35 -10 16 0 32 -4 35 -10 3 -5 19 -10 35 -10 16 0 32 -4 35 -10 3 -5 21 -10 40 -10 19 0 37 -4 40 -10 3 -5 33 -10 66 -10 52 0 59 2 59 20 0 16 6 20 33 19 30 -2 30 -2 5 -6 -56 -8 -18 -52 45 -53 30 0 37 4 37 19 0 11 -6 22 -12 24 -20 8 71 6 127 -3 50 -7 50 -7 -22 -9 -64 -1 -73 -3 -73 -20 0 -11 9 -21 23 -25 12 -3 158 -6 324 -6 304 0 353 5 353 37 0 10 -22 13 -95 13 l-95 0 0 28 c0 51 -11 72 -36 72 -13 0 -24 4 -24 9 0 4 -30 23 -67 40 -81 39 -98 49 -140 79 -17 12 -38 22 -47 22 -9 0 -16 5 -16 10 0 6 -8 14 -18 18 -23 9 -110 104 -191 208 -44 58 -70 83 -89 87 -15 2 -74 14 -132 25 -169 34 -469 64 -687 69 -232 6 -270 2 -275 -29 -2 -18 -10 -11 -43 38 -21 32 -44 64 -50 69 -18 18 -122 238 -144 305 -12 36 -26 73 -31 82 -6 10 -10 27 -10 38 0 11 -4 28 -9 38 -17 30 -43 183 -55 317 -12 144 -20 156 -68 104z m2025 -1636 c-46 -2 -120 -2 -165 0 -46 1 -9 3 82 3 91 0 128 -2 83 -3z"></path>
    </g>
  </g>
  <g id="l5YnbvihXGSSzDX6em6ZMmp" fill="rgb(19,137,182)" style="transform: none;">
    <g style="transform: none;">
      <path id="pQrQXIg32" d="M2964 4270 c-150 -121 -200 -166 -202 -185 -2 -18 11 -42 50 -88 304 -363 297 -355 329 -348 18 4 103 67 219 164 180 150 190 160 190 193 0 28 -10 45 -50 88 -27 29 -50 56 -50 59 0 3 -10 16 -23 29 -12 13 -67 74 -121 136 -70 81 -104 112 -120 112 -15 0 -97 -59 -222 -160z"></path>
      <path id="pkLWH0O73" d="M4038 4395 c-3 -3 -30 -10 -59 -15 -30 -6 -72 -14 -94 -19 -169 -38 -245 -53 -279 -57 -73 -8 -77 -27 -42 -179 37 -156 75 -323 82 -354 11 -56 19 -59 109 -43 44 8 89 18 100 22 24 9 275 68 327 77 66 10 68 22 34 193 -8 41 -28 143 -43 225 l-29 150 -50 3 c-27 2 -52 0 -56 -3z"></path>
      <path id="p1792OamPR" d="M2265 4111 c-6 -5 -40 -21 -78 -35 -37 -14 -82 -32 -100 -39 -105 -46 -155 -67 -162 -67 -4 0 -21 -6 -38 -14 -18 -8 -47 -20 -64 -27 -44 -18 -42 -34 12 -154 7 -16 21 -50 30 -75 9 -25 22 -56 30 -70 7 -14 34 -77 60 -140 27 -63 49 -117 51 -119 2 -2 43 12 91 32 131 52 123 51 123 14 1 -60 19 -352 26 -421 l7 -69 161 8 c272 14 419 24 424 30 3 2 0 129 -4 282 l-9 278 -58 6 c-32 4 -60 9 -62 11 -3 3 -36 -1 -73 -8 -37 -7 -105 -13 -152 -13 l-85 0 35 19 c19 11 43 19 53 20 9 0 17 4 17 9 0 5 9 11 21 14 19 5 20 11 17 54 -4 41 -80 262 -109 315 -5 10 -9 26 -9 37 0 11 -4 21 -8 23 -4 2 -15 26 -24 53 l-15 50 -49 3 c-27 2 -54 -1 -59 -7z"></path>
      <path id="pwUEFRkDy" d="M4580 3721 c0 -5 -14 -24 -31 -42 -38 -41 -82 -126 -104 -204 -25 -84 -25 -275 -1 -379 21 -88 74 -213 112 -263 30 -39 30 -50 2 -74 -28 -22 -36 -23 -40 -5 -3 13 -6 13 -28 1 -25 -14 -25 -14 -2 -15 12 0 22 -4 22 -8 0 -24 -258 -116 -375 -133 -66 -10 -1572 -19 -3277 -19 l-668 0 0 -107 c0 -60 4 -113 8 -118 5 -7 368 -8 1132 -4 619 4 1642 10 2274 13 727 4 1156 10 1167 17 21 11 54 76 79 159 l18 55 143 8 c289 15 424 77 637 295 59 60 72 80 72 105 0 27 -7 36 -45 60 -25 15 -50 27 -55 27 -6 0 -10 7 -10 15 0 10 -10 15 -30 15 -16 0 -33 6 -37 14 -4 8 -26 19 -48 25 -105 29 -303 -2 -437 -69 l-78 -39 0 70 c0 60 2 69 18 69 27 0 31 8 19 41 -15 39 -37 37 -38 -3 -1 -19 -7 -1 -14 42 -7 41 -18 89 -25 105 -22 59 -113 175 -136 175 -7 0 -14 9 -17 20 -3 11 -17 24 -31 30 -15 5 -26 17 -26 28 0 19 -52 72 -70 72 -5 0 -10 7 -10 15 0 10 -11 15 -35 15 -19 0 -35 -4 -35 -9z"></path>
      <path id="pvupUNrWM" d="M1593 3424 c-6 -16 -21 -56 -33 -89 -12 -33 -26 -69 -30 -80 -5 -11 -14 -38 -21 -60 -7 -22 -16 -44 -20 -50 -3 -5 -17 -41 -29 -80 -12 -38 -26 -74 -30 -80 -13 -18 -17 -65 -6 -74 6 -4 31 -15 56 -24 90 -31 196 -69 218 -78 12 -5 32 -13 45 -18 12 -5 47 -19 77 -31 30 -12 78 -24 107 -27 l52 -6 19 44 c11 24 27 64 37 89 9 25 23 59 30 75 109 246 124 303 89 330 -10 8 -28 15 -40 15 -11 0 -24 4 -30 8 -5 5 -29 15 -54 22 -25 8 -49 17 -55 20 -5 4 -37 17 -70 29 -33 13 -69 27 -80 31 -109 43 -136 52 -176 57 -43 5 -46 4 -56 -23z"></path>
      <path id="p9Ni6NGom" d="M3135 3350 l-50 -5 -8 -55 c-4 -30 -9 -106 -11 -167 -2 -63 -9 -119 -15 -126 -7 -9 -10 -55 -9 -123 l2 -109 160 -3 c88 -1 165 -7 170 -12 15 -15 251 -13 264 3 9 11 23 120 38 297 2 25 5 95 7 155 l2 110 -45 2 c-25 2 -81 8 -125 14 -44 6 -114 11 -155 10 -41 -1 -97 2 -125 6 -27 5 -72 6 -100 3z"></path>
      <path id="pSX8m0vt4" d="M5860 2410 c0 -5 14 -10 30 -10 17 0 30 5 30 10 0 6 -13 10 -30 10 -16 0 -30 -4 -30 -10z"></path>
      <path id="pSdxYalni" d="M2445 2324 c-115 -32 -162 -48 -200 -65 -22 -10 -88 -40 -146 -67 l-106 -49 -59 24 c-32 13 -68 28 -79 33 -22 10 -141 49 -225 73 -206 60 -426 74 -574 37 -81 -21 -215 -83 -273 -127 -18 -14 -33 -21 -33 -15 0 5 -11 13 -25 16 -14 4 -25 11 -25 16 0 6 -6 10 -14 10 -8 0 -21 7 -29 15 -21 20 -166 72 -253 90 -40 8 -103 15 -139 15 l-65 0 0 -68 c0 -207 102 -539 231 -754 l40 -66 197 5 c243 7 465 -10 747 -58 156 -26 185 -35 185 -60 0 -10 4 -19 8 -19 5 0 38 -37 73 -82 81 -106 168 -201 191 -210 10 -4 18 -12 18 -18 0 -5 9 -10 19 -10 10 0 33 -13 51 -30 18 -16 36 -28 40 -25 5 3 16 -5 24 -17 9 -12 18 -19 22 -15 9 8 107 -42 117 -60 5 -8 16 -11 27 -8 12 4 19 -1 23 -15 4 -15 0 -20 -14 -20 -23 0 -25 -18 -3 -27 9 -3 60 -1 113 5 53 6 150 16 216 22 226 21 430 67 688 155 85 29 97 31 97 16 0 -10 8 -17 19 -17 11 0 18 3 15 7 -2 4 6 10 19 14 20 7 19 8 -11 12 -30 4 -19 11 120 77 302 144 547 315 772 539 127 127 168 173 181 202 8 19 9 19 12 -2 4 -19 8 -21 22 -13 24 12 34 48 14 52 -10 2 -1 21 34 66 39 51 49 59 51 43 3 -19 4 -20 21 -3 26 25 34 52 16 52 -8 0 -15 2 -15 4 0 2 28 51 62 108 44 75 62 116 66 149 4 42 2 47 -19 52 -34 9 -83 8 -95 -1 -5 -5 -25 -15 -44 -22 -40 -16 -169 -100 -189 -124 -12 -14 -18 -13 -65 12 -28 15 -53 30 -56 33 -5 5 -80 41 -127 60 -13 5 -33 13 -45 19 -55 24 -188 44 -293 44 -116 0 -233 -12 -250 -24 -5 -4 -35 -13 -65 -19 -30 -7 -68 -19 -85 -27 -59 -27 -224 -94 -233 -94 -5 0 -21 -9 -36 -21 -26 -20 -26 -20 -53 -1 -47 33 -248 131 -315 152 -35 12 -71 25 -80 31 -26 13 -155 9 -213 -7z m-625 -644 c0 -27 -3 -30 -30 -30 -27 0 -30 3 -30 30 0 27 3 30 30 30 27 0 30 -3 30 -30z"></path>
      <path id="p14g0n9k8s" d="M3410 1016 c0 -7 9 -16 21 -19 12 -3 18 -3 15 1 -4 3 4 12 16 19 22 12 21 12 -14 13 -26 0 -38 -4 -38 -14z"></path>
      <path id="pqLeO6upn" d="M1175 872 c25 -23 55 -23 55 0 0 14 -8 18 -37 18 -35 0 -36 -1 -18 -18z"></path>
      <path id="p1G4zxoK6h" d="M2450 760 c0 -23 26 -26 53 -6 25 20 21 26 -18 26 -28 0 -35 -4 -35 -20z"></path>
      <path id="p1ABpQetom" d="M1720 756 c0 -8 14 -19 30 -25 18 -6 28 -6 25 -1 -4 6 1 10 9 10 9 0 16 7 16 15 0 11 -11 15 -40 15 -28 0 -40 -4 -40 -14z"></path>
    </g>
  </g>
  <g id="l64w1ubiRhXeqq6roOKUq9Z" fill="rgb(54,76,80)" style="transform: none;">
    <g style="transform: none;">
      <path id="ppk0HQUQu" d="M3170 4433 c-46 -32 -430 -344 -430 -349 0 -3 53 -67 117 -142 65 -75 151 -176 192 -224 41 -49 79 -88 83 -88 5 0 102 78 214 173 250 209 242 203 248 186 13 -42 39 -158 42 -186 5 -48 33 -111 43 -94 5 7 21 12 37 10 16 -1 42 3 57 10 16 6 39 11 52 11 13 0 27 5 30 10 4 6 21 10 38 8 18 -1 43 4 55 11 13 7 26 10 29 7 4 -3 12 -1 19 5 7 6 30 12 52 13 21 2 48 8 59 15 12 6 32 10 45 9 13 -1 38 4 55 11 27 11 32 18 35 58 2 25 -2 53 -8 62 -6 9 -12 36 -13 60 -1 25 -5 49 -9 55 -6 11 -21 93 -26 152 -2 17 -6 35 -9 41 -3 5 -9 30 -13 54 -13 97 -36 130 -69 101 -13 -12 -116 -35 -135 -31 -8 2 -26 -3 -39 -10 -13 -7 -34 -11 -47 -8 -13 2 -25 0 -26 -4 -4 -11 -156 -41 -168 -34 -5 3 -10 0 -12 -6 -2 -6 -27 -12 -55 -14 -65 -3 -70 -7 -75 -54 -2 -22 -1 -38 3 -35 6 3 17 -48 36 -153 3 -22 1 -33 -7 -33 -11 0 -111 102 -118 121 -2 5 -17 23 -34 41 -24 26 -183 209 -218 250 -3 4 -17 0 -30 -9z m42 -55 c13 -13 46 -50 73 -83 27 -33 81 -96 120 -140 77 -87 115 -137 115 -153 0 -6 -42 -46 -92 -89 -51 -42 -95 -80 -98 -84 -3 -3 -44 -38 -92 -78 -89 -72 -123 -85 -135 -53 -7 17 -27 41 -221 266 -51 59 -91 113 -89 119 4 12 377 317 388 317 3 0 17 -10 31 -22z m929 -158 c15 -80 36 -188 47 -240 21 -96 18 -120 -14 -120 -13 0 -131 -27 -276 -62 -27 -7 -48 -16 -48 -20 0 -5 -4 -6 -10 -3 -14 9 -130 -16 -130 -27 0 -5 -6 -3 -13 4 -12 11 -56 180 -74 281 -3 15 -9 27 -14 27 -5 0 -6 6 -3 14 3 8 -4 49 -16 91 -16 56 -18 80 -11 89 6 7 51 21 99 30 89 17 223 47 322 71 30 8 68 13 85 12 l29 -2 27 -145z"></path>
      <path id="p11xoP1ZJ4" d="M2305 4126 c-16 -6 -35 -14 -40 -18 -6 -4 -41 -18 -78 -32 -37 -14 -82 -32 -100 -39 -105 -46 -155 -67 -162 -67 -7 0 -68 -25 -97 -41 -10 -5 -25 -9 -33 -9 -19 0 -19 -20 0 -57 18 -34 57 -124 74 -173 7 -19 19 -46 26 -60 7 -14 34 -77 60 -140 27 -63 49 -117 51 -119 2 -2 43 13 91 33 128 52 123 55 124 -66 1 -57 3 -114 5 -128 3 -23 14 -238 14 -276 0 -13 16 -14 118 -10 207 9 317 17 327 25 5 5 45 8 88 7 60 -1 76 2 72 12 -3 8 -5 139 -5 293 l0 279 -84 0 c-58 0 -86 -4 -90 -12 -4 -9 -8 -10 -11 -2 -4 8 -19 9 -48 3 -56 -11 -187 -11 -187 -1 0 10 45 32 65 32 8 0 15 5 15 10 0 6 7 10 15 10 8 0 25 10 36 21 16 16 18 23 9 29 -7 4 -18 23 -25 41 -18 52 -96 261 -106 287 -5 12 -13 32 -18 45 -5 12 -15 40 -22 62 -22 76 -30 82 -84 61z m70 -126 c65 -165 135 -359 135 -373 0 -9 -51 -36 -137 -72 -76 -31 -141 -62 -144 -67 -3 -5 -9 -9 -13 -9 -22 3 -36 -1 -50 -14 -8 -9 -19 -16 -23 -16 -18 0 -103 -34 -103 -41 0 -5 -7 -8 -16 -8 -8 0 -13 4 -10 9 4 5 -10 47 -30 93 -20 45 -49 115 -64 153 -15 39 -44 107 -64 152 -40 95 -44 87 57 123 29 10 129 50 222 89 94 39 178 70 189 68 13 -1 28 -26 51 -87z m418 -507 c3 -5 6 -119 8 -256 l4 -247 -105 -5 c-58 -3 -149 -10 -204 -15 -54 -6 -124 -10 -156 -10 l-57 0 -7 63 c-3 34 -11 145 -17 247 -11 206 -10 209 55 211 17 1 92 5 166 8 199 11 308 12 313 4z"></path>
      <path id="pJ2EIaHpJ" d="M4567 3713 c-4 -3 -7 -15 -7 -25 0 -10 -7 -18 -15 -18 -11 0 -15 -11 -15 -37 l1 -38 30 35 c21 25 38 35 60 35 21 1 28 -3 24 -13 -3 -9 0 -12 9 -9 17 7 48 -25 44 -44 -2 -7 10 -19 26 -27 16 -8 31 -23 33 -33 3 -11 11 -19 18 -19 7 0 23 -13 36 -30 30 -38 39 -38 39 0 0 23 -4 30 -20 30 -13 0 -20 7 -20 20 0 28 -69 100 -97 100 -16 0 -23 6 -23 20 0 36 -31 60 -76 60 -22 0 -44 -3 -47 -7z"></path>
      <path id="pYQyiw578" d="M4471 3626 c-17 -29 -31 -57 -31 -60 0 -4 -6 -14 -14 -22 -8 -7 -12 -22 -9 -32 2 -10 -2 -24 -10 -31 -20 -16 -10 -51 14 -51 14 0 19 7 19 25 0 14 3 25 8 25 4 0 18 29 31 65 14 36 29 65 33 65 4 0 8 16 8 35 0 19 -4 35 -9 35 -5 0 -23 -24 -40 -54z"></path>
      <path id="p1DWqQ3jK0" d="M4890 3467 c0 -34 2 -37 30 -37 26 0 29 3 21 18 -5 9 -19 26 -30 36 -21 19 -21 19 -21 -17z"></path>
      <path id="p3zFtG9eo" d="M1624 3462 c-15 -2 -25 -15 -33 -45 -7 -23 -21 -61 -32 -85 -10 -23 -19 -49 -19 -56 0 -8 -7 -17 -16 -20 -8 -3 -12 -10 -9 -16 6 -10 -11 -73 -26 -95 -3 -5 -16 -41 -29 -80 -12 -38 -27 -76 -33 -83 -6 -8 -11 -26 -11 -40 0 -22 8 -29 50 -45 27 -11 68 -28 91 -38 24 -11 50 -19 58 -19 8 0 24 -4 35 -10 11 -5 29 -14 40 -20 11 -5 29 -10 40 -10 11 0 20 -4 20 -8 0 -4 17 -13 38 -19 20 -6 69 -23 107 -37 77 -27 88 -24 102 34 3 14 9 27 12 30 3 3 12 23 20 45 7 22 22 58 31 80 10 22 37 85 60 140 23 55 49 116 58 135 23 50 23 60 0 60 -11 0 -26 7 -35 15 -8 8 -19 12 -25 9 -5 -4 -20 -2 -31 4 -12 5 -38 15 -57 22 -19 7 -53 20 -75 30 -22 9 -58 23 -80 31 -22 7 -47 18 -55 25 -8 6 -22 12 -30 12 -19 0 -114 35 -132 48 -7 5 -22 8 -34 6z m88 -66 c35 -14 133 -51 218 -82 180 -66 210 -80 210 -98 0 -8 -21 -63 -46 -122 -25 -60 -57 -138 -70 -174 -44 -113 -67 -160 -81 -160 -7 0 -42 11 -78 25 -36 13 -72 22 -81 18 -8 -3 -20 2 -27 11 -7 8 -77 40 -157 69 -104 38 -144 57 -142 68 2 7 36 104 77 215 40 111 75 210 77 220 3 19 16 34 30 34 4 0 36 -11 70 -24z"></path>
      <path id="pkeqE8bv5" d="M4386 3393 c-8 -41 -11 -176 -4 -188 3 -5 8 -27 12 -47 4 -24 12 -38 22 -38 13 0 14 13 8 88 -4 48 -12 91 -18 95 -8 6 -7 10 2 14 18 7 16 103 -2 103 -8 0 -17 -12 -20 -27z"></path>
      <path id="pT51d4Ogu" d="M3076 3301 c0 -36 -3 -68 -7 -72 -5 -3 -10 -78 -10 -167 -1 -90 -6 -165 -11 -168 -4 -3 -8 -30 -8 -60 0 -40 4 -54 14 -54 8 0 16 -4 18 -10 2 -6 82 -10 210 -10 117 -1 208 -5 210 -10 2 -5 38 -11 81 -13 60 -3 77 -1 73 9 -3 8 -1 16 4 19 6 4 10 34 10 68 1 64 24 296 37 377 5 25 7 60 5 78 -3 31 -5 32 -50 33 -26 0 -56 3 -67 5 -31 7 -349 23 -357 18 -4 -3 -16 -1 -25 4 -10 5 -43 11 -73 14 l-55 4 1 -65z m409 -1 c61 -6 124 -11 140 -13 30 -2 30 -3 29 -57 -3 -118 -36 -435 -46 -448 -9 -10 -32 -12 -97 -7 -47 3 -133 8 -191 11 -58 3 -134 8 -170 12 l-65 7 1 50 c1 28 4 139 7 249 4 148 8 200 18 207 15 9 216 3 374 -11z"></path>
      <path id="pLVmOip6j" d="M4980 3205 c0 -38 3 -45 19 -45 23 0 31 34 16 67 -17 39 -35 27 -35 -22z"></path>
      <path id="pP70vGGsu" d="M5250 3196 c-11 -5 -20 -16 -20 -24 0 -12 10 -14 53 -8 28 3 64 6 80 6 21 0 27 5 27 21 0 18 -5 20 -60 17 -32 -2 -68 -7 -80 -12z"></path>
      <path id="pv9j5PbM9" d="M5473 3202 c-6 -4 -14 -21 -17 -38 -6 -28 -4 -32 19 -38 14 -4 35 -16 46 -27 12 -12 29 -19 40 -16 12 3 19 0 19 -9 0 -8 5 -14 10 -14 6 0 31 -13 56 -29 l46 -28 -27 -22 c-15 -11 -24 -21 -20 -21 4 0 2 -7 -5 -15 -11 -13 -8 -15 18 -15 39 0 54 20 60 79 4 48 4 48 -41 74 -25 15 -51 27 -57 27 -6 0 -20 9 -32 20 -12 11 -30 20 -40 20 -11 0 -15 5 -12 14 7 17 -46 48 -63 38z"></path>
      <path id="pz3xP2OdC" d="M5168 3173 c-33 -8 -20 -33 17 -33 28 0 35 4 35 20 0 20 -14 23 -52 13z"></path>
      <path id="pt8tonh4P" d="M5085 3143 c-52 -13 -59 -43 -10 -43 31 0 35 3 35 25 0 14 -1 24 -2 24 -2 -1 -12 -4 -23 -6z"></path>
      <path id="p1HLJEtNT0" d="M4950 3040 c0 -47 11 -63 25 -40 4 6 11 8 16 5 5 -4 9 -1 9 5 0 6 5 8 10 5 6 -3 10 -1 10 5 0 6 5 8 10 5 6 -3 10 -2 10 2 0 5 14 17 30 26 17 10 30 22 30 28 0 13 -57 11 -83 -2 -16 -9 -22 -9 -25 0 -2 6 -12 11 -23 11 -16 0 -19 -7 -19 -50z"></path>
      <path id="pXx3ftqk4" d="M4418 3053 c2 -16 9 -34 14 -40 6 -7 8 -20 4 -28 -3 -9 -2 -13 4 -10 6 3 10 0 10 -7 0 -21 44 -101 58 -106 17 -5 16 63 -2 80 -7 8 -17 29 -21 46 -3 18 -11 32 -16 32 -5 0 -9 14 -9 30 0 25 -4 30 -24 30 -20 0 -23 -4 -18 -27z"></path>
      <path id="pMEibl28q" d="M4536 2797 c3 -8 -12 -22 -36 -36 -27 -15 -39 -28 -36 -37 3 -8 1 -14 -4 -14 -6 0 -10 7 -10 16 0 13 -3 14 -13 5 -8 -6 -16 -9 -19 -6 -3 3 -13 -5 -24 -16 -14 -16 -15 -23 -6 -26 6 -3 12 -13 12 -23 0 -10 9 -20 20 -23 11 -3 20 -1 20 3 0 9 40 25 53 22 4 -1 7 3 7 9 0 5 5 7 10 4 6 -3 10 -1 10 5 0 6 5 8 10 5 6 -3 10 1 10 10 0 9 5 15 12 13 10 -4 58 36 58 47 0 3 -11 5 -25 5 -20 0 -25 5 -25 25 0 15 -6 25 -15 25 -8 0 -12 -6 -9 -13z"></path>
      <path id="pGPHPtAbx" d="M5530 2785 c0 -21 -5 -25 -30 -25 -16 0 -30 -4 -30 -10 0 -5 -7 -10 -15 -10 -9 0 -18 -7 -21 -15 -4 -8 -12 -15 -20 -15 -8 0 -14 -4 -14 -8 0 -4 -16 -14 -35 -21 -19 -7 -35 -19 -35 -27 0 -10 -12 -14 -40 -14 -22 0 -40 -4 -40 -9 0 -6 -17 -11 -37 -13 -25 -2 -39 -8 -41 -19 -3 -19 31 -32 46 -17 6 6 23 11 39 12 51 4 186 77 266 143 42 36 77 67 77 69 0 2 -16 4 -35 4 -31 0 -35 -3 -35 -25z"></path>
      <path id="pCcQahWiF" d="M4198 2651 c-68 -28 -41 -51 41 -35 21 4 31 12 31 24 0 25 -29 29 -72 11z"></path>
      <path id="paHowaFAR" d="M146 2562 c-8 -13 -9 -158 -1 -171 5 -9 1 -12 -11 -11 -11 1 -45 2 -76 1 l-58 -1 0 -49 c0 -33 5 -51 14 -54 8 -3 16 -1 18 5 3 7 19 13 37 14 18 1 38 7 44 13 19 19 34 12 41 -19 5 -27 10 -30 41 -30 28 0 35 4 35 20 0 16 7 20 35 20 85 0 327 -70 362 -105 8 -8 21 -15 29 -15 8 0 14 -4 14 -9 0 -5 10 -13 22 -17 12 -3 28 -13 36 -20 20 -21 40 -17 81 15 59 46 192 109 277 131 164 41 342 20 644 -77 41 -13 84 -28 95 -33 74 -34 148 -60 168 -60 14 0 71 22 128 48 123 57 171 79 181 81 5 0 25 8 45 16 58 23 192 55 230 55 18 0 41 -4 51 -9 9 -6 45 -19 80 -31 60 -19 255 -114 334 -162 36 -22 39 -22 65 -6 40 25 56 32 168 78 55 22 111 46 125 53 14 6 30 12 35 12 21 3 101 26 120 35 11 6 29 9 40 8 11 -1 47 4 81 11 33 7 87 11 120 8 66 -4 208 -32 239 -46 11 -5 38 -16 60 -26 83 -34 115 -50 115 -57 0 -5 6 -8 13 -8 7 0 36 -16 66 -35 29 -19 56 -35 60 -35 4 0 18 12 32 26 31 34 154 116 199 134 19 7 40 17 46 21 9 7 54 2 54 -7 0 -1 -4 -14 -10 -28 -8 -23 -7 -26 14 -26 14 0 27 9 34 23 l11 22 0 -22 c1 -36 17 -27 40 22 13 28 29 47 43 50 29 7 171 -20 176 -34 2 -5 9 -8 17 -5 7 3 16 1 20 -5 3 -6 14 -11 24 -11 10 0 24 -7 31 -15 7 -8 16 -13 20 -10 5 3 16 -3 26 -12 10 -10 20 -17 23 -16 12 3 73 -31 78 -44 3 -7 9 -11 13 -8 5 3 11 1 15 -5 3 -5 22 -17 41 -26 20 -9 42 -27 51 -40 20 -31 39 -21 63 31 10 23 33 57 50 75 16 17 30 36 30 41 0 26 235 137 266 125 7 -3 14 0 17 7 2 6 14 12 28 13 32 3 89 26 89 37 0 5 -43 7 -97 3 -199 -11 -928 -18 -942 -8 -12 9 -11 17 7 56 27 57 27 56 -2 56 -19 0 -26 -7 -34 -37 -7 -26 -10 -31 -11 -15 -1 32 -16 27 -35 -13 -9 -19 -25 -39 -36 -45 -18 -10 -231 -12 -1825 -17 -269 0 -526 -4 -570 -7 -44 -3 -538 -7 -1098 -8 l-1018 -3 -6 23 c-3 12 -11 22 -18 22 -9 0 -15 24 -20 75 -5 52 -11 75 -21 75 -7 0 -15 -4 -18 -8z"></path>
      <path id="p8LEqpmJU" d="M158 2204 c-3 -3 1 -30 9 -61 8 -31 12 -65 10 -75 -3 -10 -1 -18 4 -18 5 0 9 -7 9 -15 0 -20 19 -19 26 0 4 9 1 51 -6 95 -10 64 -16 80 -30 80 -9 0 -19 -3 -22 -6z"></path>
      <path id="p11Qujnjk0" d="M4557 2003 c-4 -3 -7 -21 -7 -40 0 -26 -4 -33 -20 -33 -16 0 -20 -7 -20 -35 l0 -35 20 20 c11 11 20 24 20 28 0 5 8 17 19 28 18 20 41 58 41 68 0 8 -45 7 -53 -1z"></path>
      <path id="p1gtPr1oL" d="M215 1925 c5 -37 28 -85 42 -85 16 0 17 51 1 85 -15 34 -46 34 -43 0z"></path>
      <path id="phntblxQP" d="M4413 1860 c-17 -15 -29 -31 -25 -35 4 -3 0 -10 -8 -15 -13 -8 -12 -10 3 -10 13 0 17 -8 17 -35 0 -32 -3 -35 -28 -35 -37 0 -52 -17 -52 -57 0 -41 14 -36 57 20 18 23 45 56 60 72 15 17 36 43 46 58 17 27 17 27 -7 27 -17 0 -26 6 -28 19 -3 18 -6 17 -35 -9z"></path>
      <path id="pdwBlfPnl" d="M285 1724 c8 -20 13 -40 10 -44 -3 -4 2 -11 11 -14 9 -4 14 -13 10 -21 -3 -8 -1 -15 4 -15 4 0 23 -30 42 -67 18 -38 38 -72 44 -78 13 -13 69 -98 68 -105 -1 -3 19 -25 42 -50 l44 -45 0 37 c0 27 -6 41 -20 50 -11 7 -20 18 -20 25 0 7 -11 13 -25 13 -22 0 -25 4 -25 35 0 28 -4 35 -20 35 -13 0 -20 7 -20 19 0 32 -22 81 -36 81 -8 0 -14 10 -14 25 0 16 -6 25 -15 25 -10 0 -15 10 -15 30 0 48 -30 100 -57 100 -23 0 -23 -1 -8 -36z"></path>
      <path id="p5vjG6rnV" d="M1625 1570 c-3 -5 7 -22 22 -38 l27 -30 17 21 c16 20 15 22 -6 39 -25 20 -51 23 -60 8z"></path>
      <path id="pLfnhHvlg" d="M4120 1481 c0 -27 2 -28 24 -18 13 6 29 20 35 29 10 16 7 18 -24 18 -32 0 -35 -3 -35 -29z"></path>
      <path id="pro0hHPvW" d="M4037 1433 c-4 -3 -7 -15 -7 -25 0 -13 -7 -18 -25 -18 -14 0 -28 -6 -31 -14 -3 -8 -14 -16 -25 -19 -10 -3 -19 -12 -19 -21 0 -9 -8 -16 -20 -16 -11 0 -20 -4 -20 -10 0 -5 -7 -10 -15 -10 -10 0 -15 -10 -15 -31 l0 -30 29 20 c15 11 31 18 35 14 3 -3 6 -2 6 4 0 5 36 37 79 72 107 84 112 91 69 91 -19 0 -38 -3 -41 -7z"></path>
      <path id="pBIfHMDJG" d="M580 1261 c0 -5 7 -14 15 -21 8 -6 13 -17 12 -23 -1 -6 3 -11 10 -12 6 0 15 -3 19 -7 14 -15 24 -8 24 18 0 14 -6 32 -14 40 -16 15 -66 19 -66 5z"></path>
      <path id="p14GNZ2Jkn" d="M3583 1162 c-51 -28 -57 -52 -12 -52 37 0 61 22 57 53 l-3 23 -42 -24z"></path>
      <path id="p3t6bZYTw" d="M3468 1107 c-42 -20 -48 -26 -48 -54 0 -30 -3 -33 -30 -33 -25 0 -30 -4 -30 -24 0 -20 4 -23 23 -18 12 3 24 8 27 11 11 14 62 31 72 25 7 -4 8 -2 4 4 -4 7 3 14 19 18 26 6 34 29 13 37 -10 4 -10 6 0 6 6 1 12 12 12 26 0 30 -1 30 -62 2z"></path>
      <path id="pLmBxxZtk" d="M3268 983 c-11 -3 -18 -14 -18 -29 0 -22 3 -24 23 -18 38 11 77 34 77 44 0 10 -50 12 -82 3z"></path>
      <path id="pP4PtdIxe" d="M1118 897 c12 -7 20 -16 16 -19 -3 -4 3 -4 15 -1 37 9 25 33 -16 33 -36 -1 -37 -1 -15 -13z"></path>
      <path id="pribSmJHO" d="M1580 780 c0 -15 7 -20 25 -20 14 0 28 -1 33 -2 4 -2 8 7 10 20 3 19 -1 22 -32 22 -29 0 -36 -4 -36 -20z"></path>
      <path id="pb3s79QXt" d="M2447 783 c-4 -3 -7 -15 -7 -26 0 -16 4 -18 28 -12 24 6 67 12 100 14 6 1 12 8 12 16 0 12 -14 15 -63 15 -35 0 -67 -3 -70 -7z"></path>
      <path id="pz7iqVOQF" d="M1700 761 c0 -22 24 -28 78 -22 32 3 46 21 17 21 -8 0 -15 5 -15 10 0 6 -18 10 -40 10 -33 0 -40 -3 -40 -19z"></path>
    </g>
  </g>
  <g id="lsQ8rWeWGVbm3lG71F6CPB" fill="rgb(0,0,0)" style="transform: none;">
    <g style="transform: none;">
      <path id="p7POf1G3h" d="M4557 3747 c-50 -58 -105 -154 -132 -234 -10 -29 -21 -50 -24 -48 -9 5 -16 -99 -13 -190 4 -136 9 -182 26 -208 9 -13 16 -29 15 -33 -1 -5 5 -26 14 -46 10 -21 17 -44 17 -52 0 -8 5 -16 11 -18 5 -2 11 -10 12 -18 2 -8 16 -37 32 -64 l28 -48 -24 -19 c-13 -10 -35 -21 -49 -24 -14 -4 -32 -13 -40 -20 -8 -7 -19 -14 -25 -16 -14 -2 -23 -5 -92 -29 -35 -12 -68 -18 -74 -14 -7 4 -9 3 -5 -4 7 -12 -73 -27 -104 -19 -11 3 -18 2 -15 -3 2 -4 -12 -10 -33 -14 -20 -3 -912 -6 -1981 -6 -1069 0 -1945 -1 -1947 -3 -9 -9 -13 -167 -4 -162 6 3 10 -1 10 -9 0 -8 -4 -17 -9 -20 -5 -3 -7 -15 -4 -27 4 -16 12 -19 37 -17 l31 3 3 83 3 82 667 0 c1851 0 3210 8 3277 18 79 12 244 65 281 89 13 8 24 11 24 7 0 -5 4 -4 8 2 4 5 33 25 66 43 32 18 68 41 79 52 19 17 19 20 4 37 -9 10 -17 22 -17 26 0 4 -11 22 -24 39 -38 51 -92 176 -111 263 -23 99 -22 244 0 322 20 67 74 173 113 220 l28 34 84 -90 c196 -205 216 -240 238 -397 6 -44 12 -100 13 -125 2 -25 6 -53 11 -62 8 -17 12 -16 56 5 108 54 232 92 334 103 60 7 170 -10 202 -31 12 -8 46 -27 76 -43 30 -16 57 -37 58 -47 3 -11 -23 -43 -70 -89 -231 -226 -366 -287 -639 -290 l-139 -1 -16 -54 c-8 -29 -26 -78 -40 -109 -27 -61 -23 -73 19 -65 22 4 34 17 53 56 13 28 24 56 24 62 0 6 8 17 18 26 14 12 37 15 107 11 68 -3 112 2 178 17 49 12 93 18 99 15 6 -4 8 -2 5 3 -4 6 6 13 22 16 16 3 51 19 79 36 28 16 53 27 55 24 3 -2 10 5 17 16 6 12 15 21 20 21 15 0 54 35 192 170 71 69 128 132 128 140 -1 15 -143 126 -190 147 -14 6 -46 14 -72 18 -27 3 -48 10 -48 14 0 4 -49 7 -110 7 -60 -1 -110 -3 -110 -6 0 -3 -8 -6 -17 -7 -10 -1 -52 -13 -93 -28 -41 -14 -80 -27 -87 -28 -7 -2 -16 -6 -19 -10 -22 -22 -32 0 -44 96 -12 100 -46 197 -83 243 -9 10 -32 38 -51 62 -71 87 -249 272 -262 272 -7 0 -33 -24 -57 -53z"></path>
      <path id="pD1d4MIjw" d="M159 2301 c-1 -24 0 -111 2 -113 1 -2 3 -12 5 -23 1 -11 5 -31 8 -45 11 -47 19 -105 20 -135 1 -16 6 -34 12 -40 16 -15 38 -91 30 -104 -4 -6 -3 -11 3 -11 6 0 14 -12 17 -27 4 -16 17 -49 30 -74 13 -26 20 -49 17 -53 -4 -3 -1 -6 6 -6 7 0 11 -8 9 -17 -2 -10 2 -22 8 -28 7 -5 25 -35 41 -65 16 -30 47 -82 68 -115 22 -33 38 -64 36 -70 -1 -5 0 -7 4 -3 4 4 30 -21 58 -55 28 -34 71 -82 96 -106 53 -50 187 -161 195 -161 3 0 24 -13 48 -29 100 -67 294 -153 428 -190 25 -7 56 -18 70 -23 14 -6 40 -11 58 -13 19 -1 37 -6 40 -11 4 -5 21 -10 37 -11 33 -1 120 -11 120 -13 0 -2 45 -9 110 -17 93 -11 722 -8 737 4 7 5 33 11 58 12 36 2 183 26 340 55 8 2 34 8 58 15 23 6 46 9 51 6 5 -3 11 0 13 7 2 6 20 12 40 12 20 1 34 4 32 7 -2 3 31 16 74 28 42 12 100 33 127 46 28 12 61 26 75 30 37 11 283 127 330 156 14 9 54 33 90 54 81 48 243 169 333 247 37 33 67 57 67 54 0 -3 43 38 95 91 52 53 95 100 95 104 0 4 8 14 18 21 16 12 95 106 165 197 15 20 34 44 42 54 8 9 12 17 9 17 -3 0 8 17 25 38 31 40 111 175 155 262 l26 51 -42 -3 -41 -3 -81 -138 c-76 -128 -185 -286 -265 -381 -156 -184 -433 -418 -651 -548 -53 -32 -105 -66 -117 -77 -11 -11 -23 -17 -26 -14 -7 6 -107 -49 -107 -59 0 -4 -6 -5 -13 -2 -7 2 -51 -13 -97 -35 -227 -105 -575 -195 -855 -221 -66 -6 -156 -15 -201 -20 -105 -13 -320 -13 -442 0 -238 25 -294 33 -402 55 -222 45 -443 133 -596 235 -126 85 -312 276 -290 298 4 4 96 7 204 6 261 -1 599 -39 825 -93 32 -8 39 -6 52 12 13 18 13 23 -1 39 -21 23 -56 33 -194 57 -262 45 -484 63 -738 60 l-212 -3 -32 50 c-108 169 -199 432 -229 660 -6 49 -14 96 -19 104 -8 17 -60 26 -61 11z"></path>
      <path id="p4XRdjY8r" d="M1651 1831 c-12 -12 -21 -26 -21 -33 0 -7 23 -36 52 -65 l52 -53 -57 -58 -57 -58 23 -22 c13 -12 27 -22 32 -22 5 0 33 23 62 52 l53 52 55 -54 c50 -50 56 -53 80 -42 37 17 31 40 -27 99 l-52 53 52 53 c53 54 61 74 40 95 -21 21 -40 13 -96 -40 l-55 -52 -27 30 c-15 16 -41 42 -57 57 l-31 29 -21 -21z"></path>
    </g>
  </g>
</svg>
</svg>
