<svg width="104.25" height="48" viewBox="0 0 556 256" fill="none" xmlns="http://www.w3.org/2000/svg" xmlns:xlink="http://www.w3.org/1999/xlink" version="1.1">
<defs>
</defs>
<g transform="translate(0, 0)">
<svg x="0" y="0" width="556" height="256" viewBox="0 0 128 128" preserveAspectRatio="xMinYMin meet">
<style>
#sh_homepage_bg {fill: #15191C}
@media (prefers-color-scheme: light) {
    #sh_homepage_bg {fill: #F4F2ED}
}
</style>
<rect id="sh_homepage_bg" width="128" height="128" rx="20"/>
<svg x="12" y="12" width="104" height="104" viewBox="0 0 3300 3300" preserveAspectRatio="xMidYMid meet">
  <g id="l33V6DhuzxrOezZ50cjjHyV" fill="rgb(1,1,1)" style="transform: none;">
    <g></g>
  </g>
  <g id="l33VQdWV5bWWm77zv1OeiXt" fill="rgb(16,108,170)" style="transform: none;">
    <g>
      <path id="p1ECEb7zHE" d="M2438 2943 c-327 -274 -363 -305 -366 -320 -4 -15 20 -73 29 -73 4 0 12 -13 18 -30 8 -24 16 -30 40 -30 23 0 31 -6 40 -30 7 -20 17 -30 30 -30 16 0 21 -6 21 -26 0 -31 16 -48 53 -58 15 -3 27 -13 27 -21 0 -8 5 -15 10 -15 6 0 10 -6 10 -14 0 -7 17 -26 38 -42 20 -16 61 -52 90 -81 29 -29 61 -53 72 -53 14 0 20 -7 20 -21 0 -26 58 -89 83 -89 16 0 17 33 17 560 0 308 -2 560 -4 560 -3 0 -105 -84 -228 -187z"></path>
      <path id="p5HZXOPCc" d="M2679 1199 c-1 -30 -3 -46 -6 -36 -2 9 -9 15 -14 12 -12 -8 -12 -392 0 -400 5 -3 12 3 14 12 3 10 5 -90 5 -222 0 -135 -3 -231 -8 -220 -7 19 -8 19 -15 2 -4 -10 -5 -38 -1 -63 15 -114 92 -214 164 -214 29 0 34 3 22 11 -12 9 -11 10 5 4 112 -38 218 12 277 132 l33 68 3 477 3 478 -74 0 c-40 0 -149 3 -240 7 l-167 6 -1 -54z m136 -1103 c6 -5 1 -4 -10 2 -11 6 -33 25 -50 44 l-30 33 40 -35 c22 -19 45 -39 50 -44z"></path>
    </g>
  </g>
  <g id="l7DO82f2oZf0QsY8ENHe0zB" fill="rgb(20,143,207)" style="transform: none;">
    <g>
      <path id="p16Ge5QKJc" d="M2076 2642 c-5 -8 -565 -481 -627 -530 -14 -11 -36 4 -160 108 -78 66 -146 120 -151 120 -4 0 -8 -15 -8 -32 0 -27 11 -43 54 -85 30 -29 59 -53 64 -53 6 0 258 -249 562 -552 747 -750 780 -784 780 -797 0 -6 6 -11 14 -11 9 0 16 -12 18 -27 2 -20 9 -29 26 -31 27 -4 25 -81 22 668 -1 502 -4 618 -15 630 -7 8 -14 20 -14 25 -1 6 -5 10 -10 10 -14 0 -25 14 -28 38 -5 31 -31 56 -42 39 -5 -9 -11 -5 -21 12 -7 14 -17 23 -21 20 -4 -2 -19 11 -32 31 -13 19 -26 32 -29 29 -3 -3 -15 7 -27 22 -11 15 -21 23 -21 19 0 -4 -7 -2 -15 5 -8 7 -14 20 -13 29 2 9 -2 15 -9 14 -7 -2 -10 6 -8 17 2 10 -4 25 -13 32 -14 11 -15 10 -9 -7 6 -18 6 -19 -6 -3 -11 14 -16 15 -26 5 -10 -9 -12 -9 -9 3 2 8 -2 14 -9 13 -6 -1 -10 5 -9 15 2 9 -1 27 -7 39 -8 18 -13 20 -23 12 -11 -9 -16 -5 -24 16 -5 14 -10 28 -10 31 0 7 -40 45 -41 39 -1 -3 -2 -9 -3 -15 0 -5 -5 -10 -11 -10 -5 0 -11 5 -11 10 -1 6 -3 12 -4 15 -1 3 -3 11 -4 18 -1 6 -8 11 -16 9 -8 -2 -12 0 -7 4 4 4 -1 16 -10 27 -10 10 -17 22 -15 25 6 11 -16 14 -22 4z"></path>
      <path id="pL7rFckS4" d="M1020 2408 c0 -43 15 -58 57 -58 40 0 41 9 6 41 -60 54 -63 55 -63 17z"></path>
    </g>
  </g>
  <g id="l3aJj8FLw5MG2UTSm803eVc" fill="rgb(65,170,221)" style="transform: none;">
    <g>
      <path id="pAqq4Vqub" d="M190 2715 c0 -403 1 -426 19 -441 57 -50 131 -126 131 -134 0 -6 5 -10 11 -10 13 0 229 -217 229 -231 0 -5 5 -9 11 -9 13 0 109 -98 109 -111 0 -5 5 -9 12 -9 16 0 98 -87 98 -105 0 -8 7 -15 15 -15 20 0 105 -85 105 -105 0 -8 7 -15 15 -15 20 0 105 -85 105 -105 0 -8 7 -15 15 -15 20 0 105 -85 105 -105 0 -8 7 -15 15 -15 20 0 105 -85 105 -105 0 -8 7 -15 15 -15 20 0 105 -85 105 -105 0 -8 7 -15 15 -15 20 0 105 -85 105 -105 0 -8 7 -15 15 -15 20 0 105 -85 105 -105 0 -8 7 -15 15 -15 20 0 105 -85 105 -105 0 -8 7 -15 15 -15 20 0 225 -205 225 -225 0 -8 7 -15 16 -15 16 0 114 -95 114 -111 0 -5 5 -9 11 -9 6 0 69 -59 141 -130 l130 -130 216 0 217 1 -36 19 c-49 26 -104 91 -125 149 -14 37 -18 91 -21 291 -3 135 -9 249 -14 254 -5 6 -9 20 -9 33 0 14 -6 23 -15 23 -8 0 -15 5 -15 11 0 13 -33 47 -780 797 -304 303 -556 552 -561 552 -18 0 -80 63 -69 70 7 5 6 11 -5 20 -12 10 -15 10 -15 0 0 -10 -3 -10 -15 0 -8 7 -13 16 -10 20 6 10 -75 81 -86 75 -4 -3 -19 9 -33 27 l-26 33 0 -142 0 -143 -206 0 -205 0 1 23 c1 12 2 153 1 314 l-1 291 -210 177 -210 176 0 -426z"></path>
    </g>
  </g>
  <g id="l4N23q4E88t3C7av5VMM1j5" fill="rgb(118,190,230)" style="transform: none;">
    <g>
      <path id="pXtC9qByt" d="M197 2334 c-4 -4 -7 -181 -7 -394 0 -388 4 -440 36 -440 7 0 19 -11 28 -25 9 -14 22 -25 29 -25 16 0 57 -42 57 -58 0 -7 6 -12 13 -12 16 0 297 -281 297 -298 0 -6 6 -12 13 -12 16 0 107 -91 107 -108 0 -7 6 -12 13 -12 16 0 107 -91 107 -108 0 -7 6 -12 13 -12 16 0 107 -91 107 -108 0 -7 6 -12 13 -12 16 0 107 -91 107 -108 0 -7 6 -12 13 -12 15 0 227 -211 227 -226 0 -7 9 -14 20 -17 12 -3 20 -14 20 -25 0 -13 9 -23 23 -27 26 -8 107 -84 107 -101 0 -6 9 -14 20 -17 11 -3 23 -13 26 -22 4 -9 23 -32 42 -51 l35 -34 387 0 c282 0 389 3 398 12 9 9 -7 30 -68 90 -44 43 -80 83 -80 89 0 6 -5 7 -10 4 -6 -3 -10 1 -10 10 0 9 -3 14 -8 11 -4 -2 -23 13 -42 35 -18 21 -40 39 -49 39 -8 0 -12 3 -8 6 9 9 -100 114 -120 115 -10 0 -13 3 -6 5 16 7 -211 234 -234 235 -10 0 -13 3 -6 5 16 7 -91 114 -114 115 -10 0 -13 3 -6 5 16 7 -91 114 -114 115 -10 0 -13 3 -6 5 16 7 -91 114 -114 114 -15 0 -16 2 -3 10 10 6 11 10 3 10 -7 0 -13 8 -13 17 0 9 -3 14 -6 10 -4 -3 -24 12 -44 33 -21 22 -47 40 -57 41 -10 0 -13 3 -6 5 16 7 -91 114 -114 115 -10 0 -13 3 -6 5 16 7 -91 114 -114 114 -15 0 -16 2 -3 10 10 6 11 10 3 10 -7 0 -13 8 -13 17 0 9 -3 14 -6 10 -4 -3 -24 12 -44 33 -21 22 -47 40 -57 40 -15 0 -16 2 -3 10 10 6 11 10 3 10 -7 0 -13 7 -13 17 0 9 -3 14 -6 10 -4 -3 -24 12 -44 33 -21 22 -47 40 -57 41 -10 0 -13 3 -6 5 13 6 -87 114 -105 114 -7 0 -9 8 -5 18 3 9 3 14 -2 10 -4 -4 -29 15 -56 43 -26 27 -52 49 -58 49 -6 0 -7 7 -4 17 4 11 3 14 -5 9 -8 -4 -12 -1 -12 10 0 10 -3 15 -6 11 -8 -7 -94 79 -94 94 0 7 -3 9 -6 6 -4 -4 -28 16 -53 43 -26 28 -52 50 -59 50 -7 0 -9 7 -5 18 3 9 3 14 -2 10 -4 -4 -34 20 -66 53 -32 33 -59 56 -59 52 0 -4 -10 5 -23 20 -12 16 -26 25 -30 21z"></path>
    </g>
  </g>
  <g id="l60s7OWuzPcuDtbP93UxppA" fill="rgb(172,211,239)" style="transform: none;">
    <g>
      <path id="p136Pfe59j" d="M190 945 c0 -622 1 -657 19 -705 28 -73 63 -114 123 -144 l52 -26 658 0 c622 0 657 1 651 18 -3 9 -21 32 -39 49 -18 18 -30 33 -27 33 4 0 -4 11 -17 25 -12 13 -27 22 -33 18 -6 -3 -7 -2 -4 4 7 12 -86 106 -109 109 -20 3 -32 14 -14 14 9 0 5 9 -10 25 -12 13 -27 22 -33 18 -6 -3 -7 -2 -4 4 7 11 -226 246 -236 238 -4 -3 -5 -2 -2 2 8 10 -107 123 -118 116 -6 -3 -7 -2 -4 4 8 13 -107 126 -118 116 -4 -5 -5 -3 -2 3 8 14 -106 127 -118 117 -4 -5 -5 -3 -2 3 7 12 -105 127 -116 119 -4 -3 -5 -2 -2 2 8 10 -297 313 -308 306 -6 -3 -7 -2 -4 4 7 11 -56 77 -65 68 -3 -3 -11 1 -18 10 -7 8 -9 15 -6 15 4 0 1 6 -6 14 -7 7 -19 11 -25 9 -7 -3 -13 0 -13 7 0 7 -11 23 -25 36 l-25 23 0 -654z"></path>
    </g>
  </g>
</svg>
</svg>
</g>
</svg>
