<svg xmlns="http://www.w3.org/2000/svg" viewBox="0 0 128 128">
<style>
#sh_radarr_bg {fill: #15191C}
@media (prefers-color-scheme: light) {
    #sh_radarr_bg {fill: #F4F2ED}
}
#sh_radarr_fg {fill: #F4F2ED}
@media (prefers-color-scheme: light) {
    #sh_radarr_fg {fill: #24292e}
}
</style>
<rect id="sh_radarr_bg" width="128" height="128" rx="20"/>
<svg x="12" y="12" width="104" height="104" viewBox="0 0 512 512" preserveAspectRatio="xMidYMid meet">
<!-- source: https://cdn.jsdelivr.net/gh/selfhst/icons@main/svg/radarr.svg -->
<path id="sh_radarr_fg" d="m80.3 80.8 3.9 372.4c-31.4 3.9-54.9-11.8-54.9-43.1l-3.9-309.7c0-98 90.2-121.5 145.1-82.3l278.3 160.7c39.2 27.4 47 78.4 27.4 113.7-3.9-27.4-15.7-43.1-39.2-58.8L123.4 57.2C99.9 41.6 80.3 45.5 80.3 80.8m-23.5 392c23.5 7.8 47 3.9 66.6-7.8l321.5-188.2c19.6 27.4 15.7 54.9-7.8 70.6L166.5 504.2c-39.2 19.6-90.1 0-109.7-31.4"/>
<path d="M150.9 363 343 253.3 154.8 147.4z" style="fill:#ffc230"/>
</svg>
</svg>
