<svg xmlns="http://www.w3.org/2000/svg" viewBox="0 0 128 128">
<style>
#sh_sillytavern_bg {fill: #15191C}
@media (prefers-color-scheme: light) {
    #sh_sillytavern_bg {fill: #F4F2ED}
}
</style>
<rect id="sh_sillytavern_bg" width="128" height="128" rx="20"/>
<!-- Vectorized from png pulled from service -->
<svg x="12" y="12" width="104" height="104" viewBox="0 0 3300 3300" preserveAspectRatio="xMidYMid meet">
      <path id="pJaRRWg86" d="M235 3176 c-40 -17 -82 -67 -94 -111 -28 -103 80 -220 185 -200 38 7 109 64 119 96 6 18 17 19 168 19 l163 0 152 -175 c84 -97 155 -182 158 -190 4 -8 -8 -36 -25 -62 -17 -26 -36 -64 -43 -84 -9 -33 -15 -38 -52 -43 -23 -4 -64 -17 -91 -30 -56 -26 -141 -111 -151 -150 -6 -26 -7 -26 -106 -26 -96 0 -101 1 -144 32 -41 29 -44 34 -38 65 8 41 -17 111 -49 141 -64 60 -152 63 -214 9 -85 -75 -81 -194 9 -259 35 -24 104 -30 175 -13 27 6 39 1 86 -34 l54 -41 101 0 102 0 0 -38 c0 -21 7 -64 15 -95 15 -57 15 -58 -14 -110 -17 -28 -38 -80 -47 -114 l-17 -63 -131 0 -131 0 -20 37 c-23 43 -73 80 -120 89 -74 14 -171 -63 -182 -145 -13 -96 78 -188 176 -179 51 5 101 35 122 74 12 24 15 24 150 24 l137 0 11 -48 c5 -27 22 -80 36 -118 15 -38 30 -91 35 -119 4 -27 11 -67 15 -88 l7 -37 -62 0 c-58 0 -65 -3 -120 -45 -32 -25 -64 -45 -71 -45 -8 0 -33 7 -56 16 -57 22 -109 8 -158 -43 -64 -66 -67 -144 -8 -214 84 -100 234 -70 278 57 7 21 11 54 8 73 -4 33 0 39 36 64 36 25 47 27 136 27 l97 0 46 -41 c26 -23 66 -52 90 -66 33 -19 42 -31 42 -51 0 -25 44 -126 72 -163 10 -14 -12 -44 -148 -199 -87 -100 -164 -188 -170 -196 -9 -11 -52 -14 -220 -14 l-209 1 -20 31 c-63 98 -198 102 -266 7 -29 -41 -36 -116 -16 -156 23 -44 81 -91 122 -99 54 -10 121 19 153 67 l27 38 220 1 220 0 193 220 c106 121 199 220 207 220 7 0 16 -4 20 -9 11 -18 106 -43 163 -42 89 0 164 33 236 102 33 33 61 59 62 59 1 0 31 -29 66 -63 109 -110 234 -138 369 -84 36 15 68 27 72 27 3 0 90 -97 192 -215 l187 -215 221 0 222 -1 20 -32 c95 -151 324 -58 291 118 -12 65 -94 135 -158 135 -40 0 -108 -41 -135 -81 l-26 -39 -202 0 -202 0 -167 194 c-91 107 -166 199 -166 204 0 6 14 36 30 67 17 32 33 74 36 95 5 30 14 42 45 59 21 12 63 44 93 71 l54 50 92 0 c88 0 94 -2 130 -30 36 -28 39 -35 38 -78 -2 -79 50 -151 125 -174 51 -15 107 3 152 49 64 66 67 144 8 214 -49 57 -100 70 -186 47 -43 -11 -45 -11 -103 30 -55 39 -65 42 -123 42 l-63 0 6 33 c4 17 9 52 12 77 3 25 16 70 30 101 13 31 31 89 40 128 l16 71 134 0 135 0 37 -39 c22 -23 54 -44 80 -52 38 -11 48 -10 89 7 95 40 135 132 93 218 -57 118 -213 128 -279 19 l-26 -42 -137 -1 c-131 0 -138 1 -138 20 0 27 -39 130 -63 163 -18 27 -19 31 -3 86 9 31 16 78 16 104 l0 47 102 0 101 0 54 41 c47 35 59 40 86 34 71 -17 140 -11 175 13 90 65 94 184 9 259 -62 54 -150 51 -214 -9 -32 -30 -57 -100 -49 -141 6 -31 3 -36 -38 -65 -43 -31 -47 -32 -150 -32 -69 0 -106 4 -106 11 0 23 -63 100 -105 129 -24 17 -73 38 -110 47 -59 16 -66 21 -76 50 -6 18 -26 56 -45 84 -20 28 -34 57 -32 64 2 8 73 95 158 194 l155 180 162 1 c152 0 162 -1 168 -20 10 -32 84 -88 124 -95 77 -13 158 43 182 125 31 103 -81 218 -191 196 -39 -7 -88 -44 -106 -78 l-15 -28 -178 0 -179 0 -160 -182 c-87 -101 -170 -196 -184 -212 l-24 -29 -52 17 c-128 43 -269 3 -365 -103 -20 -22 -41 -41 -45 -41 -5 0 -27 22 -49 48 -48 56 -134 105 -215 122 -48 9 -67 9 -120 -6 -35 -9 -72 -18 -83 -20 -16 -3 -58 40 -195 200 l-175 205 -180 1 -180 1 -26 38 c-44 64 -125 87 -194 57z m1194 -572 c62 -18 122 -69 150 -128 18 -36 21 -61 21 -179 0 -117 -2 -136 -15 -131 -21 8 -20 -34 1 -57 26 -29 43 -90 44 -155 0 -68 -22 -155 -45 -174 -19 -16 -19 -50 0 -50 12 0 15 -19 15 -110 0 -103 -1 -110 -20 -110 -18 0 -20 -7 -20 -80 0 -74 1 -80 21 -80 20 0 20 -3 17 -227 -3 -211 -5 -231 -25 -268 -50 -93 -123 -135 -233 -135 -82 0 -131 17 -178 63 -128 123 -95 350 61 426 67 32 83 29 91 -20 4 -23 13 -57 21 -76 12 -29 19 -34 42 -31 l28 3 -4 121 c-3 101 -1 123 13 136 9 9 16 19 16 22 0 3 -31 6 -70 6 -40 0 -70 -4 -70 -10 0 -5 5 -10 10 -10 6 0 10 -7 10 -15 0 -8 -9 -15 -20 -15 -10 0 -44 -9 -75 -21 -72 -27 -156 -108 -191 -183 -31 -69 -46 -70 -111 -12 -83 75 -116 170 -93 266 15 62 32 71 68 37 35 -34 141 -97 162 -97 9 0 25 9 35 20 10 11 24 20 32 20 7 0 13 7 13 15 0 8 -6 15 -13 15 -7 0 -36 11 -63 25 -50 25 -94 81 -94 119 0 9 -8 16 -20 16 -13 0 -18 -5 -14 -15 4 -10 0 -15 -10 -15 -22 0 -36 40 -36 105 0 54 -16 85 -44 85 -30 0 -41 -33 -41 -119 0 -81 -1 -86 -22 -89 -19 -3 -23 3 -29 45 -19 114 6 293 41 293 7 0 39 -16 71 -35 32 -19 64 -35 71 -35 7 0 13 -7 13 -15 0 -22 38 -18 45 5 4 11 17 28 31 36 13 9 24 26 24 38 0 19 -4 22 -30 18 -82 -12 -164 41 -197 126 -27 70 -24 213 5 269 24 46 88 90 144 99 l33 6 19 -73 c18 -70 18 -73 0 -86 -29 -21 -10 -26 71 -18 55 5 75 11 75 21 0 8 -7 14 -15 14 -46 0 -73 186 -39 268 49 119 186 177 323 136z m622 -6 c51 -15 114 -69 142 -122 33 -62 31 -184 -3 -245 -28 -49 -60 -74 -67 -53 -13 34 -23 4 -23 -68 0 -44 2 -80 5 -80 3 0 38 33 79 73 58 56 78 85 95 130 11 32 21 69 21 83 0 25 2 26 37 19 65 -12 110 -42 140 -92 26 -44 28 -56 28 -153 0 -87 -4 -112 -22 -145 -39 -73 -94 -105 -182 -105 -50 0 -62 -3 -71 -20 -15 -28 2 -56 45 -70 42 -14 137 9 187 46 67 50 89 19 96 -131 5 -116 -9 -188 -36 -183 -14 3 -17 16 -17 89 0 90 -11 119 -46 119 -26 0 -39 -31 -39 -95 0 -73 -13 -97 -45 -89 -25 6 -25 6 -25 -65 l0 -71 -85 0 c-47 0 -85 -2 -85 -4 0 -12 57 -66 70 -66 8 0 33 11 55 25 22 13 48 25 58 25 9 0 17 5 17 10 0 14 51 59 68 60 20 0 32 -45 32 -121 0 -68 -20 -124 -64 -178 -18 -22 -88 -71 -102 -71 -7 0 -24 24 -37 54 -47 102 -140 179 -249 206 -28 7 -48 18 -48 26 0 8 5 14 10 14 6 0 10 5 10 10 0 6 -28 10 -65 10 -58 0 -85 -12 -53 -22 17 -6 23 -152 10 -202 -9 -32 -8 -40 9 -57 10 -10 23 -19 27 -19 20 0 43 41 54 96 6 32 12 60 14 62 7 9 86 -22 122 -48 63 -46 96 -117 96 -210 0 -64 -4 -83 -28 -128 -16 -28 -45 -64 -64 -78 -101 -78 -258 -68 -347 21 -66 66 -75 107 -75 357 0 132 4 208 10 208 6 0 10 5 10 10 0 6 -9 10 -20 10 -18 0 -20 7 -20 55 0 52 1 55 25 55 16 0 25 6 25 15 0 8 -7 15 -15 15 -13 0 -15 57 -15 453 l0 452 24 50 c46 98 118 144 225 145 35 0 81 -5 102 -12z" style="fill:#ff0000"></path>
      <path id="poIsOkWUG" d="M1398 2249 c-35 -27 -64 -54 -66 -60 -2 -5 37 -9 92 -9 53 0 96 4 96 9 0 5 -6 11 -12 14 -10 3 -10 9 1 29 10 20 10 30 2 47 -18 32 -44 26 -113 -30z" style="fill:#ff0000"></path>
      <path id="pFS0y81LZ" d="M1190 2056 c0 -7 15 -17 33 -22 l32 -10 3 -82 c2 -52 -1 -82 -8 -82 -5 0 -10 -4 -10 -10 0 -6 28 -10 65 -10 37 0 65 4 65 10 0 6 -4 10 -10 10 -6 0 -10 37 -10 90 0 71 3 92 15 96 38 15 7 24 -80 24 -73 0 -95 -3 -95 -14z" style="fill:#ff0000"></path>
      <path id="p1EcaaIHfb" d="M1800 2280 c-25 -25 -19 -38 42 -84 25 -19 52 -49 59 -66 19 -41 39 -39 39 5 0 24 5 35 15 35 8 0 15 7 15 15 0 8 -7 15 -15 15 -8 0 -15 4 -15 9 0 11 -98 91 -111 91 -5 0 -18 -9 -29 -20z" style="fill:#ff0000"></path>


      <path id="p1DDyK8Uus" d="M1195 2199 c-82 -4 -174 -10 -202 -14 l-53 -8 0 -73 0 -74 158 5 c86 3 192 7 235 10 105 6 117 -5 117 -111 l0 -77 -71 6 c-40 3 -133 2 -207 -4 -160 -11 -192 -25 -226 -98 -18 -39 -21 -65 -21 -161 0 -103 3 -119 25 -158 17 -31 37 -49 74 -66 46 -22 66 -25 216 -27 91 -2 207 -2 258 -1 l92 2 0 80 0 80 -204 0 c-242 0 -249 2 -250 87 -2 87 6 91 207 95 159 3 176 5 222 28 70 35 88 75 93 205 6 161 -19 219 -115 261 -59 26 -66 26 -348 13z" style="fill:#ffffff"></path>
      <path id="pSVDsEidF" d="M1910 1855 l0 -345 -130 0 -130 0 0 -82 0 -83 343 1 c188 1 352 2 365 3 21 1 22 5 22 81 l0 80 -131 0 -131 0 3 334 c2 184 2 336 -1 339 -3 2 -51 7 -107 11 l-103 6 0 -345z" style="fill:#ffffff"></path>
</svg>
</svg>
