<svg width="104.25" height="48" viewBox="0 0 556 256" fill="none" xmlns="http://www.w3.org/2000/svg" xmlns:xlink="http://www.w3.org/1999/xlink" version="1.1">
<g transform="translate(0, 0)">
<svg x="0" y="0" width="556" height="256" viewBox="0 0 128 128" preserveAspectRatio="xMinYMin meet">
<style>
#sh_tdarr_bg {fill: #15191C}
@media (prefers-color-scheme: light) {
    #sh_tdarr_bg {fill: #F4F2ED}
}
</style>
<rect id="sh_tdarr_bg" width="128" height="128" rx="20"/>
<!-- source : https://cdn.jsdelivr.net/gh/selfhst/icons@main/png/homepage.png -->
<svg x="12" y="12" width="104" height="104" viewBox="0 0 5110 5120" preserveAspectRatio="xMidYMid meet">
  <g id="l3knE5s2XsoruDf8wHMJel9" fill="rgb(93,255,254)" style="transform: none;">
    <g style="transform: none;">
      <path id="pbJBT1jZx" d="M2388 4763 c-16 -2 -28 -10 -28 -17 0 -25 30 -373 35 -413 l6 -43 125 0 c69 0 183 -8 252 -17 70 -9 145 -17 167 -17 l39 -1 22 95 c45 200 64 296 64 331 l0 35 -137 24 c-103 17 -186 23 -328 25 -104 2 -202 1 -217 -2z"></path>
      <path id="pKMQ9cU5o" d="M2025 4709 c-131 -30 -453 -155 -497 -194 -34 -28 -21 -70 75 -251 l92 -173 36 -1 c22 0 72 17 130 44 83 39 259 100 359 124 27 6 36 14 38 33 2 13 -13 96 -32 184 -19 88 -37 179 -41 203 l-7 42 -56 -1 c-32 -1 -75 -5 -97 -10z"></path>
      <path id="pD275DxY1" d="M3228 4568 c-89 -248 -108 -307 -108 -338 0 -35 1 -36 93 -74 98 -41 243 -121 316 -174 31 -22 55 -32 80 -32 35 1 40 6 154 161 107 145 118 163 115 197 -3 34 -9 41 -88 95 -161 109 -430 237 -498 237 -37 0 -37 0 -64 -72z"></path>
      <path id="p3M3ey81t" d="M1215 4317 c-157 -117 -356 -331 -483 -518 -72 -105 -174 -305 -222 -433 -46 -122 -103 -343 -121 -469 -15 -107 -15 -528 0 -637 16 -109 81 -367 113 -445 21 -53 28 -60 55 -63 28 -3 124 32 351 125 76 32 77 39 28 176 -68 186 -105 472 -86 650 54 492 282 915 648 1205 75 60 82 68 82 101 0 39 -7 52 -104 186 -127 176 -126 175 -160 175 -22 0 -52 -16 -101 -53z"></path>
      <path id="pjGPzQ9W" d="M2350 4180 c-129 -16 -400 -91 -400 -110 0 -6 -10 -10 -22 -10 -43 -1 -348 -177 -348 -201 0 -5 -6 -9 -14 -9 -8 0 -26 -13 -39 -30 -14 -16 -30 -30 -34 -30 -11 0 -133 -123 -133 -134 0 -4 -11 -17 -25 -28 -14 -11 -25 -28 -25 -39 0 -10 -7 -19 -15 -19 -8 0 -15 -6 -15 -14 0 -8 -7 -16 -15 -20 -8 -3 -15 -12 -15 -21 0 -8 -5 -15 -10 -15 -6 0 -16 -12 -23 -27 -6 -16 -17 -34 -24 -41 -7 -7 -13 -20 -13 -28 0 -8 -4 -14 -8 -14 -14 0 -108 -208 -142 -314 -30 -96 -60 -256 -60 -323 0 -31 2 -33 33 -33 l32 0 17 109 c9 60 31 151 48 202 31 95 125 303 148 327 6 7 12 18 12 23 0 5 9 19 20 31 11 12 20 27 20 34 0 6 7 14 15 18 8 3 15 12 15 21 0 8 5 15 10 15 6 0 10 8 10 18 0 9 10 22 22 27 12 6 26 18 32 28 14 24 157 167 167 167 4 0 19 14 32 30 14 17 28 30 32 30 3 0 38 22 78 50 41 27 113 71 163 97 49 26 91 50 92 55 2 4 11 8 19 8 9 0 72 18 140 40 172 56 307 74 503 66 168 -6 236 -18 387 -66 85 -27 309 -124 323 -140 15 -17 161 -110 172 -110 7 0 18 -10 23 -22 6 -13 19 -27 30 -32 11 -5 61 -54 110 -108 50 -54 96 -98 103 -98 6 0 12 -7 12 -16 0 -12 89 -153 110 -174 3 -3 29 -54 57 -115 77 -162 123 -316 144 -479 14 -119 7 -349 -15 -451 -38 -177 -107 -357 -192 -501 -24 -41 -44 -76 -44 -79 0 -2 -13 -19 -30 -37 -17 -18 -30 -37 -30 -43 0 -6 -9 -16 -20 -23 -11 -7 -20 -18 -20 -25 0 -7 -9 -18 -20 -25 -13 -8 -20 -23 -20 -41 0 -26 -4 -30 -32 -33 -27 -2 -34 -8 -36 -30 -3 -21 -9 -27 -30 -30 -16 -2 -31 -12 -37 -26 -5 -12 -17 -22 -25 -22 -9 0 -30 -13 -48 -30 -18 -16 -37 -30 -42 -30 -5 0 -13 -6 -17 -13 -4 -7 -25 -21 -45 -32 -21 -11 -38 -23 -38 -27 0 -5 -7 -8 -15 -8 -8 0 -15 -4 -15 -10 0 -5 -5 -10 -11 -10 -6 0 -53 -20 -103 -44 -122 -58 -300 -115 -403 -129 l-83 -11 0 -33 c0 -32 1 -33 44 -33 106 0 329 62 494 137 56 26 102 51 102 55 0 4 7 8 15 8 8 0 15 4 15 8 0 4 16 14 36 21 19 7 38 19 41 27 3 8 11 14 19 14 7 0 17 6 21 13 4 6 22 19 38 28 17 10 34 26 40 38 5 12 17 21 25 21 23 0 40 20 40 46 0 17 7 23 28 26 22 2 28 8 30 35 3 27 7 32 34 35 18 2 36 11 42 23 6 11 19 26 29 33 9 7 17 17 17 22 0 4 14 22 30 40 17 18 30 38 30 46 0 8 4 14 9 14 12 0 90 138 135 237 41 91 89 245 112 356 21 104 30 412 14 533 -13 105 -67 317 -101 399 -40 94 -92 195 -100 195 -5 0 -9 6 -9 14 0 22 -101 166 -116 166 -8 0 -14 8 -14 18 0 19 -165 202 -182 202 -6 0 -19 11 -30 25 -11 14 -28 25 -39 25 -10 0 -19 6 -19 14 0 15 -144 116 -166 116 -8 0 -14 4 -14 9 0 15 -214 109 -318 140 -184 55 -235 62 -447 66 -110 2 -229 0 -265 -5z"></path>
      <path id="pnAQZF7YN" d="M3877 4026 c-128 -134 -137 -147 -137 -183 0 -33 7 -46 46 -83 67 -65 153 -173 214 -267 52 -81 54 -83 93 -83 32 0 73 19 208 96 l169 96 0 37 c0 62 -175 311 -329 469 -94 96 -96 95 -264 -82z"></path>
      <path id="po9PlwCjz" d="M2355 3946 c-97 -16 -227 -49 -292 -75 -84 -34 -180 -80 -195 -93 -7 -7 -31 -22 -52 -33 -21 -11 -52 -32 -69 -47 -16 -16 -34 -28 -39 -28 -21 0 -228 -218 -228 -239 0 -12 -6 -21 -15 -21 -9 0 -21 -12 -28 -27 -6 -15 -21 -37 -32 -49 -57 -61 -166 -330 -196 -484 -20 -103 -17 -455 5 -558 26 -124 100 -332 117 -332 5 0 9 -7 9 -16 0 -18 39 -87 52 -92 4 -2 8 -10 8 -18 0 -8 7 -17 15 -20 8 -4 15 -15 15 -25 0 -10 9 -24 20 -31 11 -7 20 -19 20 -26 0 -7 7 -15 15 -18 8 -4 15 -12 15 -19 0 -21 36 -45 68 -45 30 0 32 2 32 34 0 25 -7 40 -25 54 -14 11 -25 25 -25 31 0 7 -7 14 -15 17 -8 4 -15 12 -15 18 0 7 -9 22 -20 34 -11 12 -20 26 -20 31 0 6 -6 14 -13 18 -7 4 -21 27 -32 51 -10 24 -23 46 -29 50 -12 7 -27 45 -81 202 -107 309 -78 660 80 969 53 102 74 138 98 165 9 11 17 28 17 38 0 10 4 18 9 18 5 0 63 54 129 120 65 66 122 120 126 120 6 0 105 68 116 80 3 3 55 28 115 57 125 59 290 111 383 120 l62 6 0 -317 0 -316 35 0 35 0 -2 353 -3 352 -45 2 c-25 1 -81 -4 -125 -11z"></path>
      <path id="pX15p4rUG" d="M2610 3923 l0 -40 98 -6 c121 -6 264 -47 417 -120 61 -29 112 -55 115 -58 15 -17 101 -69 114 -69 9 0 16 -7 16 -15 0 -9 7 -18 17 -22 9 -3 32 -24 51 -45 19 -21 41 -38 48 -38 8 0 14 -6 14 -12 1 -16 95 -118 109 -118 6 0 11 -7 11 -16 0 -13 52 -99 69 -114 13 -12 111 -230 130 -290 53 -170 56 -188 56 -380 0 -198 -6 -237 -70 -420 -15 -41 -29 -87 -32 -102 -3 -16 -9 -28 -14 -28 -5 0 -9 -9 -9 -20 0 -11 -4 -20 -9 -20 -5 0 -13 -10 -17 -22 -3 -12 -13 -28 -20 -36 -8 -7 -14 -20 -14 -28 0 -8 -4 -14 -10 -14 -5 0 -10 -5 -10 -10 0 -6 -9 -20 -20 -32 -11 -12 -20 -32 -20 -45 0 -16 -6 -23 -20 -23 -11 0 -20 -5 -20 -11 0 -6 -13 -22 -30 -36 -23 -18 -30 -33 -30 -59 0 -32 2 -34 33 -34 34 0 77 33 77 58 0 7 5 12 10 12 6 0 10 11 10 25 0 19 5 25 21 25 14 0 24 10 32 30 6 17 15 30 19 30 4 0 8 7 8 15 0 8 4 15 9 15 5 0 13 10 17 22 3 12 13 28 20 36 8 7 14 22 14 33 0 10 5 19 10 19 6 0 10 11 10 25 0 14 4 25 9 25 23 0 93 244 112 389 15 110 6 362 -15 461 -9 41 -28 113 -42 159 -28 93 -110 271 -125 271 -5 0 -9 5 -9 12 0 20 -62 108 -76 108 -8 0 -14 9 -14 19 0 23 -86 121 -106 121 -8 0 -14 6 -14 13 0 16 -61 77 -77 77 -6 0 -13 7 -17 15 -3 8 -13 15 -23 15 -10 0 -23 9 -28 21 -6 12 -32 33 -60 48 -27 14 -55 32 -63 39 -20 18 -157 80 -240 108 -95 32 -235 61 -339 70 l-83 7 0 -40z"></path>
      <path id="pTpzmfNjO" d="M4440 3401 c-36 -15 -112 -47 -170 -71 -58 -24 -108 -48 -112 -54 -13 -19 -9 -63 12 -118 35 -96 77 -262 91 -356 15 -109 -16 -100 259 -72 107 11 200 20 207 20 44 0 -29 385 -119 628 -19 52 -20 52 -61 51 -23 0 -71 -13 -107 -28z"></path>
      <path id="plVP5iAQz" d="M2460 3175 c0 -33 2 -35 35 -35 33 0 35 2 35 35 0 33 -2 35 -35 35 -33 0 -35 -2 -35 -35z"></path>
      <path id="pqW2Lw2bw" d="M2460 2795 l0 -115 35 0 35 0 0 115 0 115 -35 0 -35 0 0 -115z"></path>
      <path id="pGZJFXofR" d="M960 2655 l0 -55 35 0 35 0 0 55 0 55 -35 0 -35 0 0 -55z"></path>
      <path id="pVrtrpiiY" d="M960 2510 l0 -60 35 0 35 0 0 60 0 60 -35 0 -35 0 0 -60z"></path>
      <path id="pdy3eILRB" d="M4277 2525 c-4 -26 -7 -65 -7 -85 0 -59 -28 -206 -62 -320 -143 -491 -496 -897 -963 -1108 -221 -99 -440 -146 -685 -146 -186 0 -337 23 -507 79 -389 128 -704 373 -935 726 -61 93 -75 109 -98 109 -22 0 -341 -162 -377 -192 -26 -21 -13 -68 43 -159 354 -572 892 -923 1569 -1024 131 -20 474 -20 611 0 559 79 1026 337 1385 765 123 146 204 274 293 462 115 243 188 535 203 810 l6 118 -115 0 c-63 0 -169 3 -235 6 l-120 7 -6 -48z"></path>
      <path id="pJUbCXLAq" d="M2460 2515 c0 -33 2 -35 35 -35 33 0 35 2 35 35 0 33 -2 35 -35 35 -33 0 -35 -2 -35 -35z"></path>
      <path id="poolMThB" d="M974 2358 c16 -194 94 -420 213 -624 20 -35 41 -64 45 -64 4 0 8 -7 8 -15 0 -9 7 -18 15 -21 8 -4 15 -13 15 -20 0 -8 7 -17 15 -20 8 -4 15 -11 15 -18 0 -13 35 -46 50 -46 6 0 10 -8 10 -18 0 -23 130 -152 153 -152 9 0 17 -5 17 -12 0 -17 61 -68 82 -68 10 0 18 -7 18 -15 0 -8 7 -15 15 -15 8 0 15 -4 15 -10 0 -5 6 -10 14 -10 8 0 16 -3 18 -8 5 -11 98 -69 140 -87 21 -8 49 -15 63 -15 15 0 25 -6 25 -14 0 -15 17 -22 160 -67 113 -36 225 -59 286 -59 43 0 44 1 44 33 l0 33 -87 12 c-49 7 -148 33 -222 57 -73 25 -142 45 -152 45 -11 0 -19 6 -19 13 0 6 -22 22 -48 34 -68 32 -146 77 -150 86 -2 4 -10 7 -18 7 -8 0 -14 5 -14 10 0 6 -9 10 -20 10 -11 0 -20 6 -20 14 0 8 -13 23 -30 33 -16 9 -30 21 -30 25 0 4 -9 8 -20 8 -11 0 -20 6 -20 13 0 16 -131 147 -148 147 -6 0 -12 7 -12 16 0 9 -11 27 -25 40 -14 13 -25 28 -25 34 0 6 -7 13 -15 16 -8 4 -15 12 -15 20 0 7 -6 17 -12 21 -14 9 -22 22 -104 178 -86 163 -164 412 -164 524 0 29 -2 31 -36 31 l-37 0 7 -82z"></path>
      <path id="pIRRg59hf" d="M2460 2240 l0 -170 -345 0 -345 0 0 -35 0 -35 380 0 380 0 0 205 0 205 -35 0 -35 0 0 -170z"></path>
      <path id="pvkRW9hYJ" d="M2610 2035 l0 -35 375 0 375 0 0 35 0 35 -375 0 -375 0 0 -35z"></path>
      <path id="pjxCrVo6y" d="M1770 1920 l0 -60 35 0 35 0 0 60 0 60 -35 0 -35 0 0 -60z"></path>
      <path id="pfcn28uxC" d="M3424 1596 c-18 -18 -39 -36 -48 -39 -9 -4 -16 -13 -16 -22 0 -8 -9 -15 -20 -15 -11 0 -20 -4 -20 -10 0 -5 -7 -10 -15 -10 -8 0 -15 -4 -15 -10 0 -5 -7 -10 -15 -10 -8 0 -15 -4 -15 -9 0 -5 -11 -12 -25 -15 -14 -4 -25 -11 -25 -16 0 -6 -7 -10 -15 -10 -10 0 -15 -11 -15 -35 0 -33 2 -35 35 -35 19 0 35 4 35 9 0 5 11 12 25 15 14 4 25 11 25 16 0 6 7 10 15 10 8 0 15 5 15 10 0 6 7 10 15 10 8 0 15 5 15 10 0 6 7 10 15 10 8 0 15 7 15 15 0 8 9 15 20 15 11 0 23 7 26 15 4 8 12 15 18 15 23 0 66 59 66 90 0 27 -3 30 -32 30 -24 0 -41 -9 -64 -34z"></path>
      <path id="p17jfcecE1" d="M1640 1577 c0 -33 24 -67 47 -67 6 0 13 -7 17 -15 3 -8 15 -15 26 -15 11 0 20 -6 20 -13 0 -19 155 -117 184 -117 9 0 16 -4 16 -8 0 -27 281 -114 424 -132 176 -23 561 5 574 41 2 5 17 9 33 9 16 0 29 5 29 10 0 6 11 10 24 10 31 0 86 20 86 31 0 5 11 9 25 9 22 0 25 4 25 35 0 33 -2 35 -35 35 -19 0 -35 -4 -35 -10 0 -5 -8 -10 -17 -10 -24 0 -83 -23 -83 -32 0 -4 -13 -8 -30 -8 -16 0 -30 -4 -30 -10 0 -5 -12 -10 -27 -10 -16 -1 -55 -7 -88 -16 -88 -22 -303 -29 -421 -15 -114 15 -397 105 -432 139 -8 7 -27 19 -42 27 -16 8 -49 28 -73 45 -25 16 -52 30 -61 30 -9 0 -16 7 -16 15 0 9 -8 19 -17 22 -10 4 -26 17 -36 30 -13 16 -29 23 -53 23 -32 0 -34 -2 -34 -33z"></path>
      <path id="p13mQaA5rN" d="M2420 1005 l0 -35 50 0 50 0 0 35 0 35 -50 0 -50 0 0 -35z"></path>
      <path id="pSthfzbdw" d="M2570 1005 l0 -35 75 0 75 0 0 35 0 35 -75 0 -75 0 0 -35z"></path>
    </g>
  </g>
  <g id="l6SsHfrCB1EiOXMwPL2uGBv" fill="rgb(0,255,248)" style="transform: none;">
    <g style="transform: none;">
      <path id="pOlAvLc6g" d="M1510 4475 c0 -29 4 -35 21 -35 15 0 19 5 15 15 -3 8 4 24 16 35 l22 20 -37 0 c-36 0 -37 -1 -37 -35z"></path>
      <path id="pjAiufhBf" d="M2284 4165 c-125 -19 -329 -87 -450 -149 -169 -88 -269 -161 -404 -296 -291 -290 -434 -615 -465 -1055 -13 -185 26 -461 90 -638 87 -243 192 -406 379 -593 198 -197 373 -304 631 -387 168 -54 298 -72 510 -70 214 1 341 19 497 69 557 180 939 605 1074 1194 33 147 29 576 -8 715 -86 327 -207 543 -428 765 -224 224 -481 365 -798 436 -96 22 -506 28 -628 9z m358 -12 c-40 -2 -103 -2 -140 0 -37 2 -4 3 73 3 77 0 107 -2 67 -3z m-254 -10 c-10 -2 -26 -2 -35 0 -10 3 -2 5 17 5 19 0 27 -2 18 -5z m400 0 c-10 -2 -28 -2 -40 0 -13 2 -5 4 17 4 22 1 32 -1 23 -4z m-293 -466 l1 -247 -3 244 -3 245 -53 -4 c-48 -2 -49 -2 -12 5 75 14 70 32 70 -243z m248 236 c-13 -2 -33 -2 -45 0 -13 2 -3 4 22 4 25 0 35 -2 23 -4z m-273 -938 l0 -915 -350 0 -351 0 3 -97 3 -98 798 -3 797 -2 0 100 0 100 -350 0 -350 0 0 915 c0 915 0 915 20 915 31 0 166 -28 245 -52 411 -120 765 -471 890 -881 47 -157 58 -226 59 -372 1 -147 -6 -192 -54 -360 -100 -351 -353 -653 -690 -821 -176 -88 -397 -144 -570 -144 -261 0 -569 109 -791 279 -92 71 -289 280 -289 306 0 4 -11 21 -24 38 -71 94 -157 305 -192 469 -21 100 -24 340 -5 438 83 432 380 809 777 988 122 55 315 109 397 111 l27 1 0 -915z m-950 782 c0 -1 -30 -32 -67 -67 l-68 -65 65 68 c60 62 70 72 70 64z m2170 -62 c35 -36 62 -65 59 -65 -2 0 -34 29 -69 65 -35 36 -62 65 -59 65 2 0 34 -29 69 -65z m-1990 -88 c0 -1 -37 -38 -82 -82 l-83 -80 80 83 c74 76 85 87 85 79z m1780 -32 c19 -19 32 -35 29 -35 -3 0 -20 16 -39 35 -19 19 -32 35 -29 35 3 0 20 -16 39 -35z m95 -95 c21 -22 37 -40 34 -40 -3 0 -23 18 -44 40 -21 22 -37 40 -34 40 3 0 23 -18 44 -40z m-2331 -699 c-4 -34 -9 -60 -11 -57 -3 3 -2 32 2 66 4 34 9 59 12 57 2 -3 1 -33 -3 -66z m2893 -18 c-3 -10 -5 -2 -5 17 0 19 2 27 5 18 2 -10 2 -26 0 -35z m10 -250 c-1 -43 -3 -10 -3 72 0 83 2 118 3 78 2 -40 2 -107 0 -150z m-230 5 c-2 -35 -3 -7 -3 62 0 69 1 97 3 63 2 -35 2 -91 0 -125z m-2690 10 c-2 -29 -3 -6 -3 52 0 58 1 81 3 53 2 -29 2 -77 0 -105z m-230 -35 c-3 -10 -5 -2 -5 17 0 19 2 27 5 18 2 -10 2 -26 0 -35z m246 -118 c4 -39 3 -50 -2 -30 -9 31 -14 102 -7 94 2 -2 6 -31 9 -64z m2894 -7 c-2 -13 -4 -5 -4 17 -1 22 1 32 4 23 2 -10 2 -28 0 -40z m-1637 -213 l0 -125 -352 2 -353 3 348 2 347 3 0 120 c0 66 2 120 5 120 3 0 5 -56 5 -125z m657 -122 c-98 -2 -256 -2 -350 0 -95 1 -14 3 178 2 193 0 270 -1 172 -2z m-1692 -573 c38 -38 67 -70 64 -70 -2 0 -36 32 -74 70 -38 39 -67 70 -64 70 2 0 36 -31 74 -70z m1068 -227 c-18 -2 -48 -2 -65 0 -18 2 -4 4 32 4 36 0 50 -2 33 -4z m140 0 c-18 -2 -48 -2 -65 0 -18 2 -4 4 32 4 36 0 50 -2 33 -4z m5 -230 c-10 -2 -28 -2 -40 0 -13 2 -5 4 17 4 22 1 32 -1 23 -4z"></path>
      <path id="pwPLfg6lB" d="M3740 3845 c0 -31 3 -35 26 -35 20 0 24 3 16 13 -6 6 -10 17 -10 22 0 6 4 16 10 23 8 9 4 12 -16 12 -23 0 -26 -4 -26 -35z"></path>
      <path id="pHuc1jBwF" d="M4150 3245 c0 -29 4 -35 20 -35 12 0 20 6 19 13 -3 26 2 37 16 37 8 0 15 5 15 10 0 6 -16 10 -35 10 -33 0 -35 -2 -35 -35z"></path>
    </g>
  </g>
  <g id="l3E1kAlkBPatBQz3t6Gwelh" fill="rgb(13,103,155)" style="transform: none;">
    <g style="transform: none;">
      <path id="p1EB8pJiPy" d="M2305 5099 c-225 -25 -520 -99 -705 -176 -104 -44 -295 -138 -331 -164 -15 -10 -29 -19 -32 -19 -7 0 -146 -93 -202 -135 -178 -132 -415 -371 -544 -550 -143 -198 -293 -487 -352 -680 -10 -33 -27 -89 -39 -125 -31 -99 -79 -377 -92 -536 -26 -328 48 -777 183 -1109 105 -254 275 -535 429 -704 101 -112 268 -276 330 -323 373 -290 738 -455 1170 -530 526 -91 1072 -14 1550 221 139 69 250 135 400 241 107 76 367 323 445 423 164 210 227 307 322 497 195 388 298 899 263 1301 -23 262 -101 592 -190 801 -40 94 -125 262 -156 307 -13 20 -24 39 -24 42 0 4 -24 42 -52 86 -188 281 -450 541 -733 728 -105 69 -291 165 -440 228 -182 77 -485 151 -720 177 -104 11 -378 11 -480 -1z m245 -144 l45 0 3 53 c2 28 7 52 12 52 5 0 10 -24 12 -52 l3 -53 46 -3 46 -3 7 51 c5 40 10 50 26 50 39 0 45 -9 42 -60 l-4 -50 50 0 50 0 7 46 c6 42 8 45 33 42 25 -3 27 -7 32 -58 l5 -55 45 0 c43 0 44 1 52 39 10 49 10 48 41 41 23 -6 25 -11 23 -58 l-1 -52 47 -3 47 -3 11 40 c11 43 13 44 44 32 17 -6 19 -16 17 -65 l-3 -57 48 3 c45 3 49 5 58 36 8 29 12 33 35 27 34 -9 35 -10 21 -35 -6 -11 -10 -35 -8 -53 3 -30 5 -32 50 -35 45 -3 47 -2 59 31 11 33 14 34 40 25 25 -8 27 -13 18 -29 -5 -11 -9 -37 -7 -57 3 -36 4 -37 45 -40 38 -3 43 0 58 27 14 27 18 29 40 19 22 -10 23 -13 10 -32 -20 -28 -19 -82 1 -90 9 -3 31 -6 50 -6 27 0 37 5 46 25 12 27 27 32 46 13 8 -8 8 -17 1 -30 -6 -10 -9 -36 -7 -56 3 -35 5 -37 43 -40 33 -3 43 1 60 22 19 24 23 25 40 12 16 -12 18 -17 8 -27 -7 -7 -13 -35 -13 -61 l0 -48 44 0 c34 0 47 5 59 23 14 20 16 21 32 6 14 -14 15 -21 5 -38 -6 -12 -10 -39 -8 -59 3 -34 6 -37 37 -40 23 -2 40 3 55 17 20 19 24 20 44 5 l23 -16 -26 -20 c-27 -21 -35 -74 -13 -96 18 -18 79 -15 100 5 17 15 20 16 35 0 16 -15 15 -18 -6 -36 -17 -15 -22 -28 -19 -58 3 -35 5 -38 37 -41 19 -2 45 2 58 9 20 11 26 10 41 -5 16 -16 16 -18 -10 -37 -28 -21 -36 -56 -22 -93 8 -21 67 -21 99 0 22 14 24 14 35 -7 11 -19 9 -24 -15 -43 -22 -18 -26 -28 -23 -61 3 -37 6 -40 35 -43 18 -2 42 2 54 9 19 10 25 9 36 -7 19 -25 17 -30 -18 -44 -27 -12 -30 -16 -27 -54 l3 -41 60 1 c33 0 63 -5 67 -10 14 -21 8 -34 -22 -46 -29 -12 -31 -16 -28 -59 3 -44 5 -46 35 -49 18 -2 42 2 53 8 25 14 26 13 35 -21 6 -24 3 -28 -29 -39 -34 -11 -36 -14 -36 -57 l0 -45 60 4 c33 2 60 2 60 -1 0 -3 3 -16 6 -27 5 -18 0 -24 -30 -34 -34 -11 -36 -14 -36 -57 l0 -44 50 2 c56 3 55 4 64 -33 6 -25 3 -27 -36 -35 -46 -9 -56 -28 -43 -80 6 -25 9 -25 61 -20 48 5 54 3 54 -13 0 -10 3 -25 6 -33 4 -11 -6 -16 -40 -21 l-46 -7 0 -45 0 -44 49 0 c42 0 49 -3 55 -22 11 -42 7 -47 -41 -50 l-48 -3 0 -45 0 -45 53 -3 52 -3 0 -35 c0 -32 -2 -34 -34 -34 -57 0 -66 -8 -66 -56 l0 -44 50 0 50 0 0 -39 0 -40 -52 -3 -53 -3 0 -40 0 -40 48 -3 c42 -3 47 -6 47 -27 0 -46 -8 -52 -61 -47 l-50 5 3 -49 c3 -48 4 -49 38 -52 44 -4 53 -13 44 -46 -6 -24 -10 -26 -60 -26 l-54 0 0 -44 c0 -45 10 -56 50 -56 24 0 33 -15 26 -44 -5 -21 -10 -22 -61 -18 l-56 5 3 -49 c3 -46 5 -49 38 -58 45 -12 42 -9 31 -39 -10 -24 -13 -25 -65 -20 l-56 6 0 -52 c0 -28 4 -51 9 -51 5 0 21 -4 35 -10 21 -8 24 -13 17 -32 -7 -21 -14 -23 -61 -19 -59 3 -70 -5 -70 -55 0 -26 5 -34 33 -45 17 -7 33 -13 35 -14 1 -2 -3 -14 -9 -28 -10 -22 -15 -24 -31 -16 -10 6 -36 9 -56 7 -36 -3 -37 -4 -40 -45 -3 -38 0 -43 27 -58 34 -17 36 -22 17 -47 -11 -16 -15 -16 -34 -2 -12 8 -37 14 -55 12 -31 -3 -32 -5 -35 -50 -3 -43 0 -49 22 -60 30 -13 31 -17 12 -43 -11 -16 -16 -17 -29 -7 -9 8 -34 12 -59 10 -43 -3 -43 -3 -46 -44 -3 -34 1 -42 23 -54 28 -15 32 -32 10 -50 -13 -10 -19 -10 -34 4 -13 12 -32 16 -58 14 -36 -3 -38 -5 -41 -42 -3 -29 2 -44 19 -62 21 -23 22 -26 6 -41 -15 -16 -18 -15 -36 1 -13 12 -31 16 -58 14 -36 -3 -38 -5 -41 -42 -2 -28 2 -44 17 -60 l20 -22 -20 -12 c-18 -11 -24 -11 -38 2 -10 9 -35 16 -59 16 l-42 0 0 -42 c0 -25 7 -49 17 -60 16 -17 16 -20 0 -35 -15 -16 -18 -15 -41 6 -18 17 -33 22 -62 19 -37 -3 -39 -5 -42 -41 -2 -25 2 -45 12 -56 15 -16 14 -19 -4 -36 -20 -18 -21 -18 -35 1 -8 10 -15 23 -15 27 0 4 -21 7 -47 5 -46 -3 -48 -4 -51 -36 -2 -18 4 -44 12 -57 12 -18 12 -25 3 -33 -30 -23 -37 -22 -52 8 -15 28 -20 31 -58 28 l-42 -3 1 -40 c1 -22 4 -49 8 -61 6 -15 2 -23 -17 -31 -22 -10 -26 -8 -40 23 -13 27 -22 34 -46 34 -16 0 -36 -3 -45 -6 -19 -7 -21 -55 -5 -86 9 -18 8 -24 -7 -35 -28 -20 -39 -16 -53 22 -10 29 -17 35 -41 35 -48 0 -60 -9 -60 -47 0 -19 4 -43 10 -53 8 -15 5 -20 -21 -29 -27 -9 -31 -8 -39 15 -6 14 -10 30 -10 35 0 5 -23 9 -51 9 l-52 0 6 -53 c5 -51 4 -54 -23 -64 -27 -10 -28 -9 -36 31 -9 41 -9 41 -54 41 l-45 0 0 -57 c0 -54 -1 -58 -22 -58 -13 0 -26 0 -30 -1 -5 0 -12 18 -16 40 -8 41 -9 41 -53 41 l-44 0 0 -54 c0 -47 -3 -54 -22 -60 -39 -10 -48 -7 -48 17 0 56 -10 67 -56 67 l-44 0 0 -55 0 -55 -35 0 c-34 0 -34 1 -41 51 l-7 50 -41 -3 -41 -3 0 -53 0 -52 -37 0 -38 0 0 50 0 50 -50 0 -50 0 0 -50 c0 -43 -3 -50 -19 -50 -42 0 -51 11 -51 61 0 43 -3 49 -24 55 -13 3 -35 4 -47 2 -21 -3 -24 -9 -27 -51 -3 -48 -4 -48 -35 -45 -31 3 -32 5 -37 58 l-5 55 -41 3 c-44 3 -54 -8 -54 -65 0 -17 -6 -23 -22 -23 -37 0 -47 13 -50 65 l-3 50 -40 0 c-38 0 -40 -2 -48 -40 -6 -22 -11 -41 -12 -43 -1 -1 -15 3 -32 8 -29 11 -29 12 -25 65 l4 55 -45 0 c-42 0 -46 -2 -52 -30 -8 -36 -19 -44 -48 -36 -20 5 -23 12 -22 63 l0 58 -40 3 c-38 3 -41 1 -53 -33 -14 -37 -22 -41 -53 -25 -16 9 -17 15 -9 31 6 11 10 34 8 52 -3 30 -6 32 -45 35 -38 3 -43 0 -58 -27 -17 -35 -23 -37 -49 -18 -16 11 -17 17 -7 36 7 12 11 36 9 54 -3 30 -6 32 -45 35 -37 3 -43 0 -59 -27 -15 -26 -20 -28 -41 -18 -17 7 -22 15 -16 26 4 9 7 36 7 61 1 44 0 45 -34 48 -28 3 -39 -2 -56 -23 -16 -20 -27 -25 -43 -20 -25 8 -27 27 -5 45 10 9 14 26 12 49 -3 35 -4 36 -47 39 -35 3 -46 -1 -58 -17 -17 -25 -22 -25 -47 -6 -18 14 -19 16 -2 34 12 13 16 32 14 58 -3 36 -5 38 -41 41 -30 3 -42 -2 -56 -20 -19 -23 -19 -23 -40 -4 l-21 19 21 23 c14 15 19 32 17 55 -3 31 -6 34 -41 37 -26 2 -45 -2 -58 -14 -18 -16 -20 -16 -39 1 l-20 18 21 23 c15 16 20 32 17 60 -3 37 -5 39 -39 42 -23 2 -40 -2 -49 -12 -16 -20 -34 -20 -50 -1 -11 13 -9 20 9 39 17 18 22 33 19 62 -3 36 -6 39 -35 42 -18 2 -43 -4 -55 -12 -16 -11 -25 -13 -35 -4 -20 16 -16 34 12 52 25 16 33 54 19 90 -8 20 -56 21 -93 1 -27 -13 -29 -13 -39 10 -10 22 -8 26 19 40 27 15 30 20 27 58 -3 41 -4 42 -40 45 -20 2 -46 -2 -57 -8 -16 -8 -22 -7 -31 9 -14 27 -14 29 21 46 27 15 30 20 27 58 -3 41 -4 42 -40 45 -20 2 -46 -1 -56 -7 -16 -8 -21 -6 -31 15 -15 33 -16 31 24 44 34 11 35 13 35 61 l0 49 -36 0 c-19 0 -44 -5 -54 -10 -15 -8 -21 -6 -30 9 -16 31 -12 39 25 51 33 11 35 14 35 57 l0 45 -55 -4 c-47 -3 -55 0 -59 17 -10 37 -6 43 35 50 l40 7 -3 46 -3 47 -50 -1 c-52 -1 -65 7 -65 42 0 17 8 23 40 28 40 6 40 7 40 51 l0 44 -52 3 c-52 3 -53 4 -56 36 -3 28 0 32 20 32 57 0 68 10 68 56 l0 44 -55 0 -55 0 0 35 0 35 50 0 50 0 0 50 0 50 -50 0 -50 0 0 35 0 35 50 0 50 0 0 50 0 50 -50 0 c-52 0 -55 4 -44 48 6 19 13 22 60 22 l54 0 0 44 c0 47 -11 56 -74 56 -24 0 -28 3 -22 23 3 12 6 28 6 35 0 8 18 12 55 12 l55 0 0 44 0 45 -46 7 c-34 5 -44 10 -40 21 3 8 6 23 6 33 0 16 6 18 54 13 52 -5 55 -5 61 20 13 50 3 70 -41 82 -39 10 -40 11 -32 38 9 25 14 27 64 27 l54 0 0 43 c0 40 -2 44 -35 56 -19 7 -35 18 -35 24 1 27 17 35 70 34 l55 -2 3 45 c3 44 2 46 -32 58 -32 12 -34 15 -25 36 10 20 16 22 70 18 l59 -4 0 45 c0 40 -3 46 -30 57 -34 14 -36 19 -17 44 11 16 17 17 36 7 12 -7 36 -11 54 -9 30 3 32 5 35 49 3 40 0 47 -23 59 -28 15 -32 32 -12 48 8 7 18 7 27 2 8 -6 34 -10 58 -10 l42 0 0 44 c0 36 -5 47 -26 61 -25 16 -25 17 -8 36 16 18 19 18 41 3 13 -8 38 -14 56 -12 29 3 32 6 35 42 3 29 -2 44 -19 62 -21 23 -22 26 -6 41 15 16 18 15 36 -1 13 -12 31 -16 58 -14 37 3 38 4 41 46 3 34 -1 46 -18 60 -21 17 -21 18 -2 35 18 16 20 16 37 -3 20 -22 74 -27 93 -8 17 17 15 73 -3 88 -18 15 -19 32 -3 48 9 9 18 6 39 -14 20 -19 35 -25 60 -22 32 3 34 5 37 45 2 23 -2 52 -8 64 -10 17 -9 24 4 37 14 14 17 13 36 -11 21 -27 58 -35 94 -21 22 8 21 72 -1 96 -15 17 -15 19 3 33 26 19 29 19 44 -10 12 -23 19 -26 59 -23 44 3 46 4 49 36 2 18 -3 44 -11 56 -14 20 -13 24 4 34 28 18 35 15 49 -19 12 -27 16 -30 54 -27 l41 3 -1 60 c0 33 5 63 10 67 21 14 34 8 46 -22 11 -27 17 -30 57 -30 l45 0 -4 60 c-3 44 -1 61 10 65 28 11 39 4 48 -27 9 -31 13 -33 54 -33 l45 0 0 56 c0 52 2 58 25 66 23 8 26 6 35 -27 10 -33 13 -35 59 -38 l49 -3 -5 55 c-4 51 -3 55 19 61 30 7 43 -1 43 -25 0 -41 11 -50 62 -50 l51 0 -6 54 c-5 52 -4 55 20 61 31 8 35 4 42 -42 6 -37 7 -38 54 -41 l47 -3 0 55 0 56 35 0 c35 0 35 0 35 -45 l0 -45 50 0 50 0 0 49 c0 49 1 50 33 53 32 3 32 3 37 -47 l5 -50 45 0z"></path>
      <path id="p19s3laAfL" d="M2550 4923 c-14 -2 -57 -20 -97 -39 -75 -36 -140 -101 -170 -174 -24 -56 -35 -224 -19 -300 11 -56 11 -99 0 -87 -2 2 -19 84 -39 183 -19 98 -37 190 -40 203 -6 23 -9 24 -73 18 -83 -7 -301 -73 -435 -132 -55 -25 -103 -48 -106 -52 -3 -5 -19 -13 -36 -18 -56 -19 -48 -54 57 -250 92 -173 93 -174 132 -181 l38 -6 -43 -26 c-24 -14 -62 -39 -84 -55 l-40 -29 -3 29 c-4 38 -22 73 -39 73 -7 0 -13 7 -13 16 0 18 -79 134 -91 134 -5 0 -9 6 -9 13 0 7 -9 23 -20 35 -11 12 -20 24 -20 27 0 3 -10 19 -22 35 -29 40 -92 42 -132 5 -15 -14 -31 -25 -36 -25 -5 0 -15 -8 -22 -17 -7 -10 -22 -23 -33 -29 -11 -6 -24 -20 -30 -32 -5 -12 -17 -22 -25 -22 -20 0 -180 -161 -180 -180 0 -9 -10 -20 -22 -25 -13 -6 -24 -20 -26 -32 -2 -13 -10 -23 -17 -23 -17 0 -55 -52 -55 -74 0 -9 -6 -16 -14 -16 -14 0 -66 -71 -66 -90 0 -5 -4 -10 -9 -10 -5 0 -21 -26 -37 -57 -16 -32 -32 -60 -36 -63 -15 -11 -118 -237 -130 -285 -7 -27 -15 -52 -19 -55 -13 -11 -50 -143 -80 -290 -38 -187 -52 -410 -27 -410 21 0 28 30 28 117 0 99 15 201 55 362 75 304 209 578 404 826 104 132 300 321 417 403 l32 22 32 -43 c102 -136 200 -277 200 -288 0 -3 -37 -35 -82 -71 -351 -278 -581 -692 -643 -1155 -6 -49 -5 -53 14 -53 16 0 21 6 21 28 1 41 70 354 80 362 3 3 17 32 30 65 23 60 129 276 140 285 13 11 70 99 70 108 0 6 7 12 15 16 9 3 -2 -20 -23 -52 -102 -150 -174 -315 -229 -522 -34 -130 -35 -144 -40 -351 -6 -256 5 -370 52 -542 35 -129 106 -300 155 -378 17 -25 30 -49 30 -52 0 -22 160 -218 254 -312 587 -587 1587 -636 2242 -111 45 36 123 109 173 162 50 53 91 92 91 86 0 -5 -7 -12 -15 -16 -8 -3 -15 -17 -15 -31 0 -17 -5 -25 -17 -25 -10 0 -45 -28 -78 -61 -33 -34 -79 -77 -102 -96 -24 -20 -43 -42 -43 -49 0 -8 -9 -14 -20 -14 -11 0 -23 -7 -26 -15 -4 -8 -12 -15 -20 -15 -8 0 -14 -4 -14 -10 0 -5 -7 -10 -15 -10 -9 0 -18 -7 -21 -15 -4 -8 -11 -15 -16 -15 -6 0 -36 -16 -68 -35 -88 -54 -216 -114 -320 -152 -90 -33 -299 -83 -347 -83 -16 0 -23 -6 -23 -20 0 -11 2 -20 5 -20 48 0 246 40 330 67 568 181 999 618 1163 1183 34 114 62 261 62 320 0 70 12 130 26 130 8 0 14 7 14 15 0 10 -11 15 -35 15 -35 0 -35 -1 -35 -43 0 -106 -52 -418 -67 -403 -3 3 2 36 10 73 29 122 37 209 39 410 1 109 3 177 5 151 l4 -48 65 0 c58 0 64 2 64 21 0 19 -4 21 -43 15 l-43 -7 -13 93 c-14 95 -56 260 -92 357 -11 30 -16 57 -12 61 8 7 164 73 302 128 52 20 65 22 72 11 27 -41 101 -303 124 -433 14 -81 25 -153 25 -161 0 -9 -22 -15 -72 -20 -104 -9 -128 -15 -128 -31 0 -16 49 -18 163 -7 l67 6 0 51 c0 137 -56 398 -121 567 -30 77 -31 79 -64 79 -19 0 -80 -20 -137 -43 -57 -24 -141 -59 -187 -78 -53 -21 -85 -41 -89 -52 -3 -13 -15 4 -38 55 l-33 73 33 6 c29 5 122 52 136 68 3 4 29 17 57 30 29 13 61 31 70 40 10 9 39 26 66 38 42 20 47 26 47 55 0 34 -92 198 -111 198 -5 0 -9 6 -9 14 0 7 -11 25 -25 40 -14 15 -25 31 -25 36 0 6 -9 15 -20 22 -11 7 -20 18 -20 25 0 7 -9 18 -20 25 -11 7 -20 18 -20 24 0 14 -53 64 -68 64 -7 0 -12 6 -12 13 0 6 -13 24 -29 40 -33 31 -91 38 -91 11 0 -8 4 -13 10 -9 11 7 108 -90 193 -193 59 -73 207 -289 207 -303 0 -8 -333 -199 -347 -199 -6 0 -34 37 -63 83 -64 100 -113 161 -199 250 -59 60 -64 69 -53 87 11 18 10 20 -18 20 -23 0 -30 -4 -30 -20 0 -16 -11 -11 -65 33 l-66 52 33 11 c17 5 34 17 36 25 3 8 11 18 18 22 8 4 14 12 14 17 0 5 11 21 25 36 14 15 25 35 25 44 0 10 8 20 18 22 9 3 24 18 32 34 8 16 23 35 33 42 9 7 17 20 17 28 0 8 5 14 10 14 6 0 10 7 10 15 0 8 5 15 11 15 6 0 9 16 7 38 -2 27 -9 40 -25 47 -13 5 -23 13 -23 17 0 5 -4 8 -9 8 -6 0 -21 10 -35 23 -13 12 -41 31 -63 42 -21 11 -40 22 -43 25 -30 35 -359 180 -405 180 -33 0 -35 -2 -41 -40 -4 -22 -10 -40 -14 -40 -4 0 -16 -26 -27 -57 -11 -32 -35 -100 -53 -151 -18 -51 -37 -89 -41 -85 -5 5 3 42 18 83 29 83 45 250 24 250 -6 0 -11 8 -11 18 0 43 -35 116 -80 165 -32 35 -73 65 -126 92 l-79 40 -140 1 c-77 1 -151 0 -165 -3z m353 -214 l139 -23 -6 -25 c-3 -15 -19 -91 -36 -171 -37 -179 -45 -206 -57 -203 -71 14 -288 33 -386 33 l-125 0 -5 33 c-4 17 -11 97 -17 177 -6 80 -12 157 -15 172 -4 23 0 27 23 32 68 12 353 -3 485 -25z m-734 -131 c12 -62 30 -150 40 -196 14 -60 16 -84 8 -87 -7 -2 -68 -20 -137 -40 -69 -20 -170 -56 -225 -81 -55 -25 -107 -48 -115 -50 -11 -3 -41 46 -109 173 -109 205 -114 177 45 249 147 66 379 140 445 143 25 1 27 -2 48 -111z m1243 -17 c62 -28 144 -67 182 -87 80 -43 241 -148 251 -163 4 -8 -158 -240 -232 -330 -1 -2 -33 16 -70 41 -103 69 -186 115 -292 160 -53 22 -98 42 -100 44 -3 3 23 77 107 312 15 39 30 72 34 72 4 0 58 -22 120 -49z m-554 -426 c236 -52 481 -158 647 -282 350 -261 581 -657 636 -1088 14 -117 6 -364 -15 -472 -67 -330 -208 -596 -440 -829 -195 -195 -400 -318 -662 -397 -178 -54 -228 -61 -449 -61 -223 0 -288 8 -457 60 -489 150 -869 512 -1038 989 -113 321 -117 697 -11 1015 152 453 482 803 922 979 94 38 289 89 384 101 103 13 396 4 483 -15z m-1478 -339 c0 -2 -7 -9 -15 -16 -12 -10 -15 -10 -15 4 0 9 7 16 15 16 8 0 15 -2 15 -4z m2420 -12 c0 -14 -3 -14 -15 -4 -8 7 -15 14 -15 16 0 2 7 4 15 4 8 0 15 -7 15 -16z m447 -951 c-3 -10 -5 -2 -5 17 0 19 2 27 5 18 2 -10 2 -26 0 -35z m-69 -796 c-11 -38 -22 -66 -24 -64 -2 2 5 34 17 71 11 38 22 66 24 64 2 -2 -5 -34 -17 -71z m-231 -451 c-6 -13 -20 -29 -30 -36 -14 -8 -12 -1 8 24 32 42 37 45 22 12z"></path>
      <path id="pNNTFtypZ" d="M2385 3909 c-185 -18 -447 -126 -616 -253 -343 -259 -539 -650 -539 -1076 0 -588 366 -1093 925 -1278 139 -46 251 -63 416 -63 195 0 353 30 524 101 292 122 559 379 692 666 45 99 100 278 114 376 16 108 6 403 -16 483 -86 315 -212 529 -427 721 -139 124 -315 222 -505 279 -106 33 -285 61 -305 48 -5 -2 -8 -425 -8 -938 l0 -935 348 -2 347 -3 3 -72 3 -73 -761 0 -761 0 3 -27 c2 -20 12 -30 43 -42 35 -14 121 -16 720 -16 631 0 683 1 718 18 21 10 40 24 44 32 3 8 11 15 18 15 19 0 25 24 25 93 0 93 -6 105 -63 132 -67 33 -83 35 -294 43 -198 8 -209 11 -257 76 -20 26 -21 42 -24 359 -1 183 1 505 6 717 8 420 10 432 67 459 26 13 38 12 95 -2 83 -22 229 -92 335 -161 312 -204 516 -560 551 -966 7 -85 -14 -250 -47 -370 -83 -302 -346 -622 -631 -766 -101 -51 -202 -89 -308 -115 -126 -31 -353 -33 -475 -6 -100 23 -225 67 -307 108 -134 68 -307 205 -401 319 -20 25 -42 51 -49 59 -139 164 -248 486 -248 736 0 84 28 253 54 327 8 24 22 62 31 86 78 216 253 439 457 579 131 91 340 183 413 183 32 0 70 -37 85 -80 13 -40 28 -1323 16 -1403 -9 -56 -51 -111 -99 -126 -18 -6 -117 -15 -222 -20 -168 -7 -195 -11 -237 -32 -44 -21 -48 -26 -47 -58 1 -20 3 -28 6 -18 4 16 29 17 348 17 l344 0 3 128 c2 70 3 406 2 747 -2 981 -2 1005 -16 1004 -7 -1 -49 -5 -93 -10z"></path>
      <path id="pl2dYxaus" d="M3852 4007 c-33 -33 -42 -50 -42 -77 l0 -34 51 49 c28 28 60 62 70 78 l20 27 -28 0 c-21 0 -41 -12 -71 -43z"></path>
      <path id="p17Id1FcXX" d="M4428 2753 c-36 -9 -20 -33 22 -33 33 0 40 3 40 20 0 20 -20 24 -62 13z"></path>
      <path id="p1F7h2kZhJ" d="M816 2688 c-3 -13 -6 -38 -6 -55 0 -26 4 -33 20 -33 18 0 20 7 20 55 0 40 -4 55 -14 55 -7 0 -16 -10 -20 -22z"></path>
      <path id="pBXcNhWCB" d="M4380 2556 c0 -20 32 -26 143 -26 90 0 97 1 97 20 0 19 -7 20 -120 20 -96 0 -120 -3 -120 -14z"></path>
      <path id="pFCRRzZsk" d="M370 2463 c0 -99 19 -243 50 -378 33 -141 39 -165 72 -252 l31 -83 37 0 c43 0 100 18 100 31 0 5 11 9 25 9 14 0 25 5 25 10 0 6 8 10 18 10 28 0 112 31 112 41 0 5 11 9 24 9 14 0 31 7 40 15 8 8 24 15 35 15 14 0 23 8 27 25 7 28 -2 92 -15 97 -10 4 -78 287 -87 361 -6 48 -10 57 -27 57 -17 0 -19 -5 -13 -47 19 -136 51 -275 81 -358 l33 -93 -61 -25 c-199 -82 -313 -125 -319 -119 -16 15 -61 154 -93 283 -40 161 -55 263 -55 362 0 85 -7 117 -26 117 -11 0 -14 -20 -14 -87z"></path>
      <path id="p10qAggMqz" d="M814 2508 c3 -24 5 -46 5 -50 1 -5 8 -8 16 -8 11 0 15 12 15 50 0 44 -3 50 -20 50 -19 0 -20 -5 -16 -42z"></path>
      <path id="pATQSjqba" d="M4716 2438 c-12 -45 -7 -68 14 -68 17 0 20 7 20 45 0 49 -23 64 -34 23z"></path>
      <path id="pi0XRRGdS" d="M4706 2328 c-32 -194 -54 -293 -88 -403 -45 -143 -140 -352 -214 -473 -339 -549 -905 -922 -1534 -1012 -137 -19 -140 -20 -140 -37 0 -14 10 -15 68 -10 77 8 315 51 373 69 22 6 39 15 39 20 0 4 10 8 22 8 33 0 178 50 178 61 0 5 8 9 19 9 20 0 133 47 141 59 3 4 20 13 38 20 17 8 32 17 32 22 0 5 8 9 18 9 10 0 28 9 40 20 12 11 26 20 32 20 5 0 10 4 10 9 0 5 10 11 23 15 12 3 32 14 44 26 12 11 27 20 32 20 6 0 16 9 23 20 7 11 18 20 25 20 7 0 13 3 13 8 0 4 10 12 23 17 12 6 26 20 32 32 5 12 19 23 30 25 15 2 21 12 23 36 3 29 6 32 35 32 26 0 43 11 85 53 28 30 52 61 52 70 0 10 6 17 13 17 14 0 57 41 57 54 0 5 11 17 25 28 14 11 25 23 25 28 0 5 11 21 25 36 14 15 25 33 25 40 0 8 5 14 10 14 6 0 10 9 10 20 0 11 7 20 15 20 8 0 17 11 21 25 3 14 9 25 14 25 4 0 15 17 26 38 10 20 22 39 26 42 19 15 118 239 118 268 0 20 5 32 14 32 8 0 28 49 55 138 45 151 66 247 76 365 6 66 5 77 -8 77 -10 0 -18 -12 -21 -32z"></path>
      <path id="pNBLecqlv" d="M853 1711 c-68 -36 -123 -72 -123 -78 0 -7 -9 -13 -20 -13 -41 0 -80 -29 -80 -58 0 -42 11 -72 26 -72 8 0 14 -10 14 -22 0 -25 46 -108 60 -108 6 0 10 -7 10 -15 0 -8 9 -24 20 -35 11 -11 20 -25 20 -30 0 -6 7 -13 15 -16 8 -4 15 -12 15 -20 0 -7 6 -17 13 -21 8 -4 16 -16 20 -25 3 -10 16 -18 27 -18 14 0 20 -7 20 -23 0 -31 18 -47 53 -47 l30 0 -27 33 c-155 190 -291 396 -273 414 7 6 87 52 179 101 l167 89 70 -107 c136 -209 303 -381 496 -512 193 -131 468 -241 678 -272 133 -20 127 -20 127 4 0 15 -7 20 -25 20 -49 0 -266 51 -358 84 -93 34 -282 122 -303 141 -6 6 -28 19 -50 30 -21 11 -43 26 -47 33 -4 6 -12 12 -17 12 -5 0 -24 14 -42 30 -18 17 -42 30 -55 30 -15 0 -23 7 -25 23 -2 18 -10 23 -40 25 -34 3 -38 6 -38 31 0 28 -45 81 -68 81 -7 0 -12 7 -12 15 0 8 -7 15 -15 15 -8 0 -15 8 -15 18 0 10 -5 23 -12 30 -7 7 -20 12 -30 12 -11 0 -18 7 -18 20 0 27 -29 70 -46 70 -8 0 -14 9 -14 20 0 11 -4 20 -9 20 -5 0 -11 10 -15 23 -3 12 -13 31 -23 42 -10 11 -26 37 -35 58 -17 35 -20 37 -60 36 -33 -1 -73 -17 -165 -68z"></path>
      <path id="p1467c94CU" d="M1090 963 c0 -35 16 -53 46 -53 16 0 24 -7 26 -22 2 -15 11 -24 24 -26 12 -2 24 -12 27 -23 3 -10 12 -19 21 -19 9 0 16 -4 16 -10 0 -5 8 -10 19 -10 10 0 21 -8 23 -18 3 -9 24 -26 46 -37 23 -11 42 -23 42 -27 0 -5 7 -8 15 -8 8 0 15 -4 15 -8 0 -5 19 -17 43 -28 23 -10 48 -24 55 -31 7 -7 22 -13 33 -13 10 0 19 -4 19 -8 0 -13 68 -42 100 -42 19 0 30 -5 30 -14 0 -13 70 -42 230 -95 75 -24 303 -68 402 -78 58 -5 68 -4 68 10 0 10 -12 18 -32 21 -18 3 -67 10 -108 17 -392 60 -764 224 -1056 467 -114 94 -104 89 -104 55z"></path>
      <path id="p1AC67Rx5C" d="M2400 856 c0 -14 29 -26 68 -26 15 0 22 6 22 20 0 17 -7 20 -45 20 -32 0 -45 -4 -45 -14z"></path>
      <path id="p9Fg5ase3" d="M2640 850 c0 -21 16 -25 58 -14 39 11 27 34 -18 34 -33 0 -40 -3 -40 -20z"></path>
      <path id="pAyluTVn8" d="M2420 400 c0 -19 7 -20 145 -20 138 0 145 1 145 20 0 19 -7 20 -145 20 -138 0 -145 -1 -145 -20z"></path>
    </g>
  </g>
  <g id="l3mJrYZhLOCZJA7n2BDQFlS" fill="rgb(14,74,134)" style="transform: none;">
    <g style="transform: none;">
      <path id="p8HGX2jfM" d="M2427 5083 l-39 -4 7 -50 c6 -45 5 -49 -14 -49 -18 0 -21 6 -21 44 0 25 -4 47 -8 50 -4 2 -36 2 -70 -1 l-63 -6 7 -54 c6 -50 5 -55 -12 -51 -13 2 -21 16 -26 47 -4 24 -9 45 -11 47 -2 2 -32 -1 -66 -7 l-63 -12 6 -37 c3 -21 9 -45 12 -54 4 -11 0 -16 -14 -16 -20 0 -32 18 -32 48 -1 41 -14 46 -80 32 -68 -14 -66 -9 -44 -95 6 -23 4 -26 -12 -23 -11 2 -22 17 -29 40 -5 20 -13 40 -17 43 -7 7 -104 -22 -121 -36 -4 -3 0 -25 9 -48 12 -32 14 -45 5 -54 -14 -14 -25 -2 -41 46 -13 43 -20 44 -89 16 -55 -23 -58 -30 -36 -69 8 -14 14 -33 15 -42 0 -32 -27 -19 -45 22 -10 22 -24 40 -32 40 -17 0 -113 -48 -113 -56 0 -4 9 -22 21 -41 19 -31 20 -63 2 -63 -5 0 -19 20 -32 45 l-24 45 -58 -32 c-33 -18 -59 -36 -59 -41 0 -4 11 -24 25 -44 13 -20 22 -40 19 -45 -11 -18 -31 -6 -53 32 -20 36 -24 39 -44 28 -38 -19 -87 -60 -87 -71 0 -5 12 -26 26 -45 22 -28 24 -36 13 -43 -14 -9 -45 18 -67 57 -8 15 -17 12 -65 -26 l-56 -44 30 -33 c16 -19 29 -40 29 -48 0 -29 -20 -24 -52 16 l-34 41 -49 -45 -49 -44 32 -40 c24 -30 28 -43 20 -51 -9 -9 -21 -3 -49 24 l-36 36 -47 -49 -46 -48 35 -33 c19 -18 35 -36 35 -42 0 -24 -25 -19 -55 10 -18 18 -38 31 -43 29 -6 -2 -26 -24 -46 -49 l-35 -45 35 -37 c49 -49 36 -67 -21 -28 l-43 29 -36 -46 c-20 -25 -36 -52 -36 -59 0 -7 16 -22 35 -34 34 -21 47 -50 22 -50 -7 0 -29 11 -49 25 l-37 25 -19 -28 c-11 -15 -27 -41 -36 -59 l-16 -32 40 -22 c38 -22 48 -37 33 -52 -3 -4 -26 5 -50 19 -25 14 -46 24 -48 22 -7 -8 -55 -108 -55 -116 0 -5 18 -17 40 -27 41 -18 54 -45 23 -45 -10 1 -29 7 -43 15 -39 22 -46 19 -69 -34 -29 -68 -27 -76 19 -91 37 -12 49 -28 34 -43 -4 -3 -22 0 -41 8 -20 8 -41 15 -49 15 -13 0 -58 -106 -50 -119 3 -4 23 -13 45 -21 51 -17 57 -46 9 -36 -72 13 -69 14 -89 -44 -11 -30 -17 -60 -15 -66 3 -7 23 -15 45 -19 44 -7 54 -15 42 -33 -5 -8 -17 -9 -45 -1 -20 6 -42 9 -49 6 -11 -3 -39 -116 -31 -128 2 -4 24 -10 49 -13 30 -5 45 -12 45 -22 0 -13 -10 -14 -54 -9 l-55 7 -7 -61 c-8 -75 -8 -76 8 -78 70 -10 88 -15 88 -28 0 -8 7 -15 15 -15 10 0 15 11 15 35 0 30 -3 35 -22 35 -51 0 -69 11 -66 39 3 25 5 26 55 23 51 -4 53 -3 53 21 0 56 -12 87 -34 87 -33 0 -49 15 -41 39 5 18 14 21 61 21 l54 0 0 50 c0 48 -1 49 -35 56 -40 7 -46 13 -39 40 4 16 14 19 62 19 l57 0 3 46 c3 45 3 46 -37 59 -33 11 -38 16 -32 33 6 17 17 20 67 21 l59 1 3 43 c2 26 -1 42 -8 42 -6 0 -18 6 -26 14 -7 8 -18 16 -24 18 -6 2 -8 11 -5 20 5 13 16 15 62 11 63 -7 73 1 73 59 0 27 -5 38 -19 43 -27 8 -42 30 -35 49 5 12 10 13 25 5 11 -5 39 -9 62 -7 l42 3 3 47 c3 43 1 48 -22 54 -30 7 -40 28 -21 44 10 8 19 8 34 1 28 -15 70 -14 87 3 23 24 18 81 -10 100 -17 11 -23 21 -19 36 5 19 7 20 29 5 31 -20 100 -20 108 1 12 31 6 68 -14 89 -28 30 -18 57 16 41 13 -6 24 -14 24 -18 0 -5 16 -8 35 -8 24 0 37 6 45 19 16 31 12 70 -10 93 -19 20 -19 23 -3 40 17 19 17 19 25 -2 7 -18 15 -21 55 -18 l48 3 3 46 c2 32 -2 50 -13 59 -14 12 -14 15 1 31 22 25 32 24 36 -3 3 -26 25 -33 74 -23 33 6 34 8 34 51 0 36 -4 46 -21 52 -20 8 -20 8 -1 25 18 16 20 16 37 -3 13 -15 31 -20 67 -20 l48 0 0 49 c0 28 -5 53 -10 56 -8 5 -7 11 1 21 16 20 24 18 37 -11 10 -21 18 -25 55 -25 24 0 48 5 55 12 16 16 15 69 -3 92 -12 16 -12 22 -2 28 20 13 26 10 42 -22 13 -24 22 -30 49 -30 58 0 66 7 66 59 0 26 -5 52 -12 59 -9 9 -6 12 15 12 20 0 28 -6 33 -25 6 -23 11 -25 59 -25 39 0 54 4 59 16 10 26 7 69 -6 82 -9 9 -8 12 4 12 9 0 25 -11 36 -25 24 -30 108 -47 122 -25 6 9 20 10 56 3 47 -8 49 -10 46 -38 -4 -50 -23 -74 -63 -85 -21 -6 -45 -17 -53 -25 -8 -9 -52 -29 -98 -47 -46 -17 -89 -38 -97 -45 -7 -8 -26 -17 -42 -20 -27 -5 -29 -8 -29 -57 1 -54 17 -86 44 -86 11 0 16 -9 16 -30 0 -42 30 -100 52 -100 14 0 18 -8 18 -35 0 -19 5 -35 10 -35 16 0 11 -36 -7 -52 -46 -40 -103 -46 -103 -12 0 8 -4 14 -10 14 -5 0 -10 7 -10 15 0 8 -4 15 -10 15 -5 0 -10 7 -10 15 0 9 -7 18 -15 21 -8 4 -15 12 -15 19 0 6 -11 24 -25 39 -14 15 -25 31 -25 37 0 5 -6 9 -13 9 -7 0 -17 15 -22 33 -9 29 -14 32 -52 35 -26 2 -43 -1 -43 -7 0 -6 -7 -11 -15 -11 -19 0 -55 -31 -55 -47 0 -7 -9 -13 -20 -13 -11 0 -23 -7 -26 -15 -4 -8 -11 -15 -18 -15 -14 0 -56 -44 -56 -59 0 -6 -9 -11 -20 -11 -16 0 -20 -7 -20 -36 l0 -35 75 65 c91 79 178 146 192 146 8 0 243 -322 243 -333 0 -3 -21 -21 -47 -40 -81 -58 -176 -148 -262 -246 -252 -286 -397 -631 -431 -1030 -17 -190 21 -467 90 -671 16 -47 26 -87 22 -91 -14 -11 -357 -149 -372 -149 -7 0 -64 142 -76 193 -9 40 -34 35 -34 -8 0 -19 4 -35 9 -35 4 0 11 -19 14 -42 3 -24 11 -44 16 -46 6 -2 11 -12 11 -21 0 -10 5 -33 11 -51 11 -31 13 -32 58 -27 25 3 47 10 49 16 2 6 14 11 27 11 13 0 30 7 39 15 8 8 20 15 27 15 29 0 89 24 89 37 0 8 12 13 35 13 24 0 35 5 35 15 0 10 10 15 28 15 15 0 36 3 47 5 17 5 27 -8 63 -77 23 -46 42 -87 42 -92 0 -35 231 -343 249 -331 10 5 83 -69 76 -77 -19 -18 330 -268 355 -253 12 8 91 -32 110 -56 20 -25 120 -64 120 -46 0 7 5 4 11 -5 17 -31 245 -91 259 -68 5 8 11 7 23 -4 18 -19 77 -33 77 -19 0 12 393 3 401 -9 7 -12 69 -1 69 12 0 4 26 8 58 7 64 0 222 37 233 55 5 7 11 10 14 6 8 -8 127 36 170 62 17 10 41 21 54 25 14 4 63 30 110 58 415 244 694 621 821 1105 14 54 40 262 40 319 0 24 5 43 10 43 6 0 10 17 10 39 0 21 3 59 6 85 6 44 8 46 40 46 27 0 34 4 34 20 0 18 -5 20 -53 14 l-53 -6 -11 103 c-8 69 -27 152 -56 244 -24 77 -46 146 -48 153 -3 8 30 28 91 53 235 100 281 119 285 119 9 0 68 -170 99 -292 31 -118 56 -262 56 -325 0 -12 -8 -23 -17 -26 -10 -3 -1 -5 20 -6 43 -1 42 -6 27 119 -13 109 -51 280 -62 280 -4 0 -8 15 -8 32 0 40 -48 188 -61 188 -5 0 -9 11 -9 24 0 16 -7 26 -22 30 -39 10 -76 7 -92 -9 -8 -8 -24 -15 -35 -15 -12 0 -21 -6 -21 -15 0 -10 -10 -15 -29 -15 -35 0 -91 -19 -91 -31 0 -5 -11 -9 -24 -9 -14 0 -31 -7 -40 -15 -25 -26 -42 -17 -66 34 -21 45 -21 51 -7 65 9 9 20 16 26 16 6 0 11 7 11 15 0 8 9 15 20 15 24 0 110 41 110 52 0 4 6 8 14 8 8 0 16 3 18 8 2 4 27 18 56 31 51 24 52 25 52 68 0 32 -4 43 -15 43 -9 0 -15 9 -15 25 0 14 -4 25 -9 25 -5 0 -12 11 -15 25 -4 14 -11 25 -16 25 -6 0 -10 7 -10 15 0 8 -7 15 -15 15 -8 0 -15 9 -15 20 0 11 -4 20 -10 20 -5 0 -10 7 -10 15 0 8 -4 15 -9 15 -5 0 -11 9 -14 20 -3 11 -12 20 -21 20 -10 0 -16 8 -16 21 0 12 -8 23 -19 26 -11 3 -21 15 -23 27 -2 16 -11 22 -35 24 -29 3 -33 7 -33 34 0 24 -11 43 -47 80 -63 63 -101 66 -156 10 -20 -21 -37 -46 -37 -55 0 -10 -8 -17 -18 -17 -28 0 -42 -20 -42 -59 l0 -36 86 85 85 85 82 -85 c140 -145 331 -417 305 -433 -188 -113 -349 -199 -357 -191 -4 5 -33 48 -63 95 -56 87 -228 294 -251 302 -7 2 10 27 42 63 l54 59 -27 3 c-16 2 -36 -4 -47 -14 -19 -17 -21 -16 -64 26 -42 41 -44 45 -25 52 11 4 20 14 20 23 0 8 5 15 10 15 6 0 10 6 10 13 0 7 9 18 20 25 11 7 20 19 20 27 0 8 5 15 10 15 6 0 10 6 10 14 0 8 7 16 15 20 8 3 15 15 15 26 0 11 7 20 15 20 8 0 15 6 15 14 0 8 7 16 15 20 21 8 21 96 0 96 -8 0 -15 5 -15 10 0 6 -6 10 -14 10 -8 0 -16 7 -20 15 -3 8 -12 15 -21 15 -8 0 -15 5 -15 10 0 6 -7 10 -15 10 -8 0 -15 4 -15 10 0 5 -11 12 -25 16 -14 3 -25 10 -25 15 0 5 -7 9 -15 9 -8 0 -15 4 -15 8 0 11 -86 52 -110 52 -11 0 -20 6 -20 14 0 7 -13 19 -29 25 -15 7 -35 24 -42 39 -8 15 -23 34 -34 44 -20 16 -20 16 1 45 11 15 23 36 27 46 4 11 17 17 36 17 24 0 34 7 46 31 24 46 41 32 36 -31 -4 -60 5 -70 62 -70 32 0 41 5 55 30 9 16 21 30 25 30 14 0 20 -31 8 -43 -19 -19 -13 -75 8 -87 37 -19 84 -12 107 18 18 22 25 25 35 15 10 -10 10 -16 1 -25 -18 -18 -15 -95 4 -102 37 -14 82 -6 101 19 23 32 52 20 33 -14 -6 -12 -10 -41 -8 -64 l3 -42 44 -3 c36 -3 48 1 61 18 10 14 22 19 33 14 16 -6 16 -8 2 -30 -18 -28 -20 -85 -3 -102 19 -19 70 -14 95 9 18 18 25 20 38 9 21 -18 19 -40 -5 -40 -17 0 -20 -7 -20 -43 0 -52 13 -67 57 -67 29 0 33 3 33 25 0 30 20 33 43 7 22 -25 21 -39 -3 -47 -15 -5 -20 -15 -20 -44 0 -20 5 -42 12 -49 17 -17 78 -15 98 3 15 14 19 14 31 -1 12 -15 11 -19 -9 -32 -17 -11 -22 -24 -22 -57 0 -36 4 -44 23 -49 34 -9 75 -7 82 4 9 15 22 12 29 -7 5 -11 -2 -24 -19 -37 -22 -18 -26 -28 -23 -61 3 -39 4 -40 45 -43 23 -2 51 2 62 7 16 9 21 7 26 -10 7 -20 -2 -32 -29 -42 -5 -2 -10 -25 -10 -53 l-1 -49 37 -3 c20 -2 46 2 57 7 15 8 20 7 25 -5 10 -26 7 -31 -24 -44 -29 -12 -31 -16 -28 -59 l3 -46 60 0 c54 0 60 -3 63 -22 2 -16 -5 -24 -32 -33 -32 -10 -36 -15 -36 -46 0 -19 5 -34 10 -34 6 0 10 -7 10 -16 0 -14 8 -16 55 -11 30 3 55 2 55 -3 0 -5 3 -15 6 -23 4 -11 -5 -17 -33 -24 -38 -9 -38 -9 -38 -58 l0 -50 55 0 c52 0 55 -2 58 -26 3 -24 -1 -27 -37 -33 -41 -6 -41 -6 -41 -51 0 -43 1 -44 35 -51 19 -3 44 -4 54 -1 14 3 21 -2 26 -20 7 -31 4 -35 -42 -42 l-38 -6 0 -50 0 -50 53 0 c50 1 52 0 52 -27 0 -21 5 -28 20 -28 22 0 25 15 14 69 -7 31 -7 31 -55 25 -41 -5 -49 -4 -49 9 0 11 14 18 46 23 l47 7 -7 60 c-3 34 -10 65 -15 70 -6 6 -26 6 -53 -1 -31 -8 -44 -8 -50 1 -11 18 -1 24 47 31 51 8 53 12 29 93 -15 52 -17 54 -42 48 -15 -3 -37 -9 -49 -12 -40 -9 -27 24 15 37 20 7 40 15 45 19 4 4 -2 35 -14 68 l-20 62 -41 -15 c-51 -18 -68 -18 -68 0 0 7 20 21 45 30 25 10 45 20 45 23 0 3 -10 32 -21 65 -24 63 -27 64 -90 32 -15 -7 -29 -10 -33 -7 -15 15 -3 31 34 48 22 10 40 22 40 26 0 5 -11 33 -25 64 l-24 56 -42 -21 c-39 -20 -69 -21 -69 -2 0 5 13 15 30 22 53 22 56 35 25 93 -15 28 -29 54 -31 55 -1 2 -23 -8 -47 -23 -33 -19 -47 -23 -53 -14 -7 12 6 26 54 59 l22 15 -30 48 c-17 26 -37 50 -45 53 -8 3 -30 -7 -50 -22 -30 -23 -38 -25 -46 -13 -6 10 2 23 31 47 l40 34 -37 48 c-21 27 -42 49 -46 50 -5 0 -24 -12 -43 -27 -26 -19 -38 -23 -46 -15 -8 8 -1 20 28 46 l39 35 -40 43 c-58 61 -57 61 -92 20 -29 -34 -33 -36 -48 -21 -16 15 -14 18 19 44 20 15 36 33 36 40 0 7 -22 31 -48 54 l-49 40 -33 -34 c-22 -22 -37 -32 -43 -26 -9 9 -3 22 38 77 6 9 -3 24 -35 53 -25 22 -49 40 -55 41 -5 0 -21 -16 -34 -35 -13 -19 -30 -35 -37 -35 -23 0 -16 35 11 60 14 13 25 28 25 34 0 12 -89 76 -105 76 -6 0 -20 -16 -33 -35 -12 -19 -26 -35 -32 -35 -22 0 -20 24 6 61 15 22 25 41 23 42 -21 16 -107 67 -112 67 -4 0 -16 -18 -27 -40 -21 -41 -27 -45 -47 -32 -9 6 -6 17 12 44 14 21 25 41 25 45 0 4 -27 23 -60 41 l-59 32 -20 -45 c-11 -25 -24 -45 -30 -45 -21 0 -21 21 -1 61 12 22 20 42 18 44 -3 3 -119 55 -123 55 -1 0 -10 -20 -19 -45 -16 -41 -33 -55 -49 -39 -3 3 3 26 14 51 10 24 19 46 19 48 0 5 -123 45 -127 42 -1 -2 -9 -21 -16 -43 -8 -22 -22 -40 -32 -43 -19 -3 -19 -5 2 85 5 23 -15 33 -93 49 -30 6 -32 5 -43 -40 -9 -36 -16 -45 -29 -43 -9 2 -16 9 -15 15 2 7 5 29 9 50 l6 39 -52 12 c-76 18 -77 17 -87 -35 -5 -32 -13 -48 -23 -48 -12 0 -14 11 -12 52 4 57 5 56 -79 68 l-47 6 -7 -51 c-5 -40 -11 -50 -26 -50 -16 0 -18 5 -12 46 7 56 -2 64 -74 64 l-52 0 -7 -50 c-5 -40 -10 -50 -23 -48 -12 3 -16 15 -16 53 l0 50 -42 3 -42 3 -3 -53 c-2 -39 -7 -53 -18 -53 -11 0 -16 14 -18 53 -3 58 2 56 -105 45z m477 -228 c53 -27 94 -56 126 -92 45 -49 80 -122 80 -165 0 -10 3 -18 8 -18 6 0 8 -74 2 -90 -1 -3 -3 -18 -6 -35 -2 -16 -15 -61 -28 -99 -23 -65 -24 -72 -10 -105 8 -19 16 -36 17 -37 36 -27 135 -88 173 -107 166 -84 367 -230 489 -359 223 -233 358 -479 432 -788 20 -86 26 -140 30 -298 8 -261 -11 -391 -87 -621 -90 -273 -311 -576 -555 -762 -182 -139 -420 -248 -653 -299 -531 -118 -1114 52 -1498 435 -94 94 -254 290 -254 312 0 3 -13 27 -30 52 -86 135 -178 412 -201 602 -11 100 -8 420 5 484 84 399 231 674 497 930 162 156 318 256 549 350 241 99 265 110 298 143 28 28 33 39 27 61 -4 14 -8 40 -10 56 -2 17 -4 32 -5 35 -1 3 -3 10 -5 15 -1 6 -3 15 -4 20 -2 6 -2 37 -1 70 3 143 70 250 193 309 91 43 99 45 232 42 106 -2 113 -4 189 -41z m-749 -177 c21 -91 74 -381 70 -388 -2 -4 -24 -10 -47 -13 -64 -9 -281 -83 -359 -123 -38 -19 -75 -34 -83 -34 -11 0 -89 134 -195 338 -12 22 -8 25 103 78 116 55 267 109 399 144 94 25 106 24 112 -2z m1250 -108 c64 -28 146 -67 183 -87 69 -38 259 -160 266 -172 7 -10 -234 -331 -249 -331 -6 0 -32 15 -56 32 -86 63 -299 173 -393 202 -13 4 -16 11 -11 24 4 9 29 78 56 152 58 163 83 230 86 230 1 0 54 -23 118 -50z"></path>
      <path id="p10KJoMsri" d="M2165 3766 c-93 -30 -220 -95 -313 -159 -204 -140 -379 -363 -457 -579 -9 -24 -23 -62 -31 -86 -51 -144 -67 -379 -39 -565 29 -194 131 -437 233 -558 7 -8 29 -34 49 -59 135 -163 342 -308 546 -380 153 -54 225 -65 422 -65 154 1 194 4 275 24 249 61 441 170 620 350 419 423 486 1032 170 1561 -110 185 -290 345 -515 458 -161 80 -304 104 -354 58 -39 -35 -42 -86 -44 -833 -2 -715 -2 -722 19 -749 48 -65 59 -68 257 -76 211 -8 227 -10 294 -43 53 -25 63 -41 63 -107 0 -41 -32 -84 -52 -72 -7 4 -8 3 -4 -4 4 -7 -8 -18 -31 -29 -35 -17 -85 -18 -678 -18 -520 0 -649 3 -688 14 -27 8 -51 20 -54 28 -3 7 -16 13 -29 13 -23 0 -24 3 -24 73 l0 73 56 27 c60 30 90 34 305 42 75 2 150 9 165 15 44 17 83 60 96 105 20 73 8 1398 -14 1483 -6 24 -22 51 -36 62 -34 27 -117 26 -207 -4z m92 -112 c47 -13 50 -57 63 -797 10 -592 10 -599 -48 -628 -18 -9 -89 -15 -212 -19 -221 -8 -257 -17 -322 -81 -54 -54 -62 -82 -56 -193 3 -65 7 -79 34 -113 20 -25 52 -47 90 -63 l59 -25 720 0 c651 0 724 2 765 17 l45 17 -76 -72 c-288 -271 -732 -364 -1110 -232 -87 30 -221 101 -307 162 -91 64 -284 289 -353 410 -91 160 -149 416 -133 588 17 194 95 415 200 572 123 182 303 327 534 429 84 38 77 36 107 28z m768 -48 c254 -107 447 -286 572 -532 144 -283 171 -560 82 -844 -30 -99 -113 -259 -161 -313 l-43 -49 0 99 c0 97 -1 100 -34 141 -63 80 -106 93 -353 101 -176 6 -199 9 -219 26 -44 40 -50 74 -44 248 3 89 10 356 15 592 6 237 15 463 22 503 10 66 13 72 35 72 13 0 71 -20 128 -44z"></path>
      <path id="pQ606Trqb" d="M902 4038 c-7 -7 -12 -19 -12 -28 0 -8 -10 -20 -22 -25 -13 -6 -27 -20 -33 -32 -5 -13 -13 -23 -17 -23 -5 0 -8 -6 -8 -13 0 -7 -9 -18 -20 -25 -11 -7 -20 -19 -20 -27 0 -8 -4 -15 -10 -15 -5 0 -10 -16 -10 -35 0 -19 3 -35 8 -35 4 1 25 26 47 57 22 31 63 84 90 117 85 103 82 96 48 96 -16 0 -34 -5 -41 -12z"></path>
      <path id="p1C1Ht5x5I" d="M690 3735 c0 -14 -6 -25 -13 -25 -16 0 -37 -41 -37 -70 0 -11 -6 -20 -13 -20 -7 0 -21 -16 -30 -35 -18 -38 -23 -95 -8 -95 5 0 35 48 66 108 32 59 66 119 77 135 l19 27 -30 0 c-26 0 -31 -4 -31 -25z"></path>
      <path id="pwm95kBkc" d="M511 3388 c-12 -34 -21 -70 -21 -80 0 -10 -4 -18 -8 -18 -11 0 -32 -69 -32 -104 0 -47 25 -27 47 37 11 34 34 99 51 145 l31 82 -24 0 c-20 0 -26 -10 -44 -62z"></path>
      <path id="pqT3RXm7g" d="M426 3113 c-9 -60 -7 -83 8 -83 9 0 18 19 25 50 14 67 14 70 -8 70 -14 0 -20 -10 -25 -37z"></path>
      <path id="pDfdIQWev" d="M391 2941 c-15 -92 -14 -111 4 -111 8 0 15 2 15 4 0 2 7 40 15 83 19 97 19 93 -4 93 -15 0 -20 -13 -30 -69z"></path>
      <path id="pSfVWc31L" d="M46 2789 c-3 -17 -6 -49 -6 -70 0 -32 3 -39 20 -39 17 0 20 7 20 50 0 47 2 50 25 50 31 0 33 25 3 34 -44 11 -55 7 -62 -25z"></path>
      <path id="pO0xVVVHz" d="M4952 2738 l3 -53 38 -3 c31 -3 37 0 37 17 0 12 -8 21 -22 23 -29 4 -35 28 -9 35 36 9 25 33 -15 33 l-35 0 3 -52z"></path>
      <path id="pMWRAknT0" d="M4608 2763 c-36 -9 -20 -33 22 -33 33 0 40 3 40 20 0 20 -20 24 -62 13z"></path>
      <path id="poPo3QvM" d="M4448 2753 c-10 -2 -18 -11 -18 -19 0 -11 15 -14 60 -14 53 0 60 2 60 20 0 17 -6 20 -42 19 -24 -1 -51 -3 -60 -6z"></path>
      <path id="ptrZTtEw5" d="M5058 2723 c-28 -7 -22 -33 7 -33 15 0 25 6 25 14 0 18 -10 24 -32 19z"></path>
      <path id="p12DljQ2Gu" d="M110 2695 c0 -8 7 -15 15 -15 8 0 15 -9 15 -20 0 -11 -7 -20 -15 -20 -8 0 -15 -4 -15 -10 0 -5 16 -10 35 -10 35 0 35 0 35 45 0 45 0 45 -35 45 -24 0 -35 -5 -35 -15z"></path>
      <path id="pIV9BGJIe" d="M2 2650 c0 -19 2 -27 5 -17 2 9 2 25 0 35 -3 9 -5 1 -5 -18z"></path>
      <path id="p17MuDWAcf" d="M360 2580 c0 -73 2 -80 20 -80 18 0 20 7 20 80 0 73 -2 80 -20 80 -18 0 -20 -7 -20 -80z"></path>
      <path id="pmDtZifGo" d="M37 2643 c-11 -10 7 -44 22 -41 24 5 25 35 2 41 -11 2 -22 3 -24 0z"></path>
      <path id="puJCvogn" d="M4957 2613 c-13 -12 -7 -74 7 -89 9 -9 35 -14 70 -14 49 0 56 2 56 20 0 17 -7 20 -50 20 -37 0 -50 4 -50 15 0 8 11 17 25 21 40 10 31 34 -13 34 -21 0 -42 -3 -45 -7z"></path>
      <path id="pNk9RncYa" d="M110 2520 c0 -5 7 -10 15 -10 8 0 15 -9 15 -20 0 -11 -7 -20 -15 -20 -8 0 -15 -4 -15 -10 0 -5 16 -10 35 -10 34 0 35 1 35 40 0 39 -1 40 -35 40 -19 0 -35 -4 -35 -10z"></path>
      <path id="pH8eCFbY0" d="M40 2450 c0 -13 7 -20 20 -20 13 0 20 7 20 20 0 13 -7 20 -20 20 -13 0 -20 -7 -20 -20z"></path>
      <path id="p14UO5zfEh" d="M4950 2400 l0 -50 35 0 c39 0 49 24 14 33 -37 10 -10 27 42 27 42 0 49 3 49 20 0 18 -7 20 -70 20 l-70 0 0 -50z"></path>
      <path id="pBbCTmrwi" d="M4716 2408 c-10 -38 -7 -48 14 -48 16 0 20 7 20 35 0 40 -24 49 -34 13z"></path>
      <path id="pyBhqImmL" d="M42 2378 l3 -43 53 2 c38 2 52 -1 52 -11 0 -15 -30 -26 -73 -26 l-29 0 7 -52 c11 -92 11 -91 66 -84 40 6 49 4 49 -9 0 -10 -14 -17 -41 -21 -22 -4 -43 -13 -46 -20 -2 -7 1 -38 7 -69 l12 -56 41 6 c23 4 46 8 51 9 6 0 11 -6 13 -16 3 -12 -6 -18 -34 -23 -64 -10 -66 -14 -45 -81 19 -63 21 -64 90 -49 48 11 43 -20 -5 -35 -21 -7 -41 -15 -45 -19 -5 -5 27 -119 37 -129 1 -1 23 7 49 18 58 24 56 24 56 2 0 -12 -15 -25 -45 -38 l-45 -19 24 -58 c14 -33 27 -61 29 -64 3 -2 24 5 46 17 40 20 61 20 61 -1 0 -6 -20 -19 -45 -30 l-45 -20 30 -59 c17 -33 35 -60 41 -60 7 0 27 9 45 21 32 19 54 19 54 -1 0 -5 -18 -19 -40 -30 -22 -11 -40 -26 -40 -33 0 -6 15 -35 33 -64 l32 -52 44 30 c34 22 47 26 53 17 8 -13 -5 -27 -52 -59 l-24 -16 22 -34 c12 -19 31 -45 42 -57 l20 -24 37 31 c26 22 40 28 48 20 7 -7 -2 -21 -29 -44 l-38 -34 30 -39 c54 -67 56 -68 101 -33 53 42 65 21 17 -28 l-36 -37 30 -29 30 -29 0 27 c0 16 10 36 25 49 29 25 36 88 10 88 -8 0 -15 5 -15 11 0 6 -16 9 -37 7 -28 -2 -41 -9 -50 -28 -9 -17 -13 -20 -13 -8 0 9 -10 24 -22 32 -16 12 -18 16 -7 16 29 0 51 35 47 77 -3 38 -3 38 -51 41 -35 2 -49 -1 -53 -12 -5 -14 -9 -13 -30 2 -27 20 -31 32 -9 32 8 0 15 5 15 10 0 6 7 10 15 10 22 0 21 86 -1 94 -28 11 -72 6 -87 -8 -12 -12 -16 -12 -30 5 -22 25 -22 24 13 39 29 12 31 15 28 64 -3 49 -4 51 -35 54 -18 2 -42 -2 -54 -9 -19 -10 -25 -9 -36 7 -12 16 -10 20 22 36 28 15 35 24 35 49 0 47 -16 69 -51 69 -17 0 -40 -5 -51 -11 -16 -9 -23 -8 -29 2 -16 25 -9 37 26 49 32 11 35 15 35 51 0 28 -4 39 -15 39 -8 0 -15 5 -15 11 0 7 -17 10 -46 7 -40 -3 -48 0 -54 18 -7 19 -3 23 31 33 40 12 40 12 37 59 l-3 47 -57 0 c-32 0 -58 3 -58 6 0 4 -3 14 -6 23 -4 10 2 17 20 22 17 4 26 13 26 25 0 10 7 19 15 19 11 0 15 11 15 36 l0 36 -55 -4 c-37 -2 -55 1 -55 9 0 6 -3 18 -6 27 -4 11 2 17 23 22 66 14 64 13 61 62 l-3 47 -52 -1 c-47 -2 -52 0 -58 24 -8 32 1 40 50 44 l40 3 3 48 3 47 -55 0 c-53 0 -56 1 -56 25 0 19 -5 25 -21 25 -18 0 -20 -5 -17 -42z"></path>
      <path id="pHi3ONtDa" d="M370 2375 c0 -28 4 -35 20 -35 21 0 24 10 14 48 -10 36 -34 27 -34 -13z"></path>
      <path id="pfHqgQXl9" d="M5040 2358 c6 -71 3 -78 -40 -78 -22 0 -40 -4 -40 -10 0 -5 -7 -10 -16 -10 -25 0 -15 -74 11 -78 60 -9 65 -12 65 -42 l0 -29 -51 6 c-59 7 -69 -1 -69 -59 0 -36 2 -38 46 -49 33 -9 44 -16 40 -26 -3 -8 -6 -20 -6 -27 0 -7 -14 -10 -40 -8 -25 3 -40 0 -40 -7 0 -6 -9 -11 -21 -11 -17 0 -20 -5 -17 -37 3 -31 8 -38 35 -47 41 -14 46 -20 38 -45 -5 -16 -12 -20 -31 -15 -13 3 -40 3 -59 0 -34 -7 -35 -9 -35 -51 0 -40 2 -44 30 -50 35 -8 43 -18 35 -45 -5 -16 -10 -18 -25 -10 -30 16 -87 12 -94 -6 -18 -46 4 -104 40 -104 17 0 18 -14 4 -41 -10 -18 -12 -18 -27 -4 -10 10 -29 15 -52 13 -36 -3 -36 -3 -39 -54 -3 -49 -1 -52 27 -64 30 -12 30 -13 14 -37 -10 -14 -19 -21 -21 -14 -4 12 -34 14 -81 5 -28 -6 -31 -10 -31 -45 0 -22 5 -39 11 -39 20 0 40 -30 34 -49 -4 -13 -12 -17 -25 -14 -11 3 -20 10 -20 15 0 5 -19 8 -42 6 -32 -2 -44 -8 -46 -21 -6 -32 8 -87 22 -87 19 0 27 -25 13 -39 -6 -6 -29 -11 -51 -11 l-41 -1 40 -34 40 -34 25 24 c14 13 33 38 43 54 l18 31 -40 27 c-22 16 -40 32 -41 36 -1 20 33 16 66 -9 l36 -28 18 25 c11 13 28 40 39 60 l20 36 -39 22 c-37 21 -49 39 -34 54 4 3 26 -7 50 -23 l43 -30 35 62 35 63 -44 23 c-25 12 -45 27 -45 32 0 20 22 20 54 1 18 -12 38 -21 44 -21 9 0 62 101 62 119 0 4 -20 16 -45 27 -35 15 -43 22 -36 34 9 12 16 11 56 -8 42 -21 46 -21 52 -5 3 10 14 40 25 66 10 26 18 49 18 51 0 2 -20 9 -45 16 -33 9 -45 18 -45 31 0 23 -3 23 50 4 23 -8 46 -15 50 -15 11 0 44 119 36 128 -4 4 -24 12 -44 17 -23 7 -38 18 -40 29 -3 16 0 18 23 12 84 -21 81 -22 94 31 7 26 14 55 17 65 4 12 -4 18 -28 23 -58 12 -68 16 -68 31 0 13 10 14 54 9 l54 -7 7 48 c4 27 9 57 11 66 5 17 -9 24 -66 30 -14 2 -26 10 -28 19 -2 14 5 15 46 11 57 -5 58 -3 64 83 3 46 1 50 -20 53 -19 3 -23 -1 -22 -20z"></path>
      <path id="pMDzWBBf6" d="M4706 2308 c-3 -18 -9 -64 -15 -103 -6 -38 -13 -85 -17 -102 -6 -28 -4 -33 13 -33 17 0 22 13 36 93 21 118 22 177 2 177 -8 0 -16 -13 -19 -32z"></path>
      <path id="pnjAyGMKf" d="M380 2311 c0 -10 3 -39 6 -65 5 -37 11 -46 26 -46 21 0 21 5 2 103 -6 30 -34 37 -34 8z"></path>
      <path id="pJ6kxRUxR" d="M420 2108 c0 -59 13 -98 31 -98 22 0 23 14 8 76 -12 46 -39 62 -39 22z"></path>
      <path id="pZ35hFjHA" d="M4623 1928 c-18 -57 -53 -150 -78 -208 -26 -58 -49 -111 -52 -117 -3 -9 4 -13 19 -13 26 0 48 33 48 70 0 11 5 20 10 20 6 0 10 9 10 21 0 11 7 27 15 35 8 9 15 26 15 40 0 13 4 24 8 24 11 0 62 168 62 203 0 16 -6 27 -13 27 -8 0 -26 -41 -44 -102z"></path>
      <path id="pSMiqf2T4" d="M933 1758 c-21 -10 -34 -58 -17 -58 13 0 104 54 104 62 0 11 -61 9 -87 -4z"></path>
      <path id="p141iSpTy7" d="M820 1691 c0 -5 -13 -11 -30 -14 -18 -4 -30 -13 -30 -22 0 -9 -9 -15 -25 -15 -20 0 -25 -5 -25 -25 0 -14 2 -25 5 -25 12 0 175 95 175 102 0 4 -16 8 -35 8 -19 0 -35 -4 -35 -9z"></path>
      <path id="pjGg2ssVf" d="M650 1510 c0 -46 20 -80 47 -80 29 0 29 2 -4 61 -30 56 -43 62 -43 19z"></path>
      <path id="ptE2ZzaaC" d="M4437 1501 c-22 -38 -22 -41 8 -41 22 0 25 4 25 35 0 43 -10 44 -33 6z"></path>
      <path id="p10uo6iOFW" d="M4353 1370 l-53 -80 30 0 c20 0 30 5 30 15 0 8 5 15 10 15 6 0 10 9 10 20 0 11 6 20 14 20 8 0 17 7 20 16 8 22 7 74 -1 74 -5 -1 -32 -37 -60 -80z"></path>
      <path id="p10An9Vp7B" d="M730 1378 c0 -20 6 -43 13 -50 7 -7 16 -21 20 -30 4 -11 17 -18 31 -18 21 0 25 -5 28 -37 3 -33 7 -38 31 -41 23 -3 27 -8 27 -33 0 -26 3 -29 31 -29 l31 0 -19 24 c-10 13 -48 63 -85 112 -37 49 -76 100 -87 114 l-20 25 -1 -37z"></path>
      <path id="pcftLvE8s" d="M4185 1150 c-38 -44 -71 -80 -74 -80 -4 0 -12 -9 -19 -20 -11 -18 -10 -20 18 -20 25 0 30 4 30 24 0 19 6 25 28 28 23 3 27 8 30 41 3 34 6 37 33 37 27 0 29 3 29 35 0 19 -2 35 -3 35 -2 0 -34 -36 -72 -80z"></path>
      <path id="pkeLkVvdh" d="M970 1079 c0 -49 54 -102 99 -97 l32 3 -66 65 -65 64 0 -35z"></path>
      <path id="pwxjREjkY" d="M3973 943 c-50 -43 -106 -90 -124 -105 l-34 -27 38 0 c20 -1 37 4 37 9 0 6 7 10 15 10 10 0 15 10 15 30 0 28 3 30 35 30 28 0 35 4 35 20 0 15 7 20 25 20 16 0 25 6 25 15 0 8 7 15 15 15 10 0 15 10 15 30 0 17 -1 30 -3 30 -2 0 -44 -35 -94 -77z"></path>
      <path id="pLS91nL1r" d="M4450 961 c0 -23 -44 -71 -65 -71 -9 0 -15 10 -15 25 0 22 -4 25 -33 25 -43 0 -57 -15 -57 -62 0 -37 1 -38 37 -38 36 0 36 0 18 20 -14 16 -16 23 -7 32 9 9 20 4 48 -23 l36 -34 44 50 c24 27 44 52 44 56 0 4 -11 14 -25 23 -24 16 -25 15 -25 -3z"></path>
      <path id="pnusqHwYY" d="M1122 929 c2 -29 7 -35 31 -37 19 -2 27 -9 27 -23 0 -15 7 -19 38 -19 l37 1 -40 35 c-22 19 -53 44 -68 56 l-28 20 3 -33z"></path>
      <path id="pm8AWeRQA" d="M780 845 c-32 -33 -33 -36 -17 -52 16 -16 19 -15 51 16 49 47 69 30 22 -18 l-36 -37 51 -49 50 -50 36 38 c24 27 38 36 45 29 7 -7 1 -23 -20 -50 l-32 -39 50 -42 c27 -22 53 -41 58 -41 5 0 20 16 33 35 23 34 39 42 52 29 4 -4 -7 -24 -24 -46 -25 -31 -29 -41 -19 -53 11 -13 93 -65 103 -65 2 0 17 19 32 41 19 29 30 38 37 31 8 -8 4 -22 -11 -48 -12 -20 -20 -42 -17 -49 4 -12 91 -65 107 -65 4 0 10 8 13 18 11 30 43 65 55 58 8 -5 5 -19 -9 -46 -11 -22 -20 -44 -20 -49 0 -11 91 -61 109 -61 6 0 20 18 31 40 11 22 24 40 29 40 18 0 18 -14 0 -57 -11 -25 -18 -47 -17 -48 9 -6 112 -45 118 -45 5 0 16 20 27 45 28 70 54 53 29 -20 -8 -22 -11 -43 -8 -46 11 -11 115 -38 124 -33 4 3 13 23 19 44 14 46 46 58 35 14 -21 -84 -24 -79 44 -98 34 -10 65 -15 68 -11 4 3 12 25 17 48 14 56 31 48 27 -12 l-3 -49 51 -11 c84 -18 87 -17 93 34 5 51 10 60 27 50 8 -5 9 -23 5 -56 -8 -54 -6 -56 85 -61 42 -3 45 -1 48 25 3 21 -1 27 -17 27 -10 0 -21 -4 -23 -9 -1 -5 -15 -7 -30 -4 -26 5 -28 8 -28 59 0 52 -1 54 -27 54 -54 0 -73 -11 -73 -39 0 -38 -12 -50 -40 -44 -24 4 -26 9 -25 56 l0 52 -47 3 -48 3 -6 -40 c-6 -40 -16 -47 -48 -35 -13 5 -15 16 -10 56 8 58 0 68 -58 68 -35 0 -38 -2 -48 -41 -8 -30 -15 -39 -26 -35 -9 3 -22 6 -29 6 -11 0 -12 6 -4 29 6 16 9 42 7 58 -3 24 -8 28 -40 31 -22 2 -38 -1 -38 -7 0 -6 -7 -11 -15 -11 -9 0 -18 -12 -21 -30 -7 -35 -8 -35 -32 -14 -15 13 -18 26 -14 66 5 57 -3 68 -56 68 -27 0 -35 -6 -49 -34 -14 -31 -18 -33 -39 -24 -18 9 -21 15 -14 29 16 28 12 79 -5 79 -8 0 -15 5 -15 10 0 6 -15 10 -34 10 -27 0 -36 -5 -42 -22 -3 -12 -13 -28 -20 -36 -12 -11 -14 -11 -14 1 0 9 -6 17 -12 19 -10 4 -10 10 0 32 20 44 16 83 -10 90 -42 11 -78 7 -78 -9 0 -8 -4 -15 -10 -15 -5 0 -10 -7 -10 -15 0 -19 -5 -19 -29 1 -17 15 -17 19 -5 43 19 36 18 87 -2 95 -9 3 -30 6 -48 6 -25 0 -36 -6 -46 -25 -16 -30 -50 -34 -50 -6 0 10 7 24 15 31 11 9 15 27 13 54 l-3 41 -47 -1 c-30 0 -54 -7 -66 -17 -10 -9 -31 -17 -47 -17 l-29 0 33 34 c28 29 32 39 29 77 -3 44 -3 44 -43 47 -35 3 -45 -2 -75 -33z"></path>
      <path id="paSEayEqd" d="M1260 821 c0 -29 2 -31 35 -31 31 0 35 -3 35 -25 0 -22 4 -25 35 -25 45 0 44 11 -2 38 -21 12 -53 34 -70 48 l-33 27 0 -32z"></path>
      <path id="pZa4IbOKV" d="M4332 814 c-7 -8 -12 -26 -10 -39 l3 -25 29 25 c17 15 26 30 23 40 -8 19 -28 19 -45 -1z"></path>
      <path id="pqv1n9UW1" d="M4173 805 c-19 -20 -17 -75 2 -75 18 0 20 -41 3 -58 -22 -22 -48 -14 -48 13 0 22 -4 25 -38 25 -21 0 -43 -5 -50 -12 -18 -18 -16 -78 3 -78 18 0 20 -31 3 -48 -15 -15 -38 -16 -38 -1 0 20 -29 39 -59 39 -21 0 -31 -5 -31 -15 0 -8 -4 -15 -10 -15 -15 0 -12 -68 3 -73 9 -3 9 -9 1 -23 -17 -29 -32 -27 -49 5 -16 31 -49 40 -89 25 -18 -7 -22 -74 -6 -104 8 -15 6 -21 -9 -30 -27 -14 -27 -14 -41 20 -11 27 -17 30 -55 30 -30 0 -45 -5 -49 -16 -9 -23 -7 -63 4 -83 7 -15 4 -20 -16 -29 -22 -11 -26 -9 -35 15 -13 34 -26 43 -66 43 -29 0 -33 -4 -39 -35 -3 -19 -3 -46 0 -59 5 -19 1 -26 -14 -31 -27 -8 -37 0 -45 35 -6 28 -10 30 -50 30 -42 0 -44 -1 -51 -35 -3 -19 -4 -44 -1 -56 4 -15 -1 -23 -19 -30 -14 -5 -27 -9 -29 -9 -2 0 -6 18 -10 40 l-7 40 -48 0 -49 0 -3 -57 c-3 -54 -5 -58 -28 -58 -20 0 -26 6 -28 28 -2 19 -9 27 -23 27 -10 0 -19 5 -19 10 0 6 -16 10 -36 10 l-36 0 4 -55 c4 -52 3 -55 -19 -55 -13 0 -26 -1 -30 -2 -5 -2 -10 17 -13 42 l-5 45 -47 3 -48 3 0 -55 c0 -43 -3 -56 -15 -56 -8 0 -15 -9 -15 -21 0 -17 5 -20 33 -17 32 3 32 3 30 55 -2 39 1 53 11 53 15 0 26 -30 26 -72 0 -16 3 -28 7 -28 3 0 35 5 70 11 l64 11 -7 54 c-5 46 -4 54 10 54 11 0 18 -12 22 -39 9 -59 12 -61 79 -47 65 13 63 10 54 91 -6 48 23 38 36 -12 5 -23 13 -44 16 -48 6 -5 115 28 126 38 2 2 -4 23 -12 47 -19 53 -19 50 4 50 13 0 22 -12 31 -45 7 -25 14 -45 16 -45 2 0 33 12 68 26 l65 26 -20 45 c-16 37 -17 48 -7 55 9 6 19 -5 32 -37 11 -25 24 -45 29 -45 5 0 36 12 68 26 l58 26 -24 48 c-20 40 -22 49 -10 54 10 4 22 -8 36 -37 12 -23 23 -43 24 -45 3 -3 88 39 114 56 11 8 8 18 -13 54 -24 41 -25 58 -5 58 4 0 18 -18 30 -40 13 -22 27 -40 33 -40 6 0 34 16 63 36 l53 36 -30 41 c-16 22 -27 44 -24 49 10 16 30 8 47 -19 9 -16 21 -34 26 -42 7 -11 20 -5 65 29 61 46 60 43 12 98 -16 18 -17 25 -7 35 10 10 19 4 46 -27 l33 -39 39 31 c69 54 70 58 35 95 -57 59 -33 80 27 25 21 -20 27 -23 13 -7 -12 14 -22 37 -22 52 0 24 -4 27 -32 27 -18 -1 -39 -7 -45 -15z"></path>
      <path id="pRS7aOWEZ" d="M3730 759 c-41 -28 -82 -53 -90 -57 -49 -23 -120 -66 -120 -74 0 -4 16 -8 35 -8 28 0 35 4 35 20 0 16 7 20 35 20 19 0 35 5 35 10 0 6 9 10 20 10 11 0 20 5 20 10 0 6 7 10 15 10 8 0 15 5 15 10 0 6 7 10 15 10 8 0 15 7 15 15 0 9 9 15 25 15 21 0 25 5 25 30 0 17 -1 30 -2 29 -2 0 -37 -23 -78 -50z"></path>
      <path id="p5SAXPNmJ" d="M1440 696 c0 -26 16 -36 61 -36 21 0 29 -5 29 -18 0 -22 58 -52 100 -52 19 0 30 -5 30 -14 0 -15 21 -26 51 -26 10 0 19 -4 19 -9 0 -12 56 -31 91 -31 50 0 32 24 -36 48 -35 13 -126 55 -202 93 -75 38 -138 69 -140 69 -2 0 -3 -11 -3 -24z"></path>
      <path id="pRvDFfa2v" d="M3365 569 c-38 -16 -76 -29 -82 -29 -7 0 -13 -7 -13 -16 0 -14 8 -16 47 -11 26 3 49 10 51 16 2 6 13 11 25 11 32 0 49 15 45 37 -3 20 -5 20 -73 -8z"></path>
      <path id="pfTwhnJV7" d="M3155 500 c-49 -16 -107 -32 -127 -35 -26 -4 -38 -11 -38 -22 0 -13 9 -15 63 -9 34 3 64 11 65 16 2 6 15 10 29 10 14 0 43 5 64 12 31 9 39 16 39 35 0 12 -1 23 -2 22 -2 -1 -43 -14 -93 -29z"></path>
      <path id="pDkor4Hku" d="M1900 494 c0 -21 5 -24 35 -24 22 0 35 5 35 13 0 8 -16 18 -35 24 -33 11 -35 10 -35 -13z"></path>
      <path id="p13cVupWE5" d="M2060 450 c0 -16 7 -20 35 -20 40 0 49 24 13 34 -38 10 -48 7 -48 -14z"></path>
      <path id="pzKHAox4w" d="M2300 145 c0 -39 24 -50 33 -15 4 14 10 18 22 14 14 -6 16 -15 11 -54 -6 -44 -4 -48 16 -54 13 -3 44 -6 71 -6 40 0 47 3 47 20 0 17 -7 20 -50 20 l-50 0 0 55 0 55 -50 0 -50 0 0 -35z"></path>
      <path id="pgRP2fVGM" d="M2470 135 c0 -24 5 -35 15 -35 8 0 15 7 15 15 0 8 9 15 20 15 11 0 20 -7 20 -15 0 -8 7 -15 15 -15 10 0 15 11 15 35 l0 35 -50 0 -50 0 0 -35z"></path>
      <path id="p19MyTBIs9" d="M2640 100 c0 -64 2 -70 21 -70 19 0 21 5 17 52 -4 73 18 75 27 2 6 -51 9 -55 28 -50 12 3 25 6 30 6 14 0 7 30 -8 30 -11 0 -15 12 -15 50 l0 50 -50 0 -50 0 0 -70z"></path>
      <path id="paZK2issD" d="M2537 61 c-5 -22 0 -31 20 -31 7 0 13 11 13 25 0 30 -25 34 -33 6z"></path>
    </g>
  </g>
  <g id="lj0SN8L0sWv52Y6rIckOSI" fill="rgb(14,60,119)" style="transform: none;">
    <g style="transform: none;">
      <path id="p1Af7VsHRq" d="M1902 4975 c-10 -15 -2 -48 16 -69 10 -11 11 -16 5 -12 -7 4 -13 3 -13 -2 0 -6 7 -12 15 -16 20 -7 20 22 -1 45 -17 19 -11 39 12 39 8 0 12 5 9 10 -3 6 -2 10 4 10 5 0 11 -5 13 -12 3 -7 7 -5 11 5 6 15 1 17 -29 15 -19 -1 -38 -7 -42 -13z"></path>
      <path id="pVWfFln89" d="M1744 4936 c-11 -12 -11 -21 0 -73 6 -26 4 -31 -15 -36 -26 -7 -61 29 -53 56 6 18 -20 25 -31 7 -3 -5 -12 -7 -20 -3 -8 3 -15 0 -15 -6 0 -6 -11 -11 -24 -11 -24 0 -24 -2 -14 -32 6 -18 14 -37 19 -42 13 -15 -2 -36 -26 -36 -18 0 -25 7 -30 30 -4 17 -11 28 -16 25 -5 -4 -6 1 -3 9 7 18 -11 22 -21 6 -4 -6 -11 -8 -16 -5 -5 4 -9 1 -9 -5 0 -6 -4 -9 -9 -5 -11 6 -61 -15 -61 -27 0 -4 5 -8 10 -8 6 0 10 -9 10 -19 0 -11 5 -23 10 -26 16 -10 12 -42 -6 -49 -22 -8 -28 -3 -48 42 l-18 39 -41 -20 c-69 -32 -70 -34 -43 -82 17 -31 21 -46 13 -54 -20 -20 -35 -12 -58 29 -25 43 -30 43 -96 -8 l-32 -24 24 -32 c30 -40 32 -66 6 -66 -18 0 -55 36 -64 63 -2 7 -23 -3 -55 -27 l-51 -39 20 -28 c11 -16 24 -31 29 -34 16 -10 12 -32 -6 -39 -11 -4 -27 6 -49 31 l-32 37 -47 -44 -47 -43 32 -33 c20 -20 29 -39 26 -48 -10 -25 -31 -19 -55 14 -13 17 -27 30 -32 30 -5 0 -27 -19 -50 -42 l-40 -42 35 -36 c30 -31 33 -38 22 -53 -11 -17 -16 -15 -54 18 l-42 35 -35 -46 c-20 -26 -36 -50 -36 -53 0 -3 16 -18 35 -34 21 -17 32 -33 29 -42 -9 -21 -22 -19 -62 12 l-35 27 -29 -35 c-53 -61 -53 -65 -8 -95 43 -29 46 -34 28 -52 -9 -9 -22 -6 -55 14 l-43 25 -30 -48 c-16 -26 -30 -50 -30 -55 0 -4 18 -18 40 -30 22 -13 40 -29 40 -36 0 -23 -29 -24 -69 -1 -23 12 -43 21 -45 18 -2 -2 -15 -27 -30 -56 l-26 -52 45 -22 c48 -24 50 -26 35 -49 -8 -12 -15 -11 -55 8 l-46 22 -25 -56 c-14 -31 -24 -58 -22 -59 2 -1 22 -12 46 -24 23 -12 42 -26 42 -32 0 -19 -32 -22 -67 -5 -19 9 -38 14 -43 11 -12 -7 -43 -103 -36 -113 3 -5 23 -15 46 -22 53 -17 52 -47 0 -41 -76 8 -72 10 -90 -51 l-18 -57 49 -11 c37 -9 49 -17 49 -31 0 -21 -15 -23 -71 -10 l-36 8 -12 -49 c-16 -73 -15 -76 32 -85 33 -7 43 -13 45 -32 3 -18 0 -22 -15 -18 -86 25 -86 25 -98 -65 l-7 -47 51 -7 c42 -5 51 -10 51 -26 0 -17 -6 -19 -52 -17 l-53 3 -7 -54 c-10 -76 -7 -80 52 -80 44 0 51 -3 48 -17 -2 -14 -15 -19 -56 -21 l-52 -3 0 -64 0 -64 53 -3 c38 -2 52 -7 52 -18 0 -11 -14 -16 -50 -20 -44 -4 -50 -8 -53 -30 -1 -14 1 -43 5 -65 l9 -39 53 3 c47 2 52 0 49 -16 -2 -13 -15 -19 -48 -23 l-45 -5 1 -63 c1 -34 3 -64 5 -66 2 -2 26 0 52 4 38 6 50 4 54 -7 7 -19 -9 -29 -59 -37 -39 -6 -39 -6 -32 -44 12 -61 21 -87 30 -86 5 1 28 5 52 9 37 6 42 5 42 -13 0 -14 -11 -23 -45 -32 -25 -7 -45 -18 -45 -24 0 -16 30 -116 34 -116 2 0 20 7 41 16 21 8 44 13 51 10 26 -10 14 -34 -23 -46 -21 -7 -42 -16 -46 -20 -12 -11 24 -120 39 -120 8 0 29 8 49 17 31 15 37 15 45 3 15 -23 13 -26 -35 -44 -25 -10 -45 -21 -45 -25 0 -24 45 -111 57 -111 29 0 22 60 -10 81 -5 4 6 13 26 20 36 13 47 31 47 81 0 24 -4 27 -45 34 -25 3 -51 4 -59 1 -13 -5 -26 11 -26 33 0 5 13 11 29 15 29 6 41 32 41 91 0 23 -4 24 -60 24 -53 0 -60 2 -60 20 0 14 11 22 40 31 38 11 40 14 40 51 0 21 -4 38 -10 38 -5 0 -10 7 -10 16 0 14 -8 16 -50 11 -48 -6 -50 -5 -50 18 0 21 6 26 40 31 l40 7 0 53 0 54 -55 0 c-52 0 -55 1 -55 25 0 19 5 25 23 25 58 0 67 9 67 66 l0 54 -50 0 c-27 0 -50 4 -50 9 0 5 -3 16 -6 25 -5 13 2 16 43 16 27 0 54 5 61 12 7 7 12 36 12 65 0 50 -1 53 -25 53 -43 0 -27 17 22 24 27 3 51 2 57 -4 5 -5 23 -10 38 -10 30 0 34 -8 42 -90 2 -25 11 -85 20 -135 8 -49 19 -114 24 -144 5 -29 14 -56 20 -60 5 -3 17 -44 26 -91 9 -47 20 -86 26 -88 5 -2 10 -19 10 -38 0 -29 3 -34 24 -34 l24 0 -18 58 c-35 113 -80 360 -90 495 -18 257 24 573 112 832 67 197 200 450 322 610 98 128 262 296 381 389 28 22 52 42 55 45 3 3 16 12 29 20 21 12 26 11 35 -2 147 -212 225 -316 226 -300 0 7 22 24 48 37 108 55 104 82 -49 339 -37 62 -37 83 0 90 16 3 35 12 42 20 8 7 54 29 102 47 48 18 87 36 87 41 0 5 7 6 15 3 8 -4 17 1 21 9 3 9 14 14 25 12 10 -2 19 0 19 5 0 5 7 6 17 3 11 -4 14 -3 9 6 -5 7 -1 20 9 31 9 10 15 25 12 32 -2 7 3 22 12 32 12 15 13 20 3 23 -9 4 -10 9 -2 18 8 9 4 17 -15 29 -14 9 -31 16 -38 14 -6 -1 -36 1 -65 5 -47 7 -51 9 -37 23 10 10 14 27 11 51 -4 27 -2 33 10 29 8 -3 14 -1 14 4 0 6 -9 10 -20 10 -11 0 -20 -6 -20 -12 0 -10 -2 -10 -8 -2 -5 9 -10 9 -18 0z"></path>
      <path id="p13fSw2V7l" d="M3390 4921 c0 -11 5 -23 11 -27 19 -11 47 -86 43 -112 -3 -13 -15 -39 -28 -56 -28 -37 -28 -82 -1 -105 11 -9 26 -27 33 -41 8 -17 47 -44 105 -75 104 -54 307 -186 307 -198 0 -4 -48 -71 -106 -149 -59 -78 -108 -147 -111 -154 -2 -6 26 -39 64 -74 l67 -63 138 144 139 144 66 -70 c114 -121 223 -263 301 -393 37 -60 38 -69 15 -76 -10 -3 -55 -27 -100 -53 -46 -27 -114 -66 -153 -88 -38 -22 -70 -46 -70 -52 0 -7 17 -46 37 -87 l36 -74 36 13 c20 7 97 39 171 70 74 32 143 58 154 59 14 1 25 -16 48 -73 59 -147 139 -518 118 -551 -3 -5 -73 -15 -155 -21 -83 -6 -174 -14 -204 -17 l-54 -7 -3 -70 c-10 -218 -11 -317 -4 -270 5 28 9 71 9 98 l1 47 113 0 c61 0 156 -3 211 -7 l99 -6 -8 -126 c-3 -69 -13 -160 -21 -201 -17 -93 -18 -90 4 -90 15 0 21 16 35 88 9 49 17 107 17 130 0 23 5 42 10 42 6 0 10 32 10 75 0 81 18 115 60 115 11 0 20 4 20 8 0 14 58 42 74 36 9 -4 16 -21 18 -47 3 -41 4 -42 41 -45 20 -2 37 -7 37 -13 0 -5 7 -9 15 -9 8 0 15 -7 15 -15 0 -11 -12 -15 -50 -15 -48 0 -49 -1 -55 -34 -11 -55 -3 -81 25 -84 55 -6 70 -13 70 -32 0 -16 -8 -19 -52 -22 l-53 -3 -3 -51 -3 -52 46 -7 c36 -5 45 -10 41 -22 -3 -8 -6 -19 -6 -24 0 -5 -15 -9 -32 -9 -59 0 -78 -10 -78 -39 0 -55 11 -71 50 -77 31 -5 36 -9 33 -28 -4 -19 -11 -21 -61 -21 l-57 0 -3 -52 -3 -52 41 -12 c28 -9 39 -17 35 -27 -3 -7 -5 -18 -5 -23 0 -6 -8 -5 -20 1 -12 6 -38 10 -58 8 -35 -3 -37 -5 -40 -40 -2 -22 1 -38 7 -38 6 0 11 -9 11 -19 0 -12 9 -21 25 -25 22 -6 23 -9 14 -33 -6 -15 -16 -31 -22 -35 -9 -6 -7 -13 8 -23 10 -9 23 -14 28 -12 10 3 47 94 47 113 0 6 -20 17 -45 24 -26 7 -45 19 -45 27 0 22 22 25 68 9 47 -17 46 -17 62 42 6 24 13 49 16 56 3 9 -11 18 -41 26 -51 14 -57 20 -45 39 6 11 17 12 51 3 24 -6 47 -8 50 -4 7 7 29 94 29 111 0 6 -6 11 -12 11 -23 0 -88 21 -88 28 1 24 17 30 60 22 25 -5 48 -5 51 -2 4 4 10 33 14 64 l6 57 -38 6 c-58 10 -63 13 -56 31 5 13 15 15 54 11 l47 -6 7 59 c4 32 4 64 0 69 -3 6 -26 11 -51 11 -38 0 -44 3 -44 21 0 18 5 20 53 18 l52 -3 3 67 3 66 -45 -4 c-30 -3 -48 0 -56 10 -19 23 -2 35 51 35 l49 0 0 66 0 65 -52 -2 c-48 -3 -53 -1 -56 19 -3 20 1 22 47 22 57 0 56 -1 45 84 l-7 48 -51 -4 c-45 -3 -51 -1 -51 17 0 15 9 21 44 27 24 4 45 9 47 11 2 2 -1 31 -7 65 l-11 61 -31 -6 c-53 -11 -71 -9 -75 9 -3 14 6 19 36 24 61 10 63 13 47 73 -7 29 -16 55 -19 58 -3 3 -25 1 -48 -5 -25 -7 -47 -7 -52 -2 -16 16 2 37 38 44 19 4 38 11 41 17 8 12 -23 119 -34 119 -5 0 -26 -7 -47 -16 -36 -15 -39 -15 -51 2 -13 17 -10 21 29 37 23 10 44 20 47 22 7 7 -32 115 -41 115 -5 0 -25 -7 -45 -15 -72 -30 -88 9 -18 43 l45 22 -26 52 c-15 29 -28 54 -29 56 -2 2 -22 -6 -44 -18 -69 -35 -89 3 -22 41 l40 22 -26 51 c-14 28 -27 53 -29 55 -2 3 -22 -6 -45 -18 -38 -22 -69 -23 -69 -1 0 5 18 22 40 36 l40 27 -21 36 c-43 76 -43 76 -83 46 -36 -27 -66 -28 -66 -1 0 8 16 24 35 36 19 12 35 25 35 28 0 4 -17 28 -39 54 l-38 47 -37 -31 c-34 -28 -39 -29 -53 -15 -14 14 -12 18 21 47 20 18 36 35 36 39 0 3 -19 25 -41 49 l-42 43 -36 -35 c-29 -28 -40 -33 -49 -24 -18 18 -15 27 18 55 17 13 30 31 30 38 0 7 -19 29 -42 49 l-43 35 -36 -35 c-32 -31 -37 -33 -49 -19 -11 13 -8 21 18 54 l31 39 -46 38 -46 38 -33 -38 c-22 -25 -39 -36 -49 -33 -22 9 -19 31 10 65 14 17 25 32 25 35 0 4 -21 22 -46 42 l-47 35 -30 -41 c-19 -25 -35 -38 -44 -35 -8 3 -17 6 -19 6 -11 0 -1 27 22 57 14 18 23 37 20 42 -7 11 -97 64 -100 59 -1 -1 -13 -20 -25 -40 -25 -42 -25 -42 -52 -28 -18 10 -18 12 7 52 l26 41 -23 18 c-34 26 -82 45 -86 33 -7 -21 -43 -74 -50 -74 -5 0 -15 5 -23 10 -12 8 -12 15 7 52 l21 44 -49 27 c-27 15 -51 27 -54 27 -2 0 -13 -20 -24 -45 -22 -49 -23 -50 -52 -35 -19 11 -19 11 2 51 11 23 19 42 17 44 -4 4 -100 45 -104 45 -2 0 -4 -9 -4 -19z"></path>
      <path id="pcM71UcnG" d="M1831 4901 c-7 -5 -12 -14 -10 -20 3 -6 9 -7 18 -2 7 5 12 14 10 20 -3 6 -9 7 -18 2z"></path>
      <path id="pNZRsfS7T" d="M2120 3656 c-284 -126 -491 -317 -614 -564 -19 -40 -33 -72 -31 -72 2 0 -4 -20 -15 -44 -31 -73 -68 -245 -75 -346 -15 -207 39 -455 134 -623 69 -121 262 -346 353 -410 143 -101 303 -172 461 -204 123 -25 365 -23 487 4 198 43 379 133 513 253 117 105 253 276 307 385 88 179 120 314 120 508 0 216 -37 373 -133 561 -123 241 -315 422 -559 527 -107 46 -161 60 -199 52 -46 -9 -47 -22 -70 -975 -13 -559 -33 -519 259 -529 246 -8 290 -21 352 -99 67 -85 48 -215 -41 -272 -71 -46 -122 -49 -824 -46 l-650 3 -59 25 c-100 42 -141 119 -122 226 10 50 86 125 146 144 28 8 117 16 230 20 211 7 231 13 255 73 14 35 15 83 10 396 -11 606 -23 964 -35 997 -20 55 -91 59 -200 10z m929 -2010 l34 -8 -29 -24 c-16 -13 -35 -23 -42 -24 -7 0 -44 -16 -82 -35 -118 -59 -202 -76 -385 -77 -173 -1 -176 -1 -362 83 -23 11 -46 19 -50 19 -5 0 -33 15 -63 34 l-54 34 34 4 c74 7 967 2 999 -6z"></path>
      <path id="pJysdj4ba" d="M916 3143 c-77 -242 -90 -324 -89 -573 0 -198 2 -224 27 -334 15 -65 41 -161 58 -213 17 -51 29 -95 27 -96 -6 -4 -133 -55 -214 -87 -38 -15 -93 -37 -122 -48 l-52 -21 -12 39 c-18 59 -43 54 -36 -6 2 -26 11 -50 18 -55 19 -12 79 -11 79 1 0 6 11 10 25 10 16 0 25 6 25 15 0 10 10 15 30 15 36 0 163 45 168 60 7 21 29 8 60 -36 36 -50 33 -59 -25 -83 -18 -7 -33 -20 -33 -27 0 -8 -10 -14 -25 -14 -16 0 -25 -6 -25 -15 0 -10 -10 -15 -30 -15 -20 0 -30 -5 -30 -15 0 -8 -9 -15 -20 -15 -10 0 -35 -8 -55 -17 -33 -16 -35 -20 -35 -65 0 -45 2 -48 26 -48 19 0 25 4 20 15 -3 8 -9 21 -12 29 -5 13 31 37 156 104 25 13 77 41 116 63 39 21 76 39 81 39 5 0 31 -35 58 -77 228 -364 547 -618 936 -747 228 -76 479 -108 681 -88 596 60 1092 376 1382 880 85 149 198 451 195 525 -1 20 -3 24 -6 12 -34 -158 -112 -360 -192 -499 -172 -300 -445 -553 -759 -703 -141 -67 -228 -96 -385 -130 -112 -25 -140 -27 -352 -27 -199 1 -243 3 -329 22 -281 62 -552 189 -751 352 -85 70 -233 223 -297 309 -138 182 -277 487 -303 661 -4 24 -9 48 -12 53 -3 5 -7 39 -10 75 -2 37 -8 92 -11 122 -4 30 -6 118 -5 195 1 77 2 160 2 183 0 29 4 42 11 37 6 -3 10 -3 9 2 -1 4 0 10 1 13 1 3 3 19 5 35 4 42 15 97 22 115 3 8 8 26 10 40 2 13 8 30 14 36 5 6 6 14 2 17 -3 4 -1 7 5 7 7 0 12 5 12 10 0 27 -20 5 -34 -37z"></path>
      <path id="pBSIVz04U" d="M4646 1998 c-24 -90 -56 -180 -112 -313 -14 -34 -14 -35 10 -35 20 0 28 10 50 65 14 36 26 74 26 84 0 11 4 21 9 23 12 4 60 168 68 231 5 37 3 47 -9 47 -10 0 -23 -31 -42 -102z"></path>
      <path id="p19JTHwOQf" d="M4480 1578 c-73 -140 -162 -273 -259 -388 -80 -96 -78 -90 -42 -90 21 0 31 5 31 15 0 8 7 15 15 15 8 0 15 9 15 20 0 11 7 20 15 20 9 0 15 9 15 25 0 19 5 25 21 25 12 0 23 8 26 20 3 11 9 20 14 20 5 0 9 9 9 20 0 11 7 20 15 20 8 0 15 7 15 15 0 8 5 15 10 15 6 0 10 14 10 30 0 23 4 30 20 30 13 0 22 9 26 25 3 14 10 25 15 25 5 0 9 7 9 15 0 8 5 15 10 15 6 0 10 9 10 20 0 11 4 20 8 20 13 0 42 68 42 100 0 45 -14 36 -50 -32z"></path>
      <path id="pZFJwuQu6" d="M4750 1582 c0 -44 3 -50 30 -63 29 -13 30 -15 15 -34 -12 -14 -18 -16 -21 -7 -8 18 -74 16 -74 -3 0 -8 -7 -15 -15 -15 -10 0 -15 -11 -15 -35 0 -28 4 -35 20 -35 11 0 20 -7 20 -15 0 -8 5 -15 10 -15 6 0 10 -6 10 -14 0 -18 -31 -30 -40 -16 -4 6 -26 10 -51 8 -33 -2 -45 -7 -47 -21 -6 -29 8 -87 19 -87 6 0 17 -7 25 -15 9 -8 11 -15 6 -15 -5 0 -14 -10 -20 -22 -8 -18 -11 -19 -11 -5 -1 18 -20 21 -83 11 -36 -6 -38 -8 -38 -45 0 -23 5 -39 11 -39 16 0 38 -31 39 -52 0 -24 -15 -23 -40 2 -27 27 -85 27 -100 1 -23 -45 0 -111 38 -111 7 0 12 -9 12 -20 0 -26 -31 -26 -55 0 -25 28 -85 28 -85 0 0 -11 -4 -20 -10 -20 -16 0 -12 -70 5 -76 21 -9 19 -34 -4 -34 -10 0 -24 7 -31 15 -7 8 -28 15 -46 15 -27 0 -34 -4 -34 -20 0 -11 -5 -20 -11 -20 -6 0 -9 -16 -7 -37 3 -35 6 -38 37 -41 l35 -4 -27 35 c-19 26 -23 37 -14 46 8 8 21 2 49 -26 l38 -37 48 47 47 48 -38 35 c-31 28 -36 38 -27 50 10 11 19 8 53 -21 l41 -35 42 47 42 48 -36 37 c-27 29 -33 41 -24 50 8 8 20 5 46 -15 19 -15 38 -27 43 -26 11 0 73 79 73 93 0 6 -16 22 -35 35 -19 13 -35 29 -35 37 0 25 21 25 55 0 18 -14 38 -26 44 -26 10 0 56 65 67 95 3 8 -11 22 -35 36 -44 25 -48 31 -28 47 10 9 22 5 50 -13 20 -14 38 -25 41 -25 5 0 66 104 66 112 0 3 -18 13 -40 23 -37 17 -51 41 -34 58 4 3 26 -5 50 -19 l43 -25 31 61 31 60 -46 20 c-25 11 -45 23 -45 27 0 17 18 35 29 29 6 -4 11 0 11 8 0 12 -10 16 -35 16 l-35 0 0 -48z"></path>
      <path id="p4FJBb53O" d="M320 1545 c0 -28 3 -29 30 -15 15 8 21 6 30 -10 10 -19 6 -23 -35 -41 -25 -11 -44 -26 -42 -32 5 -15 47 -22 47 -8 0 6 11 11 24 11 19 0 24 6 30 38 13 78 11 82 -39 82 -41 0 -45 -2 -45 -25z"></path>
      <path id="pyidTdf2P" d="M700 1415 c0 -32 2 -35 30 -35 l30 0 -22 35 c-29 44 -38 44 -38 0z"></path>
      <path id="pPGSoNUE9" d="M320 1415 c0 -6 30 -67 35 -73 2 -2 23 8 48 22 24 14 47 23 50 19 18 -17 4 -41 -33 -58 -22 -10 -40 -20 -40 -23 0 -8 61 -112 66 -112 2 0 22 12 44 26 38 25 60 25 60 1 0 -7 -18 -23 -39 -37 -38 -23 -39 -25 -25 -49 7 -14 25 -39 38 -55 l25 -29 35 26 c41 32 51 33 65 10 8 -15 10 -11 11 20 0 36 -1 37 -35 37 -19 0 -35 -3 -35 -7 0 -10 -52 -35 -58 -28 -8 8 8 55 19 55 33 0 50 60 29 101 -13 23 -71 26 -94 4 -8 -8 -22 -12 -30 -9 -17 7 -22 34 -6 34 6 0 10 7 10 15 0 8 9 15 20 15 16 0 20 7 20 35 0 24 -5 35 -15 35 -8 0 -15 7 -15 15 0 21 -64 20 -84 -1 -15 -14 -16 -14 -16 0 0 10 -9 16 -25 16 -14 0 -25 -2 -25 -5z"></path>
      <path id="pvhg8TC5S" d="M800 1278 c0 -34 3 -38 25 -38 31 0 32 11 0 47 l-24 28 -1 -37z"></path>
      <path id="p4gp4ajrb" d="M870 1187 c0 -34 2 -37 30 -37 27 0 30 -3 30 -33 0 -40 26 -67 64 -67 33 0 31 4 -61 106 l-63 69 0 -38z"></path>
      <path id="p1FpLtwraW" d="M608 1039 c-16 -11 -28 -26 -28 -32 1 -7 18 -32 39 -55 l38 -44 37 32 c30 27 39 30 52 20 13 -12 10 -17 -21 -47 -40 -38 -40 -36 19 -100 28 -31 31 -32 48 -16 14 12 15 19 7 30 -6 7 -17 13 -24 13 -8 0 -15 8 -17 18 -6 29 4 62 18 62 18 0 19 61 2 78 -18 18 -78 16 -78 -3 0 -8 -6 -15 -12 -15 -7 0 -23 -3 -35 -6 -22 -6 -23 -4 -17 40 4 25 5 46 3 46 -2 0 -16 -10 -31 -21z"></path>
      <path id="p1102MGd36" d="M1040 1003 c0 -38 16 -53 59 -53 34 0 34 0 15 21 -10 12 -31 30 -46 41 l-28 19 0 -28z"></path>
      <path id="pjMdhoQSg" d="M4029 989 c-96 -89 -207 -174 -316 -244 -35 -22 -63 -43 -63 -47 0 -5 16 -8 35 -8 28 0 35 4 35 20 0 16 7 20 30 20 23 0 30 4 30 20 0 16 7 20 30 20 25 0 30 4 30 25 0 22 4 25 35 25 31 0 35 3 35 25 0 21 5 25 30 25 18 0 33 6 36 15 4 8 11 15 18 15 23 0 67 59 64 86 l-3 26 -26 -23z"></path>
      <path id="p6lxhxrtI" d="M1190 870 c0 -23 5 -33 20 -37 11 -3 20 -9 20 -14 0 -5 9 -9 20 -9 11 0 20 -7 20 -15 0 -8 9 -15 20 -15 11 0 20 -7 20 -15 0 -9 9 -15 25 -15 16 0 25 -6 25 -15 0 -8 7 -15 15 -15 8 0 15 -4 15 -10 0 -5 16 -10 35 -10 19 0 35 3 35 8 0 4 -40 33 -88 64 -48 32 -108 74 -134 94 l-48 36 0 -32z"></path>
      <path id="pfvgHH4XO" d="M856 846 c16 -13 17 -18 6 -35 -11 -19 -10 -21 18 -21 28 0 30 3 30 35 0 34 -1 35 -37 35 -34 0 -36 -1 -17 -14z"></path>
      <path id="pbX4TvuDH" d="M819 764 c-12 -15 -8 -22 36 -61 l50 -44 28 36 c32 39 51 44 66 18 8 -15 10 -11 11 20 l0 38 -42 -3 c-36 -2 -44 -7 -46 -25 -4 -30 -13 -29 -47 7 -33 35 -38 36 -56 14z"></path>
      <path id="pKh0gsjL5" d="M1480 676 c0 -23 4 -26 35 -26 53 0 46 13 -27 48 -5 2 -8 -8 -8 -22z"></path>
      <path id="pd1p9zqBs" d="M4070 690 c0 -5 -9 -10 -20 -10 -16 0 -20 -7 -20 -34 0 -18 7 -39 15 -46 21 -18 19 -40 -5 -40 -11 0 -20 5 -20 10 0 6 -9 10 -20 10 -11 0 -20 7 -20 15 0 21 -68 21 -76 0 -11 -27 6 -105 22 -105 8 0 14 -4 14 -10 0 -5 -11 -10 -25 -10 -14 0 -25 -6 -26 -12 0 -7 -5 -1 -11 15 -9 25 -13 27 -69 27 l-59 0 0 -35 c0 -24 5 -35 15 -35 24 0 17 -36 -10 -48 -20 -9 -25 -9 -25 2 0 39 -59 67 -104 50 -22 -9 -23 -104 -1 -104 8 0 15 -7 15 -15 0 -10 -10 -15 -31 -15 -25 0 -32 5 -41 30 -10 30 -12 31 -62 28 l-51 -3 -3 -37 c-2 -22 1 -38 7 -38 6 0 11 -9 11 -20 0 -11 -4 -20 -9 -20 -5 0 -16 -3 -25 -6 -10 -4 -17 2 -22 20 -4 17 -13 26 -25 26 -10 0 -19 5 -19 10 0 6 -16 10 -35 10 -33 0 -35 -2 -35 -35 0 -39 24 -50 33 -15 9 35 34 22 47 -25 7 -25 18 -45 25 -45 21 0 115 42 115 52 0 5 -7 23 -16 39 -16 31 -13 59 6 59 6 0 19 -20 30 -45 18 -42 21 -44 45 -35 24 9 86 39 93 45 2 2 -6 22 -18 44 -11 23 -18 46 -15 51 13 21 33 8 50 -30 10 -22 22 -40 28 -40 18 0 107 53 107 64 0 6 -9 25 -20 41 -24 36 -25 51 -6 58 10 4 24 -9 41 -39 l26 -44 30 17 c16 10 41 27 56 39 l26 21 -28 37 c-26 34 -27 39 -13 53 15 14 19 12 43 -26 15 -22 31 -41 35 -41 8 0 100 71 100 77 0 3 -13 22 -30 43 -25 32 -28 39 -15 50 11 9 20 5 46 -24 17 -20 35 -36 40 -36 5 0 23 13 41 30 l33 29 -36 1 c-20 0 -42 7 -49 15 -14 17 -80 21 -80 5z"></path>
      <path id="pBdaVCASu" d="M963 668 c-13 -13 -23 -28 -23 -34 1 -5 23 -26 50 -47 l49 -38 28 40 c31 44 32 45 52 32 12 -8 10 -16 -13 -50 -15 -22 -25 -45 -21 -50 3 -6 26 -24 50 -41 l44 -30 28 37 c15 21 28 39 29 41 0 1 9 0 18 -4 15 -6 14 -11 -10 -51 -29 -50 -29 -49 38 -87 l47 -27 23 40 c38 68 73 49 38 -20 -12 -22 -20 -42 -18 -44 9 -8 110 -56 113 -53 1 2 12 22 24 45 14 29 26 41 36 37 19 -7 19 -22 0 -54 -27 -48 -20 -57 86 -95 12 -4 20 6 33 40 16 41 33 55 48 39 4 -3 -1 -26 -9 -50 -8 -25 -12 -48 -9 -52 4 -3 32 -14 62 -23 l55 -17 10 25 c5 13 9 30 9 36 0 22 17 38 33 32 14 -6 14 -12 2 -53 -8 -26 -11 -50 -7 -53 4 -4 33 -14 64 -22 64 -17 59 -20 73 51 5 24 12 32 23 30 18 -4 19 -11 7 -69 l-7 -35 63 -12 c35 -6 64 -10 66 -8 2 2 7 23 11 47 5 31 13 45 26 47 17 4 18 -1 13 -51 l-7 -55 63 -9 c68 -9 75 -5 76 50 1 21 -4 27 -19 27 -14 0 -20 -7 -20 -23 0 -20 -4 -23 -28 -19 -28 4 -28 5 -24 58 l4 54 -55 0 -55 0 -6 -43 c-6 -40 -9 -43 -34 -39 -26 3 -27 5 -24 58 l4 54 -36 0 c-20 0 -36 -4 -36 -10 0 -5 -9 -10 -20 -10 -15 0 -20 -7 -20 -24 0 -30 -9 -37 -38 -29 -19 5 -22 10 -16 39 3 19 3 45 0 59 -5 21 -12 25 -41 25 -31 0 -35 -3 -35 -25 0 -18 -5 -25 -20 -25 -11 0 -20 -6 -20 -14 0 -9 -8 -12 -24 -9 -23 5 -24 8 -19 53 5 47 5 47 -27 54 -63 12 -80 8 -80 -19 0 -21 -5 -25 -31 -25 -26 0 -29 3 -24 21 4 12 4 41 0 65 -6 42 -8 44 -41 44 -31 0 -34 -2 -34 -30 0 -25 -4 -30 -24 -30 -13 0 -27 -6 -29 -12 -4 -9 -6 -7 -6 3 -1 9 -11 21 -23 27 -18 8 -19 11 -5 11 14 1 17 10 17 50 0 53 -8 61 -61 61 -22 0 -29 -5 -29 -20 0 -11 -7 -20 -15 -20 -8 0 -15 -4 -15 -10 0 -14 -19 -12 -34 3 -11 10 -10 15 1 25 14 13 17 59 7 86 -10 26 -104 17 -104 -9 0 -20 -30 -27 -46 -11 -18 19 -18 36 1 36 16 0 20 36 9 78 -5 16 -14 22 -33 22 -41 0 -71 -11 -71 -26 0 -9 -11 -14 -29 -14 -27 0 -30 4 -33 36 l-3 36 -22 -24z"></path>
      <path id="p5cZLOWZ0" d="M3568 662 c-37 -22 -35 -32 7 -32 31 0 35 3 35 25 0 29 -6 30 -42 7z"></path>
      <path id="pQa57YvgK" d="M3473 615 c-43 -18 -42 -35 2 -35 31 0 35 3 35 25 0 14 -1 25 -2 25 -2 -1 -18 -7 -35 -15z"></path>
      <path id="p6SWTmWls" d="M1640 596 c0 -23 4 -26 35 -26 53 0 46 13 -27 48 -5 2 -8 -8 -8 -22z"></path>
      <path id="pXQixIDfN" d="M3306 546 c-90 -31 -121 -56 -72 -56 35 0 116 22 116 32 0 4 11 8 25 8 20 0 25 5 25 25 0 14 -1 25 -2 24 -2 -1 -43 -15 -92 -33z"></path>
      <path id="p16DBIDwWd" d="M1810 520 c0 -16 7 -20 35 -20 40 0 49 24 13 34 -38 10 -48 7 -48 -14z"></path>
      <path id="pulmIyr0X" d="M1930 480 c0 -16 7 -20 35 -20 19 0 35 -4 35 -9 0 -8 118 -31 159 -31 37 0 23 29 -16 35 -21 4 -74 15 -117 26 -98 23 -96 23 -96 -1z"></path>
      <path id="p174lbW9UM" d="M3108 483 c-33 -8 -20 -33 17 -33 28 0 35 4 35 20 0 20 -14 23 -52 13z"></path>
      <path id="pFfcaIcGu" d="M2910 444 c-74 -13 -138 -23 -142 -24 -5 0 -8 -7 -8 -15 0 -20 10 -19 178 7 121 19 142 25 142 40 0 22 -1 22 -170 -8z"></path>
      <path id="p2pUcAT6L" d="M2410 400 c0 -16 7 -20 35 -20 40 0 49 24 13 34 -38 10 -48 7 -48 -14z"></path>
      <path id="pCQ5xdgdC" d="M3133 191 c5 -44 4 -51 -15 -57 -22 -7 -38 9 -38 38 0 37 -12 48 -51 48 -32 0 -39 -3 -39 -20 0 -11 -4 -20 -10 -20 -5 0 -10 -18 -10 -40 0 -36 -3 -40 -24 -40 -26 0 -36 16 -36 61 0 32 -14 36 -80 23 -32 -7 -32 -7 -28 -55 l5 -49 -48 0 c-42 0 -49 -3 -49 -20 0 -17 7 -20 39 -20 21 0 52 3 68 6 29 6 29 7 25 61 -4 50 -3 55 14 51 13 -2 20 -13 22 -33 7 -75 5 -74 74 -61 68 13 67 11 54 81 -6 30 -4 35 13 35 19 0 23 -6 35 -62 7 -31 14 -33 86 -17 39 8 50 15 46 26 -3 8 -9 32 -12 54 -5 32 -4 39 10 39 9 0 16 5 16 10 0 6 -16 10 -36 10 l-37 0 6 -49z"></path>
      <path id="p3WrAjBtG" d="M3210 208 c0 -7 5 -29 10 -50 10 -36 11 -36 45 -25 39 12 46 34 13 39 -15 2 -24 11 -26 26 -4 23 -42 33 -42 10z"></path>
      <path id="pKIqUM0Pc" d="M3320 181 c0 -24 3 -28 20 -24 23 6 24 8 10 34 -16 28 -30 23 -30 -10z"></path>
      <path id="pYIIafGzB" d="M2340 160 c0 -5 7 -10 15 -10 9 0 15 -9 15 -25 0 -18 5 -25 20 -25 16 0 20 7 20 35 0 33 -2 35 -35 35 -19 0 -35 -4 -35 -10z"></path>
      <path id="pHTaqYJBY" d="M2450 55 c0 -8 4 -15 9 -15 5 0 16 -3 25 -6 12 -4 16 0 16 15 0 16 -6 21 -25 21 -16 0 -25 -6 -25 -15z"></path>
      <path id="pGsh9rXJI" d="M2540 50 c0 -18 7 -20 65 -20 58 0 65 2 65 20 0 18 -7 20 -65 20 -58 0 -65 -2 -65 -20z"></path>
    </g>
  </g>
  <g id="l4SPChB4QG1t7lH3Zzspq1D" fill="rgb(14,49,101)" style="transform: none;">
    <g style="transform: none;">
      <path id="pa97bFhpi" d="M4900 2654 c0 -6 -10 -14 -23 -18 -12 -3 -32 -15 -45 -26 -12 -12 -27 -18 -32 -15 -6 4 -23 -6 -38 -22 -25 -25 -27 -35 -26 -88 1 -33 -1 -62 -5 -65 -5 -3 -11 -39 -14 -80 -9 -128 -67 -366 -126 -524 -73 -195 -217 -446 -342 -597 -109 -132 -290 -306 -395 -379 -325 -226 -585 -337 -931 -396 -136 -24 -186 -28 -358 -28 -173 0 -222 4 -363 28 -638 108 -1185 487 -1511 1044 -36 61 -38 77 -13 87 9 3 84 43 165 88 169 94 166 88 97 180 -22 28 -40 55 -40 59 0 4 -26 -4 -57 -18 -32 -14 -87 -36 -123 -49 -36 -13 -87 -32 -114 -44 -27 -12 -53 -18 -57 -14 -4 4 -12 24 -17 43 -6 19 -24 74 -40 121 -17 48 -36 121 -42 163 -7 41 -16 74 -20 71 -3 -2 -4 9 -2 26 2 16 0 29 -4 29 -5 0 -10 17 -11 38 -1 20 -6 84 -11 142 -9 104 -9 104 -12 35 -2 -67 -3 -68 -11 -30 -5 22 -12 67 -15 100 -3 33 -5 66 -6 73 -1 7 -15 12 -33 12 -17 0 -35 4 -40 9 -16 14 -93 22 -100 11 -4 -6 -21 -8 -41 -4 -29 5 -33 4 -28 -10 5 -12 2 -15 -10 -10 -9 4 -16 3 -15 -2 6 -36 -10 -57 -17 -21 -2 7 -7 26 -13 42 -9 26 -10 21 -9 -33 l1 -63 40 3 c28 2 43 -3 52 -15 10 -14 14 -15 18 -5 4 9 6 9 6 -3 2 -26 -21 -39 -71 -39 -46 0 -48 -1 -48 -29 0 -16 3 -42 6 -58 6 -29 7 -30 55 -25 47 4 49 3 49 -21 0 -26 -20 -37 -74 -37 -28 0 -29 0 -22 -46 3 -26 6 -53 6 -60 0 -11 12 -13 55 -8 54 7 55 6 55 -19 0 -22 -5 -26 -48 -32 l-48 -6 11 -57 c6 -30 16 -57 23 -60 6 -2 27 1 46 7 31 8 38 7 46 -9 14 -27 15 -26 -37 -40 -27 -7 -49 -14 -51 -15 -1 -1 5 -30 14 -63 l17 -60 33 14 c50 21 76 18 72 -8 -2 -14 -15 -25 -42 -35 -22 -7 -41 -15 -43 -16 -4 -5 28 -100 37 -110 4 -4 23 0 43 9 19 9 43 14 52 10 27 -10 12 -37 -30 -54 -22 -8 -42 -16 -44 -18 -5 -4 47 -114 55 -114 3 0 24 10 45 22 42 23 45 23 51 -7 3 -17 -22 -36 -76 -57 -6 -3 31 -90 50 -116 1 -2 21 9 44 24 41 27 43 28 56 9 13 -17 12 -21 -8 -37 -13 -10 -33 -21 -45 -24 -13 -3 -23 -8 -23 -10 0 -1 15 -28 33 -58 l33 -55 45 30 c41 27 45 28 57 11 14 -18 8 -26 -47 -62 -23 -15 -23 -17 -8 -45 9 -17 26 -41 37 -53 l20 -24 37 31 c34 28 39 29 53 15 13 -14 11 -19 -24 -49 l-38 -34 20 -28 c11 -15 29 -36 41 -47 20 -18 21 -18 59 13 35 27 41 29 52 15 11 -12 8 -21 -23 -52 l-35 -37 26 -30 c54 -61 59 -62 97 -25 29 28 36 31 50 20 14 -12 12 -17 -20 -50 l-35 -36 46 -44 46 -45 34 39 c32 37 36 39 51 24 14 -15 13 -19 -16 -55 l-32 -38 43 -37 c24 -21 48 -38 55 -38 6 0 21 16 33 35 12 19 28 35 36 35 26 0 26 -28 0 -63 -14 -19 -26 -37 -26 -40 0 -8 86 -67 97 -67 4 0 19 16 32 35 13 19 29 35 37 35 26 0 25 -22 -1 -61 -14 -23 -25 -42 -23 -43 2 -1 26 -17 55 -34 l52 -31 26 44 c17 30 30 42 40 39 20 -8 19 -26 -5 -67 l-21 -35 48 -27 c26 -15 51 -30 55 -32 4 -2 19 17 33 42 15 25 31 45 36 45 19 0 21 -33 5 -67 -20 -41 -18 -43 47 -72 l48 -20 20 44 c30 69 73 58 44 -11 -8 -20 -15 -40 -15 -45 0 -11 111 -42 120 -32 4 4 13 25 20 46 8 27 17 37 28 35 18 -4 19 -11 7 -70 -6 -34 -5 -39 18 -47 14 -5 41 -13 60 -16 34 -7 37 -5 42 21 13 58 17 64 37 64 18 0 19 -4 13 -37 -13 -65 -12 -66 30 -75 22 -4 50 -10 62 -13 19 -4 22 0 28 45 6 45 10 50 31 50 23 0 24 -3 19 -37 -4 -21 -9 -45 -11 -54 -4 -13 6 -18 42 -23 82 -11 81 -11 89 45 6 44 10 50 28 47 19 -3 21 -9 18 -55 l-2 -53 65 0 66 0 0 50 c0 43 3 50 20 50 17 0 20 -7 20 -50 l0 -50 65 0 65 0 0 50 c0 43 3 50 20 50 17 0 20 -7 20 -44 0 -25 5 -48 10 -51 6 -4 35 -3 66 1 l56 7 -4 51 c-3 46 -1 51 18 54 18 3 22 -3 26 -43 3 -25 8 -48 11 -51 3 -3 31 -2 62 1 l57 8 -7 52 c-5 44 -3 53 11 59 21 8 30 -5 38 -56 l7 -40 42 7 c23 4 52 11 64 16 20 8 21 10 8 53 -14 47 -12 56 15 56 12 0 21 -14 29 -45 6 -25 15 -45 19 -45 5 0 32 7 61 16 59 17 55 7 34 102 -4 17 -1 22 15 22 15 0 24 -10 32 -37 7 -21 15 -41 19 -45 5 -6 108 26 119 36 1 2 -6 24 -17 49 -20 47 -19 57 9 57 10 0 23 -15 33 -40 18 -46 24 -47 90 -17 l48 22 -21 40 c-24 47 -25 61 -5 69 14 5 45 -28 45 -49 0 -29 23 -34 64 -13 69 34 69 35 42 84 -24 43 -24 44 -6 54 17 9 23 4 45 -31 29 -44 31 -44 95 -4 40 25 41 27 26 48 -33 45 -40 67 -27 80 10 9 17 6 36 -15 13 -16 28 -35 33 -45 9 -15 15 -13 53 17 24 18 48 37 52 41 5 3 -6 23 -24 43 -30 35 -31 38 -15 54 16 16 19 15 51 -22 l33 -40 46 38 c25 20 46 40 46 43 0 3 -14 21 -31 40 -28 32 -29 37 -15 51 14 15 19 13 49 -16 18 -18 36 -32 40 -32 11 0 77 70 77 81 0 6 -14 23 -32 40 -31 27 -31 30 -15 46 16 16 19 15 52 -17 l35 -34 31 30 c54 52 56 63 15 98 -33 27 -36 33 -24 49 12 17 16 16 54 -12 l41 -31 20 23 c11 12 28 34 37 48 17 27 17 27 -23 55 -45 32 -47 36 -26 54 13 10 22 8 53 -14 21 -14 41 -26 44 -26 6 0 70 102 66 105 -2 1 -20 12 -40 24 -39 23 -49 47 -24 57 8 3 32 -6 53 -19 l39 -25 30 52 c16 28 30 54 32 57 2 4 -7 9 -20 13 -13 3 -33 14 -46 24 -20 15 -21 20 -9 36 13 17 14 17 48 -3 19 -11 39 -21 44 -21 9 1 55 87 55 104 0 3 -18 13 -40 22 -26 11 -40 22 -40 34 0 28 16 33 49 15 46 -23 57 -19 77 32 11 27 20 51 22 54 2 4 -17 15 -43 24 -30 12 -45 24 -45 36 0 27 14 30 54 14 19 -8 40 -15 46 -15 12 0 26 32 35 82 6 33 6 34 -39 46 -36 9 -46 17 -46 32 0 29 19 33 68 16 l42 -15 9 37 c22 79 20 84 -29 96 -35 8 -45 16 -45 31 0 18 6 20 52 17 l51 -2 7 42 c3 24 9 50 11 60 4 13 -5 17 -46 23 -45 6 -51 10 -48 29 3 19 8 21 56 18 49 -3 52 -2 52 20 0 13 3 39 6 58 l6 35 -49 3 c-56 4 -64 9 -56 41 5 21 10 23 53 17 47 -6 47 -6 54 25 8 44 8 89 -2 89 -4 0 -13 -5 -20 -12 -9 -9 -12 -9 -12 -1 0 7 -17 13 -37 15 -33 3 -38 7 -41 29 -3 26 -1 27 48 30 28 2 55 0 61 -6 5 -5 9 6 9 33 0 41 -11 54 -26 30 -4 -7 -3 -8 4 -4 8 5 12 -1 12 -18 0 -18 -5 -23 -17 -21 -10 2 -31 4 -48 5 -27 1 -26 3 13 16 11 3 11 6 0 18 -12 12 -49 13 -70 0 -4 -3 -8 -1 -8 3 0 5 -11 9 -25 9 -14 0 -25 -5 -25 -12z"></path>
      <path id="pm68aKVNS" d="M3530 2248 c0 -4 -14 -11 -32 -16 l-31 -8 31 -32 c39 -40 55 -40 81 -3 30 42 27 58 -14 63 -19 2 -35 1 -35 -4z"></path>
      <path id="pR4jOzMoF" d="M2015 1682 c-64 -6 -72 -20 -29 -58 41 -38 91 -63 289 -145 l80 -33 190 0 c215 1 288 15 415 79 38 19 74 35 80 35 20 0 99 65 100 81 1 38 -62 43 -585 44 -275 0 -518 -1 -540 -3z"></path>
    </g>
  </g>
</svg>
</svg>
</g>
</svg>
